<mxfile host="Electron" agent="Mozilla/5.0 (Windows NT 10.0; Win64; x64) AppleWebKit/537.36 (KHTML, like Gecko) draw.io/26.2.2 Chrome/134.0.6998.178 Electron/35.1.2 Safari/537.36" version="26.2.2">
  <diagram name="Page-1" id="P2I-QeUZNlpvNo2bamDT">
    <mxGraphModel dx="920" dy="557" grid="1" gridSize="10" guides="1" tooltips="1" connect="1" arrows="1" fold="1" page="1" pageScale="1" pageWidth="850" pageHeight="1100" math="0" shadow="0">
      <root>
        <mxCell id="0" />
        <mxCell id="1" parent="0" />
        <mxCell id="orFnFvL_lUQI9brEGb0L-37" style="edgeStyle=orthogonalEdgeStyle;rounded=0;orthogonalLoop=1;jettySize=auto;html=1;exitX=0.16;exitY=0.55;exitDx=0;exitDy=0;exitPerimeter=0;entryX=0.5;entryY=1;entryDx=0;entryDy=0;" edge="1" parent="1" source="orFnFvL_lUQI9brEGb0L-5" target="orFnFvL_lUQI9brEGb0L-14">
          <mxGeometry relative="1" as="geometry">
            <Array as="points">
              <mxPoint x="180" y="706" />
            </Array>
          </mxGeometry>
        </mxCell>
        <mxCell id="orFnFvL_lUQI9brEGb0L-5" value="&lt;font style=&quot;font-size: 25px;&quot;&gt;LAN&lt;/font&gt;" style="ellipse;shape=cloud;whiteSpace=wrap;html=1;strokeWidth=3;" vertex="1" parent="1">
          <mxGeometry x="280" y="590" width="315" height="210" as="geometry" />
        </mxCell>
        <mxCell id="orFnFvL_lUQI9brEGb0L-15" value="" style="image;points=[];aspect=fixed;html=1;align=center;shadow=0;dashed=0;image=img/lib/allied_telesis/computer_and_terminals/Personal_Computer.svg;" vertex="1" parent="1">
          <mxGeometry x="130" y="900" width="100" height="135.53" as="geometry" />
        </mxCell>
        <mxCell id="orFnFvL_lUQI9brEGb0L-16" value="" style="image;points=[];aspect=fixed;html=1;align=center;shadow=0;dashed=0;image=img/lib/allied_telesis/computer_and_terminals/Smartphone.svg;" vertex="1" parent="1">
          <mxGeometry x="430.00000000000006" y="923.09" width="45.83" height="100" as="geometry" />
        </mxCell>
        <mxCell id="orFnFvL_lUQI9brEGb0L-17" value="" style="image;points=[];aspect=fixed;html=1;align=center;shadow=0;dashed=0;image=img/lib/allied_telesis/computer_and_terminals/IP_TV.svg;" vertex="1" parent="1">
          <mxGeometry x="620" y="923.09" width="100" height="102.44" as="geometry" />
        </mxCell>
        <mxCell id="orFnFvL_lUQI9brEGb0L-19" style="edgeStyle=orthogonalEdgeStyle;rounded=0;orthogonalLoop=1;jettySize=auto;html=1;entryX=0.55;entryY=0.95;entryDx=0;entryDy=0;entryPerimeter=0;" edge="1" parent="1" source="orFnFvL_lUQI9brEGb0L-16" target="orFnFvL_lUQI9brEGb0L-5">
          <mxGeometry relative="1" as="geometry" />
        </mxCell>
        <mxCell id="orFnFvL_lUQI9brEGb0L-20" style="edgeStyle=orthogonalEdgeStyle;rounded=0;orthogonalLoop=1;jettySize=auto;html=1;entryX=0.8;entryY=0.8;entryDx=0;entryDy=0;entryPerimeter=0;" edge="1" parent="1" source="orFnFvL_lUQI9brEGb0L-17" target="orFnFvL_lUQI9brEGb0L-5">
          <mxGeometry relative="1" as="geometry">
            <Array as="points">
              <mxPoint x="670" y="830" />
              <mxPoint x="532" y="830" />
            </Array>
          </mxGeometry>
        </mxCell>
        <mxCell id="orFnFvL_lUQI9brEGb0L-18" style="edgeStyle=orthogonalEdgeStyle;rounded=0;orthogonalLoop=1;jettySize=auto;html=1;entryX=0.31;entryY=0.8;entryDx=0;entryDy=0;entryPerimeter=0;" edge="1" parent="1" source="orFnFvL_lUQI9brEGb0L-15" target="orFnFvL_lUQI9brEGb0L-5">
          <mxGeometry relative="1" as="geometry">
            <Array as="points">
              <mxPoint x="180" y="840" />
              <mxPoint x="378" y="840" />
            </Array>
          </mxGeometry>
        </mxCell>
        <mxCell id="orFnFvL_lUQI9brEGb0L-32" value="" style="group" vertex="1" connectable="0" parent="1">
          <mxGeometry x="346.6" width="200" height="180" as="geometry" />
        </mxCell>
        <mxCell id="orFnFvL_lUQI9brEGb0L-24" value="" style="rounded=1;whiteSpace=wrap;html=1;fillColor=none;" vertex="1" parent="orFnFvL_lUQI9brEGb0L-32">
          <mxGeometry width="200" height="180" as="geometry" />
        </mxCell>
        <mxCell id="orFnFvL_lUQI9brEGb0L-11" value="" style="shape=image;verticalLabelPosition=bottom;labelBackgroundColor=default;verticalAlign=top;aspect=fixed;imageAspect=0;image=data:image/png,iVBORw0KGgoAAAANSUhEUgAAASwAAADtCAMAAAAyYLjiAAAAb1BMVEUAAAEAAAAAAAAAAAAAAAAAAAAAAAAAAAAAAAAAAAAAAAAAAAAAAAAAAAAAAAAAAAAAAAAAAAAAAAAAAAAAAAAAAADlcADlcADlbwDlcADlbwDlcADlcADlbwDlbwDlbwDlbwDlbwDlbwAAAADlcABS2PjTAAAAI3RSTlMABAkQGCIsOkhVZneLm6i5ytnl7PX8+/DfybGXeV1BLxsMA6O3cBcAABMqSURBVHja5J3ZgoI4EEVBaBdcWCQBlbXg/79xtKclsaGlUnGEOOehHxGvSajLraSt/xxwlls/PMaMxccw2K1c23oJtrvaddf1t8tXXXdCnPUuiFhzh7FjeNg4ljbOZh8c5etGwX79gutOB7ibQ9z8grHY974sHcD1/Nt12eOFY3/jgmUoi3XAmkFYsFlYZBab4esyFgdrjetOyddezJMe8WFpEVke4j+vy44HvUE7Dddh1Twl2JBWZHsTNs9gwZp03SlZeFEzQuQRpoyz/W+uOyW2FzdjsFj9WznbuBkl9sxa5mFzbMaJt5Yai13cjHOkTfDpwAythkWe0tdabDFaEQbs1OC+WKQyCBYebrgaWJvipky0BguJjZvaO+PG1Q1nz5pxwpWFZBM147C9gePqhnvAqBXgqlN7FTbjsINrGcqXj1ILU3PDMkRci/km1u93tYJmFIb6hsvgZbrPluVdLc25gxyjK8tk7DVipWGjq7KDWv3CtWU2sJaeYdTayNmjCnfzHDStOmLbxROtPs3kQF2WRVlWNUDP+EhqUTwKzgscvQX07qkqi6Ksqvn4aoCqyC/nU5pcSU/nLC8roHxZW8/kPIpdlXkm7umSF7NQrC6yNGmv8O8/t7/JKatqgvGxNabxg8mpy+yU8Nvd8Pbn1pI0K+qJ9arzU9L24Dw9F6D4MGPR4IMf9YBgB0ca6cUlvcskk5zy2pqOm1S8HeQqV1lLxqdBEKzsvlYha8aRCrWrVEk7DJ9QrtttiR+wT5pVUlHZIPCXtMJdsgBVlrZ/w5NzOclcrPO0fQ4/lYAv5cW3lu2SmhWH8sSf3xJPpxhc1XW0j8HTHIQRbhD4rrLJYeGy+5A85eM3damsN1OdeYsgye6/I6yk1QdnE12cyelWujpLWgT8/N4yAiATWo2phX55J2wi/uUhizYWTisBz94q1m1xaHFwoRb2tTAtyUFr1Z5K680UWLWSDLpaHBXObBeUJKfOseMqneCBWKQtjjQHdeNj44Td2d3ajh1XaQFvFwsscXtotZydWIaeTi1Vk1MTfrr3kifIVT4t1BKfaL1WS3IArVUykVZWnasvqbhyIEJp1RVlUKovoG+nHi8ghFrC+LwIUe4raDVB+f4D1BesWudKMj6vgHUmB0YLZFG8T6fVlfrSCrBqhazRJ1wJM9FKzMvoPADoO20vlZQtayNpRRjdU6GgVt29/Ix0x1YkCne8Vm8v3H8D6CcRl4yPd2y0OHq2xjNmOgBKdI2TgdTqpkHcaQVoQziFyZHRqAidrYZa8dahmBxrHuR4ryGCU7Ja8U5ohf/g9xvC32j8wM6euMhLSQ5hSM8AyLHLrFg63ANNLaFVmXLcxyZTvHf/CwDKmzea8ZFNDrZwz6aOV+nGp9QxPiLJKfGF+7y0ulKpGx97qVrKM4LJaeenlWXh7ey5llrdlIjWnSk9Y+f9uZrNg1CAnhecX5CJT18rwqx/b+41CmXFVdrjI1qwhMlBftRpHoX7ABTjgy/l4626yTkV1lxRMT51l/iwBgXbLjRq4DmSq4csuMSnYZ3JocRK84Two+Na3Q5SkvOwXhlSuA83QeDVUml1O7jqhnC6JGcQzcQH0K1F/td9cac0WcyX+qL+7nLM+EhJzm+tZprkDKGV+HCRIIjmrQ9JcobRyTCSs9Tq9kwrUE1y+PRJTsfL1OpMrv1jfD4myRlAt9UtuYwlPqJdDcxKcsYhdB8APE18Ym8Bn2MIe6j1S/Ecnu1aiXfKJocnszY5A0CuHiY4uycmB9DdYMnkm3Seo9W8JYyPu2e9Tm8Nj24QJOPzWMozn2RyTBtXxDYE2/UfTQ6hk9xEqa7UF/Q7ugqE8RlIcnomx6AkZwyd1qlVKJIcbGufwBSTo1XKC7VgFd3TCUJuZLBWakmo9WB8ojWoJjn8NNMkp4duKS/UAu/4neSor3xmFe5XNPb41CLxibfq+5dSowzhN/Q9PnLi4y3U+3NMMzk36IlPImzi/8AQ/otG4pO/IIg0HLTx4WkBxClsauE+pBb24Z+WpEfplHtyXo1KqVQS3rcakuQ88IpHIs+sDrQR/5TF/Rsg7FkhWkvzUbGIAIRmwg9SS2GElEAdkR+iFiXPJ6zxRr4g7RDmThYLVTc4YhMFYc+ZuUCmHlx8+f4XoS41Xi0gtOm5+5jtXQ1raSiYQ5r68SGjdkVaRkOYRItt/BBFA91amgV635ZYnm2P9c7kIVpLs0DvIkguQqvjwEboC3ZsmdU+QyrcudymxaTGLMrxEUbORKhVTI44626o5Q8ImZpR1Gf1PFpo1Wsm/TWjPyuTppic/qmkwVIjUzOGmtBDM9QOL5XyH9UATzU5cr9RD+YTOrTMeiGPNzlJPnJoG9u7Gs2EJkD4Ws6OjZx5AZ8ZIvb2baFNzh9ncRIWQkPUAsL2X3t7bJq/1TLzTKNfvKpx5vn/uWAE42NGSw26TY/zs9yS9ZRoA50tQI8tA0p5gjGB8eMdwjV0xqDtY2YboEr2LJ2Y2IwSLn8+AL/jsJ17Ka9icgCEyRmFBUtC4jNrtWrCS03kYUdMaopXf/06Q1Ta9KTzgxEDS96aAnjjw+fbtVUTkhzJ5Iyr5Wg4hJkBBd4QAuXov3i/+JTEB+hJDhJhfMB041OiF5ILAPG40li9O36S/8IgobctWjI56gfhHj0gFCnWP+1diZajrBIG931B6CXTPd3B93/Hq91qiaAg8U6S//hlzsyZSBDKj4KipOrBYL5HDgGpI9LuBokt4uY9mLS+L7sX7ji0kFXLiMVZsccyfHaMiW/O7WNJ9qhCm1Arj6O3+B+LYD2WsmpZtf986+vjGD5HeXIMwSw8Pg9j+Fw/98vKNlbw4kz+1WJtd1cc6MkxRr4/bvfrIyzlbZp7Q3zzyfDZT+v7m4l8x9kJzq2MnBXDh+9XmHeWls2EdGNOhtHw2R8n6t4+DAsjh8c3ZvsYDR+LRd5dl/JfO7wH3Cqc8jrqmO83fO64lLcwOA7JUDR6fG7wKP1zfFucIgxMZMUqEx8GeHx2aIPLnZZb5rriTXhdTY/K99Xlbn7V7eVOHp+rRehsjScHTGVsZGazZzm1wj/2b4MbJoaOjHUbKyxOrfz7V934p4V3wjDH6O8NTDON7vVhvPx7j8/f1105b8wTQ5PY2bPGYM8QQNF0EL79qAibxNCGW/Q0VZmJjzUQQb1rZIVsMm6Lb7hpxSsHnHwsFc/5h16jvoClr00MDSoIgHdldOfcaHvr7Z/LqgPXblO+zNwqkYWsejVnNCXEkGtRZ1O8vP9rhTXgC8ilpNXHN8hq10IA4JlMoKyOwKrYJvzb/U7p878X0BJSs4BWhp6c0kcAo5QN8PIWnhlhq+J6vdwxswxH16/Lm5pVX3yvrCofycCGi35/lhGvY/yLasXw504jEHD9+hzoBZK6fH6Do07vyQF/IOAWVvLr9+ef11dRUpfPrzsodgm8k9fH5fL+1n3eL38+PjtScZCVsZHDkRohSEuv74Befz/+XN7f+za99226PlKQjOv1+v3d/SU1yc3NFu5oFREBaZvPpJzzrkkdrryX0yPJqgPv/0hwjNdK6zAxExl4fCQ8lpwUMDZyIL+cDMNDBZAx+amB9xs5EszNxASjJ4aeEpBO4ACCkviZpbVvTwpgq/pI9LzSMt3tVPXQblKtw2dR5lYLJFhOauAWtyxtHx2GhkpgOnL8ojVA6T8htxbpKLZ8f4AjpN8x9ekw3y6wMXKszcTe8HkyeJmJiaIwcm7Xgix/ssUpN8rh28SmvNqV0pymT7aAmHp17Kpo8r0eN7YfAaFWG1f7ZdVLq9JwlpWhRb33Bfa3V5G0CJAV/GKz3qbwn05WHZykZuuqPbGes9yErNdbJw56SnA/JSvaKgtuePw4yJqVetOnpNXYrbSi0gCsslu1Cg6zWlFvemu99wXGbpxXhLKxQ6QuEu+AyQp7SVE3dNomJVUeu08tql9gN4iStCjLIkuiwDusR9jr6s26evMsjgLXwQc8g8cAdrrPYXIagDnG/5eKT5w4ceLEiRMnTpw4ceLEiRMnTpw4ceLEiRMnTpw4ceLEiRMnTpw4ceLEiRP/CXAvWMHy/c+Ngo7ijU+jgo7vw10U15z5f4Mf+MoXeOF64EhfS/Bdvmyu77sIIF3jP3UlVbMCUmURVODE5WrBOo89NIcbZhVRFkxmXcVBUtbwYwHYT4v+WjLK0s/I2Kw0BHnMqhqvFyGHWvqXmudQ1uFGWUUU9cK1MuuvbUc/o2WAjSJgsTJCgP4oCmPqGqvIGcWfEjZEKQrx2vEMNpR3S9YONbK2yTypePe9FMYHxzVtV9BAGuGg6EsxqBfA/YKyobyPSAvYOmLllJqCJMFmxwJJiseYD2Pv2TLIgJM1i/CSYSNFKAV4GRWupoOssmbz+QbDr8vpK1b4yxOODMoj9fOX88+7VasBibjZ8VwSy+VIrAzjAFEfIrZ+XhWni17k2Ch0xlAHlIN6FRF76wi1WhTuj/irVofKM4w9V/nSMV7WM1gOpgitjxeVsoSvx8grsFkc55TLzyZ31cGsevK3WtBYwyxo/+8dSKtDgqXAD6wOlMFUSm8QCFuNL+YUy2sF6pG1OlSeismOKsE8jbuvWz0ybsYsVmDgwCYKDFmdpESiPCbyWXq5VpZOY4UoG+KWrQ40GuWdg2qiKYaAg2KAz1aP0gFm6R8UzvXCqmG6ImwhGB7V8BVMkxGT7uZy6KiIAhi+jUwVibFJnGWCeZo5fCYsRhags1YJzGqIiAbuEogPlK4WDNGIpJlNRR5oGphcFsxiDZurB4QnoTRUYFZEIWv3WtcKrBpyTYzFIKlsiM0Fc5kvAg451+6cWTReFsxBBgIFq2hZkAH9R2BBmbsw/8CJc5FZRVgzeIh9p9iwEIoygVkxZSMtAl9AXE9khhv41UxaEcZpIyl9EJYvhQVoYHTNmEVDtEBAlMJiUjgrnyjqcGfKleYB8BIWXwKzcpywQblEwpxXuInELGj/DBink1QddYgNEs2XE6WHNcKCrgGz1MLyKklYQB+AfEmOX0TrRf4TmVk58sdCP4MjmdiAUiYyC3TuAgmo45WgTESaZHTCMmSWW98kLIhfJIdrk5nFcsQzBk3xKuj3jFmbwsIxk5gF2SmVyR8OY5a7YBbTCyvUxq2hmYNWmAXUyjBK6KhKMRBmwSwsMYuBHHWB5OoQowOZ5d3ILISCUhNQRmAWwvnYkWCae8uufKpkFpOHoZJZagOpjjA6klkB2c2sSBO/CEw0BbMgPB7LogZmk5uZBSHoxTCCNzArCURE5VRHYMosWeC1IKvRyFEzCzkTtarRWPJ7Xhgyiy+ZBXBEm7xJMDISVtgomdU2HWjTjP/Q+erVllmIh4SJdt8Gs2BZINo+KbuVWcO6HaoVfwqscAS4QcFABma2YY4tdRbMRCCsDWbBFpT4qA9glpjCha4Ii1Wl+CG7bUMaI7vZsCdWpYlFJzKLT7QBc+QInbU5DA/ddShdZMushYJnbe5tMAuaA8qyR3ozs3BKNxT8gftZ/YaUpc7SLB1kZiH+Kxjo8yHMUiwdyKypx+2UVr1PxW429JWLUneLWcifG0b94zxgNlSlcGF1qBLWLXvwjOQdryyZ5Ra66NQyswabBx7nAbMhNzF3tqUQ4YWSqKZJoAYa/Ho2rXTWfPOOESYrV5lZoruHDha3sW0IwirWDOmmURrSm6BFiKWOOu7Px3GCehLWXCJjtxJ5mcvEYSh7C4JSUq5qZiEnm7jvIaTWWbD0EZFOcljboolFPwAXhcVqCVUJvmKVbcjBC0NCEBZQMA4EqDf/UsGTg8VdJbzOLBw2i30zvLKfRbMwEBDXMDMoJ5km5o7YruWi1HMXH8/hGuXs5qKfZOGNpU1DZh/KWqkOnBDRk4NDYVuZS8zKQNXBhr6KWRHcT2xHI02jsPMBm/BOJvku0WyRtAmvgjUNYDYQ8aSCWh0YOCwiWTdEgrSkjYIURib97QiW2FfgfQ4LkDxMLWD4gH8MfrYNt5KGOXQWUnYYusIcSHwix++OiexiR5E8x7olEEvc/iiQqSuMy7u1LHUgB44oQNiU3YZXwdSjmMrAnuMmTtZp/mGqTbaECkMTHgHIBsrlWNAKwCxu7mR1U3nIgccH5maTUQjMgsaCENncPjNyHNY+l94kIDFfmSC9iVmQ1AOoRUDG4McvBqJtNgQ2FZyEqRMf+JXkvgdTRc+sJuLqPBXQD+5p+N/8TnJ4qBJGsTqxYeYCs8SHioO8jBa/A2bNvWyaF0MUTJbfxiARGvZOB1bomEUSKCg5letQG/8Y6oCdA3ACq/N7kBCYtYwx7GCu2o0qRoZqXzlaKrdSeuVoVh71LS2HXmqYxWilzNUSlRRcUz/w89VWQh3YTethbJVSvU5/Dcr/MIuRzEca9HWOzPp5rZGuG2geBM1uxu8k72lQDF3przFSxg7Sw62aKnFXriVlwxiBIYGdqCCKZrKuDm/ekoxQRqtEJQM/q7trderhQR3VuVGAWz+tmwKecVo1CppTkoezXjvxTwcKxQ2w+3utDB30P/6t5dxxmOGdAAAAAElFTkSuQmCC;" vertex="1" parent="orFnFvL_lUQI9brEGb0L-32">
          <mxGeometry x="37.56" y="40.67" width="124.88" height="98.66" as="geometry" />
        </mxCell>
        <mxCell id="orFnFvL_lUQI9brEGb0L-8" value="WATCHDOG" style="group;strokeWidth=3;strokeColor=default;rounded=1;container=0;verticalAlign=bottom;fontSize=25;fontStyle=1;fontColor=#626262;" vertex="1" connectable="0" parent="1">
          <mxGeometry x="37.5" y="260" width="800" height="300" as="geometry" />
        </mxCell>
        <mxCell id="orFnFvL_lUQI9brEGb0L-4" value="" style="shape=image;verticalLabelPosition=bottom;labelBackgroundColor=default;verticalAlign=top;aspect=fixed;imageAspect=0;image=data:image/png,iVBORw0KGgoAAAANSUhEUgAAAooAAAKKCAMAAACNqoq+AAAACVBMVEUAAABPo9MAbbhr4owcAAAAAnRSTlMAkmiSP1AAABCDSURBVHja7d3btuMqDkDRyP//0d2nq3eduuzEBiQg8VyvGUEWLAsb3x4PAAAAAAAAAAAAAAAAAAAAAAAAAAAAAAAAAAAAAAAAAAAAAAAAAAAAAAAAAAAAAAAAAAAAAPhJHM3oNFARVKQiqAgqUhFUBBWpCCqCilQEFQEqgooAFUFFgIqgIkBFUBGgIqgIUBFUBKgIKlIRVAQVqQgqgopUBBVBRSqCigAVQUWAiqAiQEVQEaAiqAhQEVQEqAgqAlQEFakIKgIAAAAAAAAANiaaGfhrZITFh9J+2eOnFDHzr662UJGKoCIVqUhFUJGKVKQiqEhFUBFUpCKoCCpSEVQEFd9WxcMdGFTcQsX4dXNBxWUq/thAhZGKy1X8a4tBxSUq/rt9CiMVV6oY3240qDhdxT+2moxUXKRiPN1uUHGmivFiw0HFY22XcJGK81X8ftscMFJxtopxuvGg4loVuUjFqSrGlc0HFRf3BxepOE3FOLhIxS1UvJwBqLiyKHKRirNUbMkBVFxZFLlIxWOfzuAiFbcoilykIhWpeBcVoz0PUHGtilyk4jZdwUUqblEUD+9NoeI2KiqLVNylJ7hIxS2KoimaivuoqCxScbuOABXXdoQpOnle6v8G6Zq/7jI/K4vYR0VlEbuoqCxii0NFZRG7FEVlEduoqCxiFxWVRVARzlrM0C926YEF46l/jcVbXKCisjg6uwyMweoLfxW6xKEsUvHdVVQWqUhFKlLRDE1FKlKRimZoKlKRilSkIhVnq3iMQEAqbqKiskjFDVWc+0AOFan4Z/P/8+7Jr7dykopLVby2DffwkYr7q/jlIxWpuIOKP3SkIhVr1hXZSMW3VfGDF4Co+HYqfqqMVHxDFT9zmqbiO6r4kYWRiu+p4gcWRiq+qYqfVxipODzexzIXg4pU3ELFDyuMVBwe7FjpYlCRiluo+EmFkYpvrqKqSMUtDhYPEzQVN1HRaQsV95ihg4pU3ENFizlU3GSRm4pU3KMsutpCxT1UdOGPipvM0G6HoOIeZTGoSMU9VHSTGBX3mKHdr0jFTcrig4pU3KIseqCAipuUxQcVqbhFWQwqUnGLsujhUypuUhYfVKTiFmXxI98O4cuno18+XVAWvcIbm5RFnY095mdFEc8Pcxwo4mYFkYnYoyA6UMQmGiqK+G4VzP2yWO1grHvcNN6405DJsZh3rYnLOw5MpCITqQgm/o3BIyIVwUTzMxOpCCJSkYlUBBGpSEQqgohUJKJlRcz38INuBzOaPKQieEjFt9fwE2/TNq7vJmF86tMCRvdN/PtgB6lokYaKuMKDilAUqYgbF0UqKopUhKJIRUWRiqAiFc3PVISiSEVFkYpQFJvxQIGiSEUoilRUFKkIRZGKiiIVoShSUVGkIhRFKiqKLrdAUaSiomiGhqJIRUWRilAUqagoUhGKolNoJlIRVDRDM5GKcM5CRUWRiixQFJ23QFGkIhPN0DA9U1FRpCIURQeLiiIVwUQztOmZilAUqchEB4swPSuLiiIVwUQztOmZilAUzdBMpCJMz2ZoRVFZBBOpyESYoamoLDIRVGSiGRrWcZRFRZGKYKIZmonKIphIRacsZmgoisoiE5VFMFFZZCIV4ZTFDK0oKotgorLIRGURTFQWmagsgolUZCK4yEQqWtoGFxVFKjIRXGQiFZkILjLRJRcwUVlkorIIJiqLTOQimEhFInIRTHTmwkRlEUzkIhNN0WCisshEcJGJpugPEJGJyqKSyEUwkYtMdLgIJiqLROQimMhFJnIRRHTqwkQoi0zkIhHBRSZy0d0P4KKSyEUmgotE5KKjRHBRSeQiEcFFJnKRiOCi0xUuKongIhG5SESQ0UEibuwiEblIRDxzMYgIhZGIuK2LRCQjEcFFIjp7sY4IhZGIZDQzg4sKIhmJCDKamZ1LK4ggIw/JaGIGGRVEMvIQzqZ5iHeUMXhonlYOwUbl0EStHEJpVA7xXxuDhlAcWYh9imPQEMt1ZCGW60hCXPUxCh0kIZp9jFwFOYhRI3ud/P+fKYgCJ5+LGb+jxwAAAAAAAAAAAAAAAAAAAAAAAAAAAAAAAAAAAAAAAAAAAAAAAAAAAAAAw9z7A3k+D7jPSHx9vPGe6d86+y2H4p7Dce/s9x2L+43GvbPfeSzuNhr3zn7vsbjXaNw7+8345svzt86eivuUhTuNRtx7R6Si7GEwzo9OqLiTigcVQUUqUpGKVKQiFUFFKlKRiqAiFalIRVCRilSkIqhIRSpSEVSkIhWpCCpSkYpUBBWpSEUqgopUpCIVQUUqUpGKoCIVqUhFKlKRiqAiFalIRVCRilSkIqhIRSpSEVSkIhWpCCpSkYpUBBWpSEUq4oJkP5iu4rW4VfkuVzEt9cx+bGgnOWz8IdiLtvNU/DvuHCWb0i1W8WtLIj2fgRa/timmhv2rud+bLlPxVdxCHU/Sjckqjn/OdzSfzo16FbYr7ssGn9mYoGJX3AwPj+G4qSqOfs63pB/PN+pSP46ff5xnM6pidMYtOd1q7sVEFWNw+CIjn9OtivKwl1v8q9kxFZvCJp6bRlLYvK2MoYba8omBdku6sVfE35sdUbE5bJKMkRY2axu/36K6fK5u48vsIn/02o34pdl+FbvCJsgYiWGTtjBGco26bnz1jeHIj9pnxM92u1WMobBzRXwaN2UDYyTV3HwuNB4jYaMik692O1Ucjlt31twyq2Vs3otNWt2PbaM+FnIkkx8t96kYo2Enl8RncYsXLmJ2PtfSi/yQMZjKPy33qDgcNu8sdTDs6LadjEBU59O1bFpQiceN+CeZdhVT4i4Q8ZuxG9y0s01a3Y/f/2UoYFkmPV2YEzdWmPhX3OLF3On5XFExX41CE2d0YauLaelGlooxlGJNPktUrDTxmNCDrQdlNWFrVwNjej4rVCw18ZhiYouLUZRd/wWuffboFxs8Q41aE485JmbOhZ1ROzcqBrOLSd2Yb0ZMNvGYllosMPHX9Pq2aTMTn4eqV7HaxGNWF9ZeYrzQn3Xr0jHRxKZL7KnjVW7iMa0L82bDaSqOlsSa4Ysls9jFVOInc9cxG8NGkokt6Q6oOFwSL/uR0Y8drr0M227in08jNOvYOQhdcRPmwz9H/ixsv4oxvnt19WNn0FYNH6+Hr/lAMcavV/f0YPTGjTETv4/7+sGhThUTROzvx55BGz9S+rUfG02MlIOU9j+PlJKBketLt0/FmGFi9F9njH4VXx5Q/Igbjcs4kXQrSOs/xybZ7gOr3nS7FnMyRDyTI7sfE0TsHZqs09Hcu/IGGoiKdHuWuCPHxCgdvj4Vs55wbF8ujh4Vi5ep56bbceEvR8SEfNqaqBPxZduRofMTNSIjlY5GStJtvx0ia10qpR9bXCw0MVKabD8ZO6rjNqfbf39r+01ikTXPRXU/tqoYi0280LfT4zZeLBh48ULzrbNpJTEtn+v9WFUSB59yHFheOerjlqb7r4xXykbUlMTUfC724/4mnnbw/Lgt1wr6Xqj17RvazppPuM5Xks/Ffqwy8Wn8yNS6Yd9KjVubbosdUVISm1LPcqHKxEdmKg2LK7lKXG/tWK1iqohL+vEdiuJJR9ftAdebm1EUX6qYbOJjzvBdVbGiKFasUVYqcbW9mGDiCxWzRUzPJy6MXZGJkVucLi/zpStxscHsdNtUTDcxP58L/dh3C8r0verqkkB+LiOn7TFFxXwRK/IZUDHSe63oPOio7cJLTcYME79XMQpMfJZ0QXEqP/OLiXP+UduFl/aqY5mKR4GINbvW6ZbNVDFqRqI47oU25xTFxzQTHxVHvtGpYjz2U/HCqVDJyUPvydIuKsYew/dYo2KJEucq1nTheatRkW6SipF2pe5R0o/VqxA1VSLWqHiezZyi+JhTEh/nt5PX7NLvMz93q/goiRvl6SaomPkgSAyzj4qPNSrGIhUfO6g4+1R9ZBPnHdVF1ViUT5SxZg/IMCQSd/klKsamKnYd+FY58BYqFtyT914qVilxomKZEicN76ziqlfaX4eK1So+NlEx/675qSpW9Fk8ymfKVSoeW6u47PMKVNxDxdhHxfTn2ooOFt/prIWKo4WHilRcq2JQMX1sgooTXKQiFesuggQVJ0zQQcWvmEkuUpGKQypGymvoNlvMiVpjqFih4umjf7GnijFfxaNeiRtfbbnyZH5QkYrlKsYljWJDFaN4Lp16Z87ZMLzxLnBRxbjq0X4q5nxjeD8Vb3qT2PVXLMZuKqZ9eX26ij0l/tNvnW16A3LspWLzS3Xzx66q2Rs+UBBtJo295rNSxKkqxhoVj/pqdMwpi1ejDLv4/T9TmbYEWDM2p62ueg56MxWHXZxV5pepeJQrccNH8ts/9xgZGb+PihNfVBLlu8B5owtfVNLxjb+gYs0rG8v7sPv1TcfKsRpz8VgxQ89cdql4qV2U7wK96xCT3q/YsyKzZ1mcuRg95MS1VzbmOzHwqs9jVxVj/vBtp2JkF6eLHxZLfxf3Ti9ArnDxWFAWqyIeyclcfM/8Zq+Fj5VjNeJiLHBx6s0s9R+tyHbiTT6Wke5i+hcm9lMx+91WxXEvt7b8E0LZLh7zy+LUG667G78+0qnfpmtIYoNv/KW6GPNdLAuX+AXSprYyd4GEz01mjl3iRHv+12O6i3XRjrRkmoZ5t4/wdu16fR/hTXUxdd96cgPELBWzvlbf2lCaE0mfJu+Pm3IXVe9Sd2I+8XVrzyoVsz4f2NonWX3Y2k5Fuhn3lqaXxcZ84tf7zBapGCmD095KStz2YlKSbsId991TdHk+81TM+MBvTz/GfnGjo4Rcuy0yHmUuZuxb0XBMUKliHKNSvGyh5DLDQAs16SaMVW9/jOcTLf8rPV8fHJw4Ov9/VMatS7fngcZ41Ln4Op/Ofow1Kp6/5aV5ZIaveA0tCw/F7VsCTHlmvcLFMxmbr4XWqnj2GOPzbE4/czwWt+CfVemmjFUUTC8vZYz2gSteUD99pPbbtc8Ln9uO4biPrriDYY/2dHPGKkp2zJ5+XKXipce7f12Lj2uffY/ksKviXgib9H6jvqXugn6MVSrWPN4dKbvAe8TNetVWxeFiah+WqxhLjFgXNz1o1ljFJi4um6BLnFgUN5aETRurTVxcqGL+4Cx6IdaasIkvINzCxVipYuHgzIy7KGzmWFWdRr+PirnJLHq/+QZhx8eq8zQ6pnTjFBUTByfeIW5R2ISx6rzFISqK/BoV03KJ94hbE7a2Q2J1P05SMSmXuFfcKBir6ClYU/pxloopycSifSD2SDdn08quaY524zwVx5OJNXFjl3SL63UsHr6JKg4mE/eKG2Vj1f3mh+J+nKniUDKxJm5slG7UHjusHr65KnYvUcWifWBR3OvPMua9bKPysmb03jVQ+r6oWCDEwrg9+140PMqY1xmxuh/z0iuTImJR3DUTQdOt0YlvSCvbuS5v4+Si2JxNLNoJYlG6TRc9Ek+pir5dHjFpm6pHJ+JT4ub4H3nzVwyNek0/xtzp+Xo2EZ8U9/xG+2h9vD7yTu9jj36M6TXxfHwiYkXYVXEbwkbB2X1v0vnDF7HIxK98LnwA7pPj9jWQuCk79ePUsQAAAAAAAAAAAAAAAAAAAAAAAAAAAAAAAAAAAAAAAAAAAAAAAAAAAAAAAAAAAAAAAAAAAAAAtPEf56qqPCUEopQAAAAASUVORK5CYII=;container=0;" vertex="1" parent="1">
          <mxGeometry x="64.21000000000004" y="427.01" width="52.99" height="52.99" as="geometry" />
        </mxCell>
        <mxCell id="orFnFvL_lUQI9brEGb0L-7" value="" style="shape=image;verticalLabelPosition=bottom;labelBackgroundColor=default;verticalAlign=top;aspect=fixed;imageAspect=0;image=data:image/png,iVBORw0KGgoAAAANSUhEUgAAAfQAAAH0CAYAAADL1t+KAAAACXBIWXMAAC4jAAAuIwF4pT92AAAKT2lDQ1BQaG90b3Nob3AgSUNDIHByb2ZpbGUAAHjanVNnVFPpFj333vRCS4iAlEtvUhUIIFJCi4AUkSYqIQkQSoghodkVUcERRUUEG8igiAOOjoCMFVEsDIoK2AfkIaKOg6OIisr74Xuja9a89+bN/rXXPues852zzwfACAyWSDNRNYAMqUIeEeCDx8TG4eQuQIEKJHAAEAizZCFz/SMBAPh+PDwrIsAHvgABeNMLCADATZvAMByH/w/qQplcAYCEAcB0kThLCIAUAEB6jkKmAEBGAYCdmCZTAKAEAGDLY2LjAFAtAGAnf+bTAICd+Jl7AQBblCEVAaCRACATZYhEAGg7AKzPVopFAFgwABRmS8Q5ANgtADBJV2ZIALC3AMDOEAuyAAgMADBRiIUpAAR7AGDIIyN4AISZABRG8lc88SuuEOcqAAB4mbI8uSQ5RYFbCC1xB1dXLh4ozkkXKxQ2YQJhmkAuwnmZGTKBNA/g88wAAKCRFRHgg/P9eM4Ors7ONo62Dl8t6r8G/yJiYuP+5c+rcEAAAOF0ftH+LC+zGoA7BoBt/qIl7gRoXgugdfeLZrIPQLUAoOnaV/Nw+H48PEWhkLnZ2eXk5NhKxEJbYcpXff5nwl/AV/1s+X48/Pf14L7iJIEyXYFHBPjgwsz0TKUcz5IJhGLc5o9H/LcL//wd0yLESWK5WCoU41EScY5EmozzMqUiiUKSKcUl0v9k4t8s+wM+3zUAsGo+AXuRLahdYwP2SycQWHTA4vcAAPK7b8HUKAgDgGiD4c93/+8//UegJQCAZkmScQAAXkQkLlTKsz/HCAAARKCBKrBBG/TBGCzABhzBBdzBC/xgNoRCJMTCQhBCCmSAHHJgKayCQiiGzbAdKmAv1EAdNMBRaIaTcA4uwlW4Dj1wD/phCJ7BKLyBCQRByAgTYSHaiAFiilgjjggXmYX4IcFIBBKLJCDJiBRRIkuRNUgxUopUIFVIHfI9cgI5h1xGupE7yAAygvyGvEcxlIGyUT3UDLVDuag3GoRGogvQZHQxmo8WoJvQcrQaPYw2oefQq2gP2o8+Q8cwwOgYBzPEbDAuxsNCsTgsCZNjy7EirAyrxhqwVqwDu4n1Y8+xdwQSgUXACTYEd0IgYR5BSFhMWE7YSKggHCQ0EdoJNwkDhFHCJyKTqEu0JroR+cQYYjIxh1hILCPWEo8TLxB7iEPENyQSiUMyJ7mQAkmxpFTSEtJG0m5SI+ksqZs0SBojk8naZGuyBzmULCAryIXkneTD5DPkG+Qh8lsKnWJAcaT4U+IoUspqShnlEOU05QZlmDJBVaOaUt2ooVQRNY9aQq2htlKvUYeoEzR1mjnNgxZJS6WtopXTGmgXaPdpr+h0uhHdlR5Ol9BX0svpR+iX6AP0dwwNhhWDx4hnKBmbGAcYZxl3GK+YTKYZ04sZx1QwNzHrmOeZD5lvVVgqtip8FZHKCpVKlSaVGyovVKmqpqreqgtV81XLVI+pXlN9rkZVM1PjqQnUlqtVqp1Q61MbU2epO6iHqmeob1Q/pH5Z/YkGWcNMw09DpFGgsV/jvMYgC2MZs3gsIWsNq4Z1gTXEJrHN2Xx2KruY/R27iz2qqaE5QzNKM1ezUvOUZj8H45hx+Jx0TgnnKKeX836K3hTvKeIpG6Y0TLkxZVxrqpaXllirSKtRq0frvTau7aedpr1Fu1n7gQ5Bx0onXCdHZ4/OBZ3nU9lT3acKpxZNPTr1ri6qa6UbobtEd79up+6Ynr5egJ5Mb6feeb3n+hx9L/1U/W36p/VHDFgGswwkBtsMzhg8xTVxbzwdL8fb8VFDXcNAQ6VhlWGX4YSRudE8o9VGjUYPjGnGXOMk423GbcajJgYmISZLTepN7ppSTbmmKaY7TDtMx83MzaLN1pk1mz0x1zLnm+eb15vft2BaeFostqi2uGVJsuRaplnutrxuhVo5WaVYVVpds0atna0l1rutu6cRp7lOk06rntZnw7Dxtsm2qbcZsOXYBtuutm22fWFnYhdnt8Wuw+6TvZN9un2N/T0HDYfZDqsdWh1+c7RyFDpWOt6azpzuP33F9JbpL2dYzxDP2DPjthPLKcRpnVOb00dnF2e5c4PziIuJS4LLLpc+Lpsbxt3IveRKdPVxXeF60vWdm7Obwu2o26/uNu5p7ofcn8w0nymeWTNz0MPIQ+BR5dE/C5+VMGvfrH5PQ0+BZ7XnIy9jL5FXrdewt6V3qvdh7xc+9j5yn+M+4zw33jLeWV/MN8C3yLfLT8Nvnl+F30N/I/9k/3r/0QCngCUBZwOJgUGBWwL7+Hp8Ib+OPzrbZfay2e1BjKC5QRVBj4KtguXBrSFoyOyQrSH355jOkc5pDoVQfujW0Adh5mGLw34MJ4WHhVeGP45wiFga0TGXNXfR3ENz30T6RJZE3ptnMU85ry1KNSo+qi5qPNo3ujS6P8YuZlnM1VidWElsSxw5LiquNm5svt/87fOH4p3iC+N7F5gvyF1weaHOwvSFpxapLhIsOpZATIhOOJTwQRAqqBaMJfITdyWOCnnCHcJnIi/RNtGI2ENcKh5O8kgqTXqS7JG8NXkkxTOlLOW5hCepkLxMDUzdmzqeFpp2IG0yPTq9MYOSkZBxQqohTZO2Z+pn5mZ2y6xlhbL+xW6Lty8elQfJa7OQrAVZLQq2QqboVFoo1yoHsmdlV2a/zYnKOZarnivN7cyzytuQN5zvn//tEsIS4ZK2pYZLVy0dWOa9rGo5sjxxedsK4xUFK4ZWBqw8uIq2Km3VT6vtV5eufr0mek1rgV7ByoLBtQFr6wtVCuWFfevc1+1dT1gvWd+1YfqGnRs+FYmKrhTbF5cVf9go3HjlG4dvyr+Z3JS0qavEuWTPZtJm6ebeLZ5bDpaql+aXDm4N2dq0Dd9WtO319kXbL5fNKNu7g7ZDuaO/PLi8ZafJzs07P1SkVPRU+lQ27tLdtWHX+G7R7ht7vPY07NXbW7z3/T7JvttVAVVN1WbVZftJ+7P3P66Jqun4lvttXa1ObXHtxwPSA/0HIw6217nU1R3SPVRSj9Yr60cOxx++/p3vdy0NNg1VjZzG4iNwRHnk6fcJ3/ceDTradox7rOEH0x92HWcdL2pCmvKaRptTmvtbYlu6T8w+0dbq3nr8R9sfD5w0PFl5SvNUyWna6YLTk2fyz4ydlZ19fi753GDborZ752PO32oPb++6EHTh0kX/i+c7vDvOXPK4dPKy2+UTV7hXmq86X23qdOo8/pPTT8e7nLuarrlca7nuer21e2b36RueN87d9L158Rb/1tWeOT3dvfN6b/fF9/XfFt1+cif9zsu72Xcn7q28T7xf9EDtQdlD3YfVP1v+3Njv3H9qwHeg89HcR/cGhYPP/pH1jw9DBY+Zj8uGDYbrnjg+OTniP3L96fynQ89kzyaeF/6i/suuFxYvfvjV69fO0ZjRoZfyl5O/bXyl/erA6xmv28bCxh6+yXgzMV70VvvtwXfcdx3vo98PT+R8IH8o/2j5sfVT0Kf7kxmTk/8EA5jz/GMzLdsAAAAgY0hSTQAAeiUAAICDAAD5/wAAgOkAAHUwAADqYAAAOpgAABdvkl/FRgAAo61JREFUeNrsnXd8HcXVv5/ZcvtVlyzJktxtsGmm9xZ6SyEklBCSUNJ7e5O8yZu8ab83BQJJSC8khBACCRBCEiD00LsLuNuyLFu93H63zO+PFd2SrmTZlsR5+BjzYWf27s7uznfOzJlzlNYaQRAEQRCmNoY0gSAIgiCIoAuCIAiCIIIuCIIgCIIIuiAIgiAIIuiCIAiCIIIuCIIgCIIIuiAIgiAIIuiCIAiCIIigC4IgCIIIuiAIgiAIIuiCIAiCIIigC4IgCIIggi4IgiAIIuiCIAiCIIigC4IgCIIggi4IgiAIggi6IAiCIIigC4IgCIIggi4IgiAIggi6IAiCIAgi6IIgCIIggi4IgiAIggi6IAiCIAgi6IIgCIIgiKALgiAIggi6IAiCIAgi6IIgCIIgiKALgiAIgiCCLgiCIAgi6IIgCIIgiKALgiAIgiCCLgiCIAiCCLogCIIgiKALgiAIgiCCLgiCIAiCCLogCIIgCCLogiAIgiCCLgiCIAiCCLogCIIgCCLogiAIgiCIoAuCIAiCCLogCIIgCCLogiAIgiCIoAuCIAiCIIIuCIIgCIIIuiAIgiCIoAuCIAiCIIIuCIIgCIIIuiAIgiAIIuiCIAiCIIIuCIIgCIIIuiAIgiAIIuiCIAiCIIigC4IgCIIIuiAIgiAIIuiCIAiCIIigC4IgCIIggi4IgiAIIuiCIAiCIIigC4IgCIIggi4IgiAIggi6IAiCIIigC4IgCIIggi4IgiAIggi6IAiCIAgi6IIgCIIggi4IgiAIggi6IAiCIAgi6IIgCIIgiKALgiAIggi6IAiCIAgi6IIgCIIgiKALgiAIgiCCLgiCIAgi6IIgCIIgTDUsaQJholBKTaXLDQHzgcOBBmADsGro70GgOFQuCbwTeAuwYOj/LQfuBm4HNgJanv6EUwUcBZwGHADUAJuA+4HrgOdfYZQkgZnAQmCPoWf3FPAc0DuZb1JreXUEEXRB2FEOBk4H9h8Si/YhcX4WeAF4EsgBxwPnAMcB9lDdmUOCkwRuGxL4V5IAwkCPNPOIJIcGVq9tp2rgDODUIVFvHPr/s4ba3QO+AbjAXsAiYCkwD5gDOMDiIfH/nTSz8IYxqmSEKLzBLHQD+D5w8ZCgbI8UsBroGLIQR2Ib8FfgaqAZuASYOyT+nUOics2Q5S8Ebf62IbFeNNRO24BbhgZHbwcuApaMcp7/AFlgH2DGCOXuAy4F1oiFLoigC8LUE3QLOBQ4BagfEo0c0AocDZy8E36zc8gyj23nWDtwI/AVYABQQ8IWHrqu9DR7FSJDbeEPDY4cwATeDXxxyJJWw7RT4064nheAm4fau2rounqBR4F/ESyxiKALIuiCMMkEfQ5wFXDiUAc+mVgO/JZgmvg4IAr0AQ8BfwTunOKvwCzgvQTT5c0EU+MrgOsJljfeOsmu1yeYifkq8CcRdEEEXRB2vaBXA+VAnGANliErsAL4FYGz21TkCuB/gf4peO0fAP6bwL9gKvIJ4K6h98kYGoxkCWZUOtlJjo/S/woi6MIbUdBnEKyvHkngbV4zJOovWuGFIUHfaZimgef5O7sZHx2ycp+fIo/dAn44JOg7r+0NA1/77OTuqodgucAkcLgbBLqBzQTOkn8nmE0RQRdE0AUR9HHybuALBFuSJt7cn1FOojHClmXduK43bLlQyGavN80ik8uz6t62ndmUWwi2yv1nkj/yCuBagun0nULdvAr2OLqZlbe30t0xMGLZxj2rMDyTLau70TvHoB4E/jBkzRdF0IXJhgSWESY7HyVYd95jp/2Cr9nzhCbe+5cTOfFLS1l0TBPRZOh1xZyiS2owx2nfPpDzf3c0jQurh7HkTeqaKzHVuD+vmcANBFu2wgSOdpFJ8CzsV1xLHcGWsHGLeVVDknhy+7dVVhnjhM/vx/v+diIqqhjoz7y+nS2D5r1qOOzSPbjoxjdx7If3wdi5s0RlwAeBXw9Z8YIgFrogFvp2aCJY+64i8PreQLCt6TqG3142KqZhUNEUR5sw0JoZdso8FLc55iNLeNP/7kv3phRdzw7Q9mg3a+/YyubnuvF5ud7ik1o4/+Zj6N+U5rlrWvnPT1eS6c+9qh2WHDuLecfWc89VyxjsyWy3rUr49jqBtQQ+A4MEW+BuA+7dxY+2kWC543QCp8PUkKgvHt8zMTnqQ0swPMWDv1pJsei8wsIw2P8d8zjkIwtpOaSWB36wkr9/4TH0Kx5bZUOSPU+eyexjZlC7dzkz961i9d/b+fMlDzLQnR3GclEk6qNEEiH62zIU886OtsmXCRzp6oBaAh+ONcA6gvV3sdAFEXThDSfoTcBlwHsIPKNfpEiwPrtDs0imMtjz2BaO+sJiXM9n/T+30bGmn54Ng/RtzJDPFV5V/uQv7s8+l80m11sgXh3BS/u03tPFE9esYf3jHS+VO/83x9J8cjXagcHVOe74r6dY/+S2lwXEUnzwntNJVEa47h33sXll16sFxjAor43T15Eaz219Bfj6LnqsZwKXM0ZHw7LqOMVCkXz61cIZS4Z5xy+OZO5pDfzo0NvoXNn/0rGKGXFO/uoBLHxbA/m8gzfoc8N5/6FtedB2VU1JDjhvAYve3Ei8KUIx56CB/hUZ/vyeB8mk8y+/ixhUtcSpmp1kxh5VzD66lro9y3n2lxt56JrnyWULE9E2RV52yoTAie5m4OcE+99F0IVdikSKE3Yn+xFsaVq0PaN5In7A0z7L79lIEZfzfn80M4+sZHBzDuUp+tdlWPWvLbQ91U37070Uiw5P/3kdSy+eg5P22NbeT6TKZs5bZjD/zAaW/76Vu7/3HOGYTeW8OIOtObJdeWr2LOP8W47hvq8u54FfrgDAdzWbn+jmgMvmcuFtx3HLZY+y4q5NL12X7/vs8+bZlDVEue1rT6AZk7Pd/xI4Br4H2Jleeh8AfjLWSge/cyF7ntTCnz/14JDhOmRZNyZ4+8+OYP4Z9bQ+0kWu4+Vl6DkH1/PmKw8mPj/Mlqd7MEyDipkJ6hZX0La8m0MvXMgRn15MpN5mcFuGjpV9GIaidlE5q+/a8pKYN+1VQ8Piaua9qZ66/ZKEK0MoW1HWGOWeLy3nvl8sG9FPYoy89h2NAecP/bkM+IV84oJY6MIbwUJvJoiHPuYtZmXVMRaeNBPP98HQaAuMosLJuuQHXbJdebpXDVLwXm0d7nPGbE658gAGOzOYtkG0IoxpGfhF6Hqmn2U3bSJeH2Hfi2ZTGHTwXY3vajzXJ14bpqIlwbZH+/Adn/jsCNnuAqZt4OY9Ek1R6uZV8OQP13LLFx+hoj7OBTceRy6fJ9kQpawqzi2XPsZzt61/6XrmHV/Ph/59Og9d8QJ/+dTDYxV1CKZ8380EOWi9ho8BV4610l6nz+bSW0/i719/nDu++vRL/7+mpYzzrzuGskVRti7ro2ZOOfd+YRmPXr+Kfd4ym9MvPwgHl+7nBzEsA2UqrLCBl/FJb84z6001OI5H38YMeGCGDFAQrQix+T/dbLynk7lH1TPv1HqsuIHnagpZh2x3gfiMMJv+3sVfP/Pwq2dJMKhqTpJsjBKtDBFO2hAG7WsoaMLlYdof7WHziq7xtuFpwD/EQhfEQhemO19hnPvFtYbFp7aw1wUt9G4dpJjyME0D3/fBAzft07s2RcfzA2x9tpf2p3voaUuRSxXRPigU2c4i2a4iVsQgnLSp2jvB8fvtQzHrMrgth2koMIKpc8MyyfcW2Zbqo2x+FO1rUttymFYgKlbEJN2Wx811s/g9zWCBZRkYcY3KKAY2ZNEaTrvyALyCy4o7WwEo9Lps29DPAR+di+f63Py5Rxjjdud3Don5uyf42Vw2HjHf7y3zOOXypQwWsqQ3vTz9XV4X5+2/OpKyRTHan+zBdyHTn2evC2ZRNjPG4guayeYLDG7MYtlm4G7mg5PxiFTYNM2ppn9LlsKgixkyUC+6o2nIdBaYeVA1809uROOTzxYpdrs4WRf8wE/BChl4uaBdw1GbWQfV0bh/FfWLK6lakCRcZWPYCmUG5ZUFtfPK6V2R5oZ37dBGgx8AjxNsfRMEsdCFaWmhzwAeJnCwGhd21OKkLy1lrwtbGNicRfsaZarAy9lQWFFFKGaDrxhYn2HrM31UtMRJzI7g5r2XdVOD72uUAXbURPvg5n2266CuQaOHvU/f1cH0bkMU3/FJbcthmMGJfMenfE4clVdc/84HaF/Vw+nfOIhFb5tJtj9P/eJKnvjhOm778mPjaY4fEewGmAjOAP421kpLTprFmT86iHQqh+dp9IDm92ffQz5V5PzfHUvLyTVsebIX01AoS+EVfCKVNrGqMJnuAsWUE7SV2v4ALni/tn/MsBRmKJgp8R2NMtTLz0+DYSu8vE/HsgHK62PUL63EjCiKBRcn46F9PfQnsJjLm2P0rchwy0cfpXN9/46256nAP8VCF0TQhekq6KcQeGu/buuPZRu4TulTz8d/ZF8O+Pg8eltTKF+hGdIE9dJFEYqbxGrD5PqKZLsKL1nW2xNsXll3XNMHw9f3fU35zBidTw7S/fwge7yzkfygQyHlYMdNZi6t4b4vLOeeq597VZvalkXRGdUr+6NDwr4jLBgaaFUPV8DAwIwZgQU8RMtedZx301HkHYdUWw7QJBqitN/fRzHjsOAtjfS1plGo1w+UVGCNs6O7zYZrdwW+ozGjBmUNUZysR7a38LLngX5FVQ3x+gi9z6b5w4X3vmpnw0gYphEMCLbfl/4f8F8i6IIIujBdBf1twE3bOzBn/3qWvKOFjif6KfS6DBYyaK3RaMKmTXkigVEFkUobZZqU10dpOroax/HQjh7WwtOeH1huptp92cs1eI5HrC5KvDJE78Z0IDYhhZv3sWIGDYuruPXSx3jmlpfX2k/74kF0ru3jiRvWjnT2FEHimWfGeXXlwD0EaUi3S2VzktO/dhC3f+NxetcH3vmVDQkuueNkdNyn54UUZtgYuk+f8llxTEPRtyn90szJ7nkxg0GD72mUIngHhpv5iZv0r8qy7bl+UJDtzeN1QSadI1vMo1TwPkWtMLGyMPWHVtD7fJrH/rgK39/ui3UtcKEIurArkDV0YXcwSOD+bL/2QHfrIDMWVXDk5xfTubwfZQU96ItT3aZlBo5wBIFFsn0FUltzw1vdgZGOsoxXW+G7SVjMkEm+r0CuN4+hDAxboX2wwgZO2qdnc4pTrziA1LYc6x7dionB7BPqOPqri0l3F3jh7s3DnT1JkMZ1f4KEL2Pl8pHEPFER5YI/HkPz4TX8+9vBmCFeHuGdvzqKUL3Jlsf6sULmS+1r2gaDbVkUwRY9dmfeniET3LBGv4hCv0P5gijNx9aAP1TRB+3qIIbB0CmUD5Xzk7gDPr960x3DiTkE+9IFYZcgkeKE3cGjw3V0qe4sN172IO2P9mCUQ6Y7RyHjUsx45FJF+rvS9G/J0N+aoXvt4Eue5qipc/NKqZdFTr88i2BFDbLbCji+y2nfP4BwxKZx72qitSEG+jKc9aNDmH/oiNlFZwPfHsclvQN433AHo4kQZ//0CMrmRuhaP8Cco+sxMDjpK0upO7Sc9id6tzugMgyFMtSUejaGbeDmfHrWDtK7MU3/5jT9HWnSAzmKWZdiJlgicXDJ9RW44V0PsHn5iF7wd8vnLuyyvkWmfISJFKox8N8EubGj2zu49wmzOeuag+lc24+b0RjWy2buq35GTbNG1MEwO9kYYcPt3ZghRcMRFWQ6C9TskcTp8vndGXfTO3JAmrcSBDgphWqCmPGLtj+poHjrFYezx/mNbH2yj1C5TW5Lgd6VKeaf3UCmJ4+X9zGsaWgb6FdM6Lyin/RdTe0e5az68xZu+fwjI53hVuBdBMsh2/8J6X8FEXRhGgg6wNMEwWVeh6kMLrj2WBqOraLj2b5gOvcNgtYa7WnKGmP4XrBFzjAUvtY0LK1i6wN9XPP2u/CHXz/YAOwNZEr4uf8DPjfcweM/sg+Hf3FPtr3QB16wDh1OWkQqQ6S25tCuHnFNejqKvJUwiYRtrn3LfXS3jpgwZjGjZM2T/leYSGTKXdhdvJ9gini7eNrnsZ+uRhUV0erQq2J5vxEGRoZtMLg1R6YrP7T3OtiSt+3pXlpOrOH4T+030inmAF8q4af2AT4z3MG5B9Zz2Of3oG9L6iWHQ8NWFLMeA21Z0LyxxBxwix7ljXHW3No+mphDEGshJJ+6IIIuTGeWAj9llPzlqx/cwrYneolXRnY8HeZUM4Q0GObQGvSL+7CtwIFu67JeDvvMIhYcNuJ6+kcZPUPd/w7XByQropz2/YMoeC7ZruLLwq0DJ0PDmIJCvqOvkK8JVdgU+1yeuLYkX7dzgUvkcxdE0IXpzEWlFPK1Zs0dW7HDJtbQdqixdN566A03QgorbgYOy66eeuL+insywwbFfpdMJs8xX9ybcHjYjSoJgljsw3EC8ObhDh522R5U7xOnb11qyq+Pay/YI25GDMyIgTL1uATeczTljXG6nhugc21/qdU+KFa6IIIuTFdMhkm7ub0l+BV/28Rga45wwh5b/2uCiYIeRaHDxXeDyGTJmVHMiIFX9NHeFFR2HYSaHdiYpXZpGQdcsHCk0ucD84Y59oXhKtUvqmLpJfPo2ZTGL2rUFOwltE/wjNHEZ0RIzIhg2Ip8TxGnXWN45tgymmuwYgaGVqy4qXW7M0bDuJDMB2bJZy+IoAvTkQRQtr0DZdUJ5h/WSHljnHh5hHDCZrAzy9ZH+7AiBmPyufNBG2BVGGQ2FHj2qk1s+HsXma154jOi1C0pJ1Jl4xY9PGfqLdArDenuPAe+fz5lVbHhitUC52zn/x8BHDxcpSM+tCcqDuktuWBL4BSzxt2ChxlVVC1IUr2gjEK6SNsDvSy7ejMd9w9il5kYkbFZ6L6nidWGSW/O0fpMF2bYIJYME6uMMPegepoX1Q2n6DajL30IwgT1C+JlKUzUy1Sa4oYIYlsf99oDsbIIF157HFWLE2xb1oc2NU7exY7Y2AljbI5xGrQCFQk85gvdLq13dbLyljaq5ydZcn4LTYdWE66wSXdnyXQU0C9m8ZpCw/G6heU8edU6/vWdp4YrtQ1YAvS+4v/dMIzQM2v/Os6/6Wi6Nw3gF6aO05vv+mhfE6kKU1YfQwHdqwZ5/vrNbLi3k4Z9qlj01pnEZ4dRYfCyPsof2x55wzTwih75QQdlgOEbVM9LUFYZ5zdn3kXr9vejO8AhBDs6Xv+aSv8riKALU1jQAX4JXLy9A017VXPJXSfjhByy7QWsmMXgtizOoDuutVztaoyIQXxGCN+F9IYcy69rZfktrcQbwyw+uYW9zptFvDGM47ikO/L4xSC4+Ktiwk9GEfN8ko0xLM/kN6ffSe+W9HBFzyVItQowlyBee93rxweKt//kSGadXEvXigGsmDl5/Q1ejMGug5mYWG2IWFmYbLfDpns7efr6dWx9upfZS2dw8EcXUL1fEjNqkO8pUhz0Sooa9+qXm2D5wYaKpniwEyGuaJhZxc0feZT7frxsuJobhgZUORF0QQRdmI6CPmJGryUntHDmzw9hoDtNpr2AHbeCddzxvqpDscWtmEm8LoIdMehfn+XZazbwzLUbsMstZh1Uyz7nzqbhgErMpEmur4Cb8XALXnBvk9Gr2wdlw4zFldz7leU8+LMVw5V8ADg2qMFnge9sr1DzPrWc+6ejGegM1s4n42DmxYxoZlhhRyyiVWEMrehbk2H5TZtYfusm8gNFmg+o4cDLFtB0eA2GDdnOAvmBIKPbuH0ChtrDy/uYUYOGvSp58ofruf3rj49U69sEAZQQQRdE0IXpKOgAdwAnDnfwoHMXctpVB9DflWZgQwYrbE1IRi7f15i2QbQ6RKQ8xMC6LE/+Yi3L/rqRQsGhYVEVe799DotObiQ+K0wx75LtLVDodwKrzJpcKucVfSrnJ8ltLnLNm+8imy5sr1gRaAa6gLuA47dX6JQvH8De751F79r0pHOE034wrW7FDGLVYcLJEO6gx8Z7O3n+1jaev6sVA4O5R9ZzyIcX0XhQJW7RI9tTwMl5qInYM6/AK/hYcZOGvSpZfs1mbv7UwyNlZcsBewKbRNAFEXRhOgv6kcCfgfrhCix96zze/NNDSKWz9DyfwgqbE2M16qEMbFoTqw2RrInStyrDE79cy9N/WoeHT0Vdgj1Om8nis2Yx48ByXD+Yjs92FTGtIKnKZJiO1n6wpFDbUsZNFz3Mqvvahiv6ToKp9pUEjomvorw2zoV/OQ5imnyvMzms86EsaW7Bw06aJBtjRJIhMhvyrLiplVV3bmHzs8G69az96zjyE0toOaaaQt5hcEsO3KFzTNC9ODmPcJXNzH2qefqqddz2pSdwcYctDnwCuHrE5yf9ryCCLkwDQQe4YqjTG5ZFRzZz1s8PxkhC18rBoTScEycYvqPxtU/FrDjJ2hhb7u/h4Z+8wPN3BVnNwnaIBW9qYN/z5tB0RDUqrOhvy5DvKWKGTJTJbhd2t+BRv3clq29s56+ffng4kfgJ8BDw++0d3Petczj1igPoa0vj5nzUJBB0N+9hxgwqZyWwbYvu5SleuLWNlbe20tM+CEDDgioOeu9ClpzXgme49KxL4WV9rMgEhgoeWrJJzIxQ3VLOg19fwV2XPzNarWeAwxlm7VwEXRBBF6aToIcIMlEdMVrB2lnlvPlHh5KcG2ZgcxbDnPjsam7ew4qbVM5NELZtVt3YxmO/XsOmZzqHtF8x79AG9rtgDs1H1RCqtBncmgmm4o2hLXW7SQR9VxOpDWEVDf7w9nvp2bLdXCBdQJZh9kS//YdHMeuUGgY2pdmd5rnWwb/MsEGyMYapDDqf7eeZ325g9T1bXlpSSJRFOfTSPVh60RzsGRZ9G9NkOwvY4aH95RPYrfle4HQXjYS4+yvLePLGNaVU6wZOBp4SQRdE0IXpLugHAvcC8dceMCwD3331uqSJyduuPozmE2ro35AORH2ixcTT+L4mUmlT1hjDG/RZ9sdNPP6bNfS2p14S9sZFVex/0TxmHVdHvD5MprdAfqCI7+ggJOpu0EPP9amdX84/PvUky27dOKa61S1lvPuvx+PZHumteYzdsFXN94J893bcID4jAnnFtqf6ePa6Day5r51CzgneDcPggHPmc9BlC6hckiDVkSXTWUC7PsbO2DOvIVxp4w36/PXiR+jY8OpU86ZpBHnSt88ngR+IoAu7CkuaQNhNVA13oGFeFXOOmMHKf7cGyUnCBtrX9K7PMIu6wLlJT7whqUyFaSoK/S7d6UEi5SGWvn8uC0+bySM/WMWzt66nWHDZsqqHLV/soW5OJQe+dz7zT66nbmE56d48mY48flHv+v3sPmDCzKXVYxf0uUnsCpN8t7Nrp9qHQvFqrYlUhkjOiEJBs/Hubp67bj1rHmh/lVjOP6yRQz+8iKYjqsmlC3Ss6MN3g0GU2lkBcFQQU3+gI08h7RCrCKN9jRk2WXh0I06fx4p7NuFvX5ir5TMXxEIX3ggW+h4ETloVrz2QqIhw1v87lMXvbmbVP9swtEGsJoQ2wMm5u2wLWbBFyg9Ch9ZE2XJ/L/d+5zlan3l1AJG6ORUsPX8ue57dTLw+xEBHjvTWHIax65zntK+JzwjT/3yO6999H8WiW3Ld4z+xHwd+bB69G1LBwGBnN68CPHAKLpGqEBUtCQxX0XpfJ0/+Zj0v3Lf51SO/xiRHfGgxS85voeg6DG7OBmlbd9VsiB9kmbNCFsUBh9ygQ9NB1fgDmj+++z7alncPV/MS4FdioQsi6MJ0F3SARxkmBKmpDN57y4ksOrOBTc924RU0TsZFD03N7kor0iv4KFtRNS+BrSye+90mHrxqBQM9r043XjunnIPfs5C9z58FEejflKYw4GKGd421rmxFNBLmlsseZdOzHSXVMQ2D8689hoZDKuleM4Bh7fy8814xaM/KOXFCls3mB3p49OcvsOaB9leVMzA44J3zOPJzexFrtulePUhxwMEMm7v2xR6aDbLjwfp81fwkRkbxy5PuZOvzvcPVyhD4hzwrgi6IoAtvBEE/G7hxuIMh2+LCPx1P7cFlbHuuD8syd0/2gSGL0nU8YjPCVM1KkFqT5z8/eIEnblj9uuINe1Rx2Af2YN6p9XjKZ2BzFnaBRakMRXljnH9+/kmW37KppDoVtXHOv+FYQvUWg5uyO2+f/YtJ7rQmVh8hURGh86lBHrxyBWvvacd7zV7uWUvrOPpTezH7pDpSPVkGNmZQKIyxZt2bQJysR2JmhHgkzPXnPUDrc10jFb8OuDCw70XQBRF0YfoLOgQhSd8x3MFEIsa5fziS2oPK6VjeH2wrNnffHnDP8TFsRVlzjGgszPo7Orj3W8vYtq73NWMAxZwDZnDYx/ak6ehqCvki6a3B+rph7hxhVwrKm+Lc+7/LeOIPa0uqM2NhBef+8Wh8wyfTWdgpDnG+q1EWRCpCJOuipNbneOyna1l26wby2eKrysbiYQ7/wJ4svWQuRlzR35qhMOhg2UODud3w3LUG3/GonJcgHApz04X/YfWDW0aq0koQvGfd6OeW/lcQQRemj6A3EeyPbh7WipyR4K0/PoyZR1fS/kwveAojtPtEXfvBmrUVM6hsTpDrKPLEL9fy2G9W43req8papsk+b57Nwe9fRM2+SQa7smS25tFD67ITeg8KypvjPPm9ddz78+dKqtKwZyXvuPYoXO2R7ylOaDKWl3YNVFhUtCTIbXVYdv0mnvrdOvo6X7+1bt6BDRz/P/tQu18ZA51Z8j1F0Ls3QYz2wfN8ahYlCWFz86WPsPLfraNVuwj4XWmDBel/hYlD0qcKu5s24O1Df2+X/o40N13yHzb9q5vmQ2pRoWBde7cNXAwwLIVf1HStGsAP+xz39b0577fH0LDg1c77rufx1F/W8Ydz7+XBb67E8kxm7F2BFTdxsu6ED0oUinyxOOb7mdAZAxWsk2NCzZ5lVDeXs/rGrfzpggf59/eeeZ2Yx+JhTvn8AZxz/REkFkbZurKffHcRZajdm+1NBwlw6paUQ1bx5wsfHE3M08DnShVzQRALXZhuFvqLfB74fyMVsJTJW354OHu/u5ktz/Tg5vzdsmd6e+KlLJixVwX+gOa+b63g0d+9sF2tblhQxaEfWMSS81rIpPL0rUtjmgbK2nFrXRlQ3pjgji89xXM3bSypTvXMJOf+6RisCoNUW25C1tCdnEu8PkLV7DI6H+vjgctX8vy/N2+37LxDGjjha/tRd0AZnasHKPQ62DGT3d0taa3xHJ/6fSvIbChy06X/oX14B7gXeRA4aqy/Iwgi6MJ0E/SfAZeVUvDYD+3D0svmkE0V8PL+7o87roI0ra7jU9YcpXJmktU3tXPf5cvYumr7IrDXKbM5+vNLqFgUo3djCmfQC6zRHbgXZSliiTC3fuAxNjyxraQ6lmlywZ+OpW5pBT2rB3YoOIt2NVhQNTeJn9Y8+fO1PPqrVeRyr58xsAyD4z+9Hwd/dAGOcul6YQDc3buU8krLHAXxugib7+jmjm88Rbo/X0rNduBQYLMIurA7kMAywmQgCuy9vQPhiM2i45tId+XYuqyXZG2Uvi1pihkXw1R4kyGJyNA6r22apLfkKQw6zDmzjoYDj+b+/1vBkze8PlTo8n9uZOMjHRz10SUsOb8ZXaMZ2JwNos2Nw0rWriZaF2ZwbZb25T0l13M9jy2P9dBwcGUQnGUcAXu0r9FoEg1R4lVRWu/p4u5vPcvWF7Y/mGnZu47j/ntvmo+vpW9ziuy2PIZloCZJwhsAZYKhFL2bUsTKI/hFiFaHmHd4A+se2krP5sHtVWsg8AXZLJ+0IBa68Ea10E3g7wSxr193zqMuXsxxX9yHro4B/EGfcH2IdE+QTWsy5inXngYDEg1REpURVv5hM3d+6xnS/dvP07HwqJkc8Yk9aTqimp4tKbLbCpi2OaYUpm7epXFpNY9dtZa7/u/pMV3v3EPqOffPR9G/LUu+tzimAcWL6USr5iVxe1we/eFqHv7tKrzXOAe+yOHv2ZNDP7YIs8Kgd2MavRO9/nd0kOb7mlhNGHJQyDk07VPDulu3cdOn/0NmcLsWuwcsBZaJhS6IoAtvVEEHuBL42HAH93/HPN78s0NJZ3N0PtWPFTJ3r8NUKYLgasyIQc2iJP0rc9z2qcfZ/Fzndovbls2bPrcPB35gHnnPoWfVIIYqYW1dgV/wCVXZJMuj/P6se9m2pndMlxqyLd71x+OpPTBJ1wuDpQm6D07BI9EQoXp2gnW3dXDfd5fTtmL7UdPi5RFO/ur+LDm/hb62FNmuAoY1+X1yvbxPvCVM0941PPHDtdz8yUdet5PhFWwYmmnKiKALIujCG1nQDwP+TTD9vn1L8sAG3n7NERiVmo5nB4IY3pNZ1IfW1j3Xp2phkogV4q7PPctjf141bJUFR8zk1O8eQHx2iM7nB9BFMMJq2PAk2gfP9Zh95Awe+uYL3PF/T43rUucdXM+5fzmavrYUhQEvSAs7wgyE5/lULUgSi4S5/5vLefCnz+MPc5Et+9ZyxhUHU71fgvZnevELQ7HuJ3nX4+RcylpiVDYkuP8rK7n3p6NuBfws8L0xjfuk/xVE0IVpKOgAPwI+PFKBupZy3nL1YdQdHHhFexl/18X03gHcvEeyJUpVY5LnfrWR27/yBIWCs92y5TUxTv7aAcx/awN9m1Lk+xxM+/UpY7UG3/WoX1pF3zNpfv3mOykW3HFf48lfPIADPz6PjuX9aI/tTvlrD1QIahaWM7g6yz8/9xTrH9867DkPfOcCTvzGvrghP8hnDxiTXMy1q9EGVM9PoLOKf378KZb/e+No1Z4l8HBPiaALIuiCCHpgnd8AnDFSoUgsxJu+sC97XzCLfN4h1Z5Fe+z+LWyjiXrBJ1JlU7uwnPb7ern5Y4/Q07Zd5ypMw+DQ9+zJEf+1By4e/RszKM1LU/C+p1Em1O5RTnGby3Vvv5dtG/t36PoMw+Ccq49gwdsa6Xi+DzfjBwMJIxBy7ftEasJU1MdZdeMW/vnVJ8kM4/1tKpMTvrQvB35wAem+LAOtWUzL2K1R/kYVVx9QQea3iqYEW+7v4R9ffJKOtX2jVW0DzgSeGfNvSv8riKAL01TQAZLA9cBpoxXc5/Q5HPHJPanZJ0n3+kHyvdu3ZCcTvqtRNtTMKyO7pcjtH3+CdU8Mb+HOP6SRM648iNisEJ2rBvCywbR2uNyiemE5Aysy3PLRR9m8rGtCri8UsTnru4ew5IJmejenSbfnXgzCTuX8BCHD5qHLX+CBq1egh1HmZFmcM688iLmn1dGzIUWh3915MeIn5MUF7WhUSFG9IAk5xRM/XcsDP1pBseiMVrsLOAe4b1yDCOl/BRF0YRoLOkAM+CNw1qjqXxbl4A8uYsHpDWCBm/Em/fQ7GlzXp2JWjJBpc9fnnuGpW4YP+13bUs4Z3zmYphOq6Xyhj1hVmGRtnJXXb+aebz9HT/vgBOub4riP7svhn12EZ3r0bEhRNSeJ0+Hxj08/wcp7ht+VVTergrf/+ggqlsTofHHq3lST/901wY5YtP+nj6ev28Cmp0rax99OEOXw4XG/CtL/CiLowjQXdIasnhu2K+JVMdK9uVdZiKd/7WD2vKCJgc1ptDcV2gqcvEdyZjRwuvraSu69eninq0gkxIn/vR+HfWYR7Y/38eD3VvLMLet36jXOWlrHUZ9awh7nNLH14T7+/N4H6RxhWn/OgfWc/evDUeWazmUDWLY5JcRcu5pYQ5hCu8vv33wPuWLhpWNlNTHyg8Xh8sv/rZRBpwi6IIIuvNEF/VPA97crHPs0cNBl8yk6LumOHPX7VBKfGcZz/UnvOf0aUxg35xNvCDFjjyoe+c5q/vG1x4edygbY8/hm2lf0MtCR2SWXaBomC46dyZZnukn1Zoctt+SUWZz5w4NwlEv384PYYSuILjCFnoeyFF7aZ+szfWg0tc3lrPpLG0/fvg7H2e4o8QHgaBF0QQRdEEEfmWFzpdthi8UnNXPS/9ufmsUJultT9G/M4Ga8YDvUFMMteEQqbWbsWcmzP9vA377wON5UmGYYYunb5nPq95eSKxToX5/BtM3Jv+zxmoGV72iUAWVNMaoXlWG4Bvd8ZRkP/3wl6b5hw77+Hni3CLoggi6IoI/MLOARoH64AsmqKCd+eSmL3jITx3UZaMvi5rxJ7xi3PbyijxU3mLFnJct+tYm/ffExfO1P+uve981zOfPqg0n3v+zJPhXbXlmK+IwIyZooXU8Pcs//PcfaB9pLGXT+RQRdEEEXRNBH53+Ar44qKqfP4chP70nV3mWku3L0b86Ax5Sz1rWnUbaifnElz/5iI3/78qOT+noXnzCLt/72UPq70mS3FqZWew9Z5b7nE6sNU9GcoNjt8MQv1vHoL1aRyxVGO8My4ADA2aFnLv2vIIIuvEEEPUGwhe300QpGo2EOvXgP9r1oNtHGEKmuHKktOUzTmNxbprYj6mY0sNQf+d5q7r382eHWb3cri45t4q2/PJxUKkOmrYAVnSJirgA/iAkQrrKobI6jfIPVN7Xz8E+ep720sLlbgWOANTv8vKX/FUTQhTeIoEOwL/1nwHmlFK5qTHLA+fPZ45wmYjPCZAfyZDsKwbVNBV1XQfzwRHOEGbMq+M1J/2bdo1sn1SWGQhbvu/0kkosidDzVTzhuTQ3fNw2+5xMqsyhriOHnNBvv7eKJX65h41MdpZ5lHfAWYPmEXJL0v8IEIulThclOCriQIPHF5wl8p4eltz3Fnd97mieuW8PSd8yj+ZgaIpUWvh+k+ZwKomNYCgPFtmf76dmUmnSX6Loe7U/3snB2I6al0Iop4c2uDIUVsnAGfF54sJ1nfr+etmXdw8ag3w53AJcg6VGFSYohTSBMATzgS8A7gdZSKvS1p7n7B89y86WPUOzxCVdaQVrTqSDotkG0KsKq27bQvy096S7R9zUrb2nFNkyMiDEl9v1rX2MnTcqqYzx6xWpu/dwjtC7rfEnMR5ldygBfJwhJLGIuiIUuCBPATcB/gD+xnf2/SikqZySpnBdHK0hURJh/cj2hapNivzspc6dvR8+xYyZeyuOFv09e7Wh9spNtT/dTvTRO14oUdsyc1Fa6Ugon7ZJxc+x38RzidWE6NwxghhT5rS4da/tw3O0Gj+kE3gvcLp+fIIIuCBPLNuDq7Qm61hqtNUtOms2BH5xLrDbMwECGLU/24md9zLCxs9b5J0h1QLs+ZTOjPH/dFjYPk1t8MlDMuTz2s9Wcfd1h2GU5/Jw/6Z0PnZxHPuVQf0gF+75jNr7js+ZvW7n7m8twXW+kQaSIuTAlEKc4YUKtoF3ECcBtQHh7B+2wRfOBNcw/tpFZh9dSuTCBsjXp7gL5fgd0EHpV6yE/uUmiQ77jE60NEbZC/O6se+huHZj0z/uCXx/DrNNraX+yb1LtQX/p2RKkgTWjJvGaMKGIRWpjnrYne1j9ry1sebpntKh7nwR+sPOuU/pfQQRdeGMLegh4HNhntIKJ6ijzjmig+fAa6veqoHJeAkJQzDo4OR8v7+Hmvd3uBe87PkbEYOZeVfzjY0/x2B9XT4lnPmNOJe/++/G4lkf/unQQ1Gd3CrmvMWwDK2JghU3CSQulDLLtRbqe76f9qT7W/Kudzo39I4bYfQWHEQQ4EkEXRNAFEfSdxJnArWOpkKiKMvfwBur2Lad2bhm1e5Xhmz7ZngKGsZusSwV+0QcbWg6u5ZmfbOCWzz9aqthMCvY5cw5n/fRgBroypLbksSLG7llPV0F6WjtuEi8L078uS8fKPjpXDtL6SBddGwbw/TFF37sS+MTOnUmQ/lcQQRdE0AE+C3xnPBVNTOK1YZac3sIRn9+TVE8WL6d3ragr8Ao+ZtSg5bA6Vv9pC3++7D8UCsUp9+wPvWgPTr58KV0bB8m257BjFru6a/E9TVlTlLa7e7j/ihWktuZKifg2HLcRbJfsF0EXpgqybU2YynwXOBfYNNaKHh64ULu4HG2AV9TBfupdKeZ5j3CFRfP+Nbzwhy3ccNmDU1LMAR655gX+8bGnqG0uo3x2nELG2+X7/pVSuAWfZHMUK2KOV8yLBGvm5+xsMRcEsdAFsdBfz1zgUuDDBJHlhiUUCrHH8U3MP7WePc5qwo/4dDzbh2GYqNcOb/XrRXjHTbLAYUujKW+JEY2GePLnG7jzm0/iM/W/xcVvauG0Kw7EqjboWZPCK/goQzFhr4Ye/nkoFSRaSbZEKZ+RoPW+Ltb+Yysr/rqJvp6S9vP/Ffg/YJcF0Zf+V5hIZNuaMB1YD3wB+CXBNOkFwPztlvQ1SkEobtPxQj+2bVE1swwjovB9H98F3/fwXA2eBq3QWuPkPLyCN7697DoIxqIMMEIm0QqLREWEnufT/Os7T7Py7tZp8yBW/ruV3rekOO4L+zDrTbUUHZdsdwE3772UonQ8bag1KBPsqIVpqUC9DY1hGZimQpkKwzTAhXy3Q3tbL5gQipj47oiimR8S8p8DDw1Z6IIgFrogFvokoQG4GTh4pGtVCuqaKqndp4yKxjjxhgh2wiSStCmrTGLGFV7IJVYRQSufTHc+yPVdogBpL9gXb8WCc4biFqGYTXpzjuXXt/LIb1aRSxWm7buwz+lzOOCiedTtX46rPYppl2LGoZjxwNMoU5Um7gq0qzGjJrGyMOmeHDhgZE3SfTkyqTxOziXX7tDbNkjv2jTbnu/D9T3QerS1/JOAfwO7JVet9L+CCLoggj46XwS+Oc47oSwew4gpPNMjkgiz5MxmDrhsPqnOLH5xO85zOtgy5XsajCDaW7jcJpywMU0DP6fZ9mQfa+5sZ9W/2unblnpDvBMhw2bBiQ0sOGEm806sx64y8T1NMeeS6y/gZFy0E1jtwZ/tiJ4HsRkh+lamuf97KxjozIKrMfIm6YEcjnbHe3mPAYfszvaR/leYSGTKXZiu/AH4KFA/jm6WwUwmiOANpMhR3rgIK6SCPeuoIasv6IyVEcRfD5XZRMvDmIaB9jTOoEfXo4OsvqudLU93s+Xp3sAZ7w1E0XdY8a9WVvyrlfr5ldQtqWD+MQ00HFRJsi6GUa/QQCFTJN9fxMv7gTOdHjLNVTDd4RV9opVh+jdmGOzNTuSgTxDEQheESW6hQzDl/negZjyV7bDJ3CPqOfzDezL7lBl0rO7F1CaGrYK1W9vAIBBvL++R63NItefoeHqAtme66Vk/SN/GNI7nysvxGirqE1TNTdK0dw0NB1SSbI4Srw1jxQ0MywADPMfHd3x8HbRvvCkKA3D/d1ew7OaNZHrzO3IJnwG+v7vbQfpfQQRdEEEvnaXA/wInA3bJ94Ji8VGzOOhD84nNDjGwIYfywDc1nuPhFzS5DoeB9jTZnjyDW3L0rk+T6stRzDvyMowByzSJloeoaimjbHaMZG2EZE2MZGMEIxEMnizTAq2JN4WxtMmKazbzyB9eIF8csw9bG/Bp4IbJcO/S/woi6III+hg1AziWIP3q8QROcxbBhO6wy07hqI0RVhRzHqanME0TV7v4WqP9Iae3SbTVLGHaVJlx6sPl7BuaSTUx4maYMBYePtpQOL5L2ivQS5b1Xg/rs130+BnS7uRz7jYM4yWveFOZKA2O9rBjJspX5NPFUgWxnWC9/LahPx2T5R6l/xVE0AUR9PETARYOWe5fBWZP5TafG6pk/9gsDo8uYN9QA3tZNdSpMBhRXo4bZfCqDdxag/JBF+nxcizze3i6sIWHcqt5KreZ9cVepviW+I3ACmANsBK4C9gwGS9U+l9BBF0QQd8x3gS8hWDPevlUa+ewZXF2Ym9OTu7DcZFFNKvyYJO27+K7ORy/QEYX0IrtzCAEz8jQEFYWETOKacTAtEC7tOlBHiis487UMm7OLKevmJ2Kr+J/M+4dDiLoggi6IEwFQd97qKM/cyq2b9wOc0nZwVxYcTQH2LNA++Dlybgpcrow5BiuUCiMUcLaaQKx18F+OxSKmIoQsxJgRMAwWOFu4fqBh/jFwKN0FAenUlOtI0jc822gSwRdEEEXhOkj6PaQ1fZBoHbKWeSmyXsrj+AT5UezyJoJnkvGTVHQOXx8UOaoAl4KPhqtPUwMIkaEmBkHM0aru43vD9zDL/v/Q9adUoHU1gGfI4gENyk7Oul/BRF0QQS9dPYhiM99ykSd0FTBdLWJgaUMfK3xdRBsxsUnp90Jk49jkgv5fzVncXBoPoabJ+2lKOoivqIEO3ycIgNofJQG27AoM8rQZoQXvM18tPsv/HvghR1/VwwIaxNTBWlrX9zX7+DhTGxSFw/4PfB5oFMEXRBBF4SpKejvAS4HKsd/U1BnxmkOV7B3pIm5Vg0L7BlUqigRDOJmCMfzKPoeGJDFY4PuobXQzVOFNjYXe1hf7KE4RpGKmAafqz2Fr1WcCZ7PYLGLovKGJHxXtrPGRxPWkLRqwA5z1eDdfKXzFgbc0sLWxg2DeruSuZEaFlo1zLSqaIlUU+5FiCkLrTReMIogZRTZ4HTT5fSzyulmdaGDLi9Nt7PDa/krCBL4PCyCLoigC8LUEvSvAV8Zb+Ul0RkcEpvFabF9WGg1ssgqI6QivOQ57ush408HAqvU0H8awX+jQRfpxOE5v5+vbPsDD2dKy/I6P1LDzxvexXHh/cjk28noFKYKsbtb19EOCRUnHpnJI84qLtryC1bnu0es85aK/fhU9VnMxWamkSRY/Xg5Ahzaf+ULxMuxXzXg0u3l2KIzPFFcx79TK3ggv5G2wsB4byE/ZKlfJYIuiKALwuQXdBP4yZA1NiZidphzk/vx9sRSlobnUW8kA9HxXXw/R9bLUsR/RfhWtV2LVqEwMYiqEBEjCfHZfKPzJ3y545+jXsNxyQX8tv5SWowa+vObKOJiKZvJsASsUDi4hLVBeWQ2bfTx3q0/5a7BNcPW+XXDu3lvzdmQXkVRu+R0ERcfX/ugNNsLim8M/RNVNhEjBkYIDBOUZp3Xy5P51fxu8En+nl4x3pQq/wv8jwi6IIIuCJNX0MPAr4Hzx1KpLpTk4srDuShxAAutJpSvwc+T8/JkdR6NP2Q5qqF/SuioAUcXqTZr6VBZTtpyJc/nR3a4PrN8Mdc1fJCEF6Kv0IZrgIkx6Z6zh4/h+1SHm0ibHh/s+A3X9j253bJnle3FLfWXMlDopaA8TMyS2y/YcucHGeswiRhRokawxz6rHJ4rbuAXqUf5Q/+jFLwxx8j/+o7M4IigCyLoggj6zsMCrgPOKbVCxDA4t+owvllxMo1mLbh5Ml6GIs6QBVmqfG9PkDSGD5XxBfxo4BY+2n7jiOVPKFvA3xo/ScR16XY6UMoc92/vEiFC42uXarMGIxzjgm0/47q+p18/62FY3NHyMY6wl9BRWINlhMd1Vy8KvNIaQxnEjBBhlcCzLB4vbuK7vXfwl4FnxnrabwBfFkEXRNAFYfIIugJ+A1xUaoW9ovV8u+7tnBHdD11MMej14qoXJXTH78PzXWpDDWTMIodv+j+eyw8fbXRutIb/tHyRGa5Fl7MVywhNmWfuaocasxLHDnFS+5Xcn1r/ujLHJudzd/MXcXJ99Pk92MqegF/W+EBIm5TZNWBZfDd1F1d0/YOtxfRYTvTlIWEXQRemPIY0gTAN+MZYxPyymsN4oOULnBHam/5cK51eN54yhiziCRBzfJJmEkJRLtj2qxHFPGRa/L7+XdT7MbrcqSXmALYK0e31EfIUNzV8kPnh128ouDe1lk92/Y5QpJYyFcfTE5FCNti05yifTqeNVL6LzyZP465Zn+W0ssVjOdHXCdLsCoIIuiDsZs6mxLzWCSvEtc3v5me1H6Tc0XQXW3GVJqSsCbsYH00Ei0ioki92X88tAytGLP/eikM4PLw3g8WtmCo05Rpfo7GUTZ/TRY1RzdUN52Marx8UXdl1Lz8euJVopJEw9oQltVGApcLkdI7e3DoWU8NtMz/JF+pOGkvvdhVwnHxKggi6IOw+9gauKaVgYyjJrc0f44LECeRzbXR5XShlBfnMJ1Dc8H2S4Ub+nHuMb3fdOWqdc+N7g5ujqDRqCj8IT2nyhU5OjOzPGfE9tlvm41tv5LbcY5RFGjE0E5ipTmMpC18Z9BTb8QoDfKv6Aq5rei9hs+Qu7vfAPPmkBBF0Qdj1RIBfAfHRCjaFyvlz00c4zl7EQG4dKZ3FUtaECqhG4/sONeEW1ntb+cS2P4+602x2pIpF4Qa0n5nUDnCldSQmOT8L2uPNZfttX/Q1vLv9tzztrKUy0oz2vSB07YRdg0Ipiz6vj3SujfNix/GHmZdgl+bbMZMg9rsgiKALwi7mf4CDRitUY8e4qenDHG7Opie/CQeNqcwJvRCNxvMdakOzGDBznN3+M9pLSGay2KqjTJVTxENN8XylCoL9+X6R/SPzqLIi2y3X5+R4W/vPWettpiYyB+27EyrqAKayyOkc/bl1nB07jD80vQ/LKEnUzwEukE9LEEEXhF3HkcBnRyuUtGxubPoAB1tz6S22gmHulOjnnnapshsp2oqT277HM9ktJdXzFYA/xW3zV6q6gfbyzDOSNFkVwxbbmO/juM1XspleasOz8bU34cMZU5k4ePRm13FO/Ciub3pPqb3dlcAM+cQEEXRB2PmYwPeG/h65Z64/h2Mi+5MqtuErc6cIp6c9aq06CFm8o/0HPJreXHLdbjeD47uYU94+f3V7JHybuAqPWK6tMMDpbd+j2yhQF2rCnxDP91djKQvPgMHcRs5OvIlv1p5eSrVqgmQ+giCCLgg7mfOAQ0YrdFn1Yby37BSy+VZyOBNumWs0nnaptWeQMh3Obv8htww8P6ZzPFdsZ4vXhaliE+ggtjvRGMokrzRZPXrilmXZTs5t/yF9RoFau37IUtcT+oxMTAq4FHJb+GLVWbyzYt9Sql4InCCfmiCCLgg7jwTw8dEKLY3O5Krad6HzPWT8NBbWhF6Ej4/2XWpDLfQZed629efcOrByzOcpeh7/r/8esEJEtDnlRV1rjWEl+Y/byvPF0jKV/ju1hvO2/Yx+M0NNqBHfd/EnuB1MZZLyU+C6fLvuXOpDo/pRGgR51JV8coIIuiDsHE4GDhzxhTYMvl9/DmHfpsvtwpiQqGSvFnPD96mJzmeT0ctJW67i36k14z7ftf1PcF9hJYlQHY4uTlkN8fBJqASYYX7Rfw9Fv3RHt38NvMCpW66m08hQG2rG94sTLuoog97iNuYYjfy/GW8ppcbRwDHyyQki6IIw8USBD49W6CPVR3NcZF9685swjInfmmb4mqroXJbpVo5v/Q5PZDbv6En5TNctYNlUGBU4fmFKirqpIRqu57bsI9w4uGzM9R9Jb+LEtivotAvUhWfja2dCJd1A4aPJ59u4KHkcJ5btMVqVMGNM8iMIIuiCUBoHM0o0r5nhCv6n/ETcQg+uYkLXzX00poaq6Gz+467lxA3fZX2ub0LO/USmlU93X0ck2kSlWY6ni1Pqwfi4VIVmsMZr5ZL23+H545Pi5zLtnLb5u/QYOersFrSe2O1shrLo91NQdLi85i2UWaNG5nsXQfAiQRBBF4QJZNT9wZ+qOIoqs5ZBbwBrAsO5etolgklFpJm/55/lzNYr6HAyE3pzl3fdw6e7fo0dqabWbsDQ4Gt/Uq+q+/h42qXGrKNo+rxv22/ocLI7dM4n01s4fcvlrKeLmnATaCZwn7rGMkL0F7ewV2ghbys/YLQKUeB0+fQEEXRBmDhqgLePVKAiFOOdyYPQTmpof/dEiblD3EiQiM7m+tyjnNf2M/qc/E65ycu77uYdW6+mnUEqIi0kzQRKexOUzGQC2wQfX7tECFMbmU2/5XPhtl/xYHrjhJz/0fRmTt/yIx5xVlMVacbQasLawEBRVBrcNB9KHIJtjNoFvguolE9QEEEXhInhxNE61Q+WHcxMcwZpnZmwqXZHO1QYlcRizfw49U8uaPslKW/nToff2P80R7R9n99k7yUULqMq1ERcJfB9B5fdK+wacH2HGCFqQo0kIo086KzhlC2Xc0P/sxP6Wy/kOjm17cfcW1xGVWwhIQw87U7IuU1lkXZ7OSiygFMTS0YrvgTYQz5BQQRdECaGt450MG7YnJM8FLwiRd9lR53KNME0e41Vhx2t4ktdv+YjbX/E93fNzW7M9/K+zb/njLYruKW4nFi4kppwCxUqAUMW+66citcEec8tX1MXqicemcGT/jbe1/VTjtrwnTEF0xkL/U6eUzf/iJuzD1AeW0iM8IRY6gooBHP5XJw8oJQqb5JPUJgKKK21tIIwMS+T2ine2VXAcwTJM7bLcfG53Nn0aXAy9Psp1A6MU318DA1V9gx6zSKXdf6Wm/qe261D7hMSC3l3+ZGcE15ExEiA75F3B8jj4g8J7sux5nbkGeihf7+cGV5BkA7WKgfT5jl3M9/svYO7UsvpdfO76MWCX858Nxcn3oSbb6ePLOYO2yKaMhVjwFIc1vZd1uS6Ryr8DIFTpjPhgyXpf4UJxJImECY5hwO1IxU4I7kXprbo97KgxtfRazS+9kioCNFIAw87a7m0/TesyHbs3rv34a7B1fw7vZqvhWo4PbEP70zszVJrJmVGFYb2wM1TwMVD42kPDx+9nTA1gXjoVyulCoY/JgaWsrCUQUibYFhg2PjKoKBz3FVczc97H+GewZV0u9ld2wYaLtnyOzbP6OV/yk+l1o3Q7faCAmMHhD2PS7VRw1tii/lu7v6Rii4G5gKr5HMUxEIXxEIfP18H/nu4g9VWlHtaPsneZiNdxa2Y4/Bu99GgParNalS4kuszD/DBrX+k38lNynYOmyZ7R5s4MjKXoyLNLA21UGNWkVQ2aBWMAjSg9Cv0W7/iz4tmvQqmAFCgTFA+AzpPvx5kU7GL9U4/Txa38mh+E8/kWnF21ZrDCJxTsR8/rHsnM6gjXWwnp/MYO5AKt8qq4S5nJSdv/in+yNvtzgf+KBa6IBa6IIyfEVOkzjATLFSVaL8w5pziQcpPjaE9qkIzyVqK/+7+HVd038Nk3i9W8DyeSG/iifQmfgDUhcvY225gjlXB3Eg1c60qkjpETNnYhoWrfUKGSZmVpEaV4+NTtH0yTpaUm2bQz/OC18Xy7FZecDpZ6/XQ7gyAN/nu/c/9z/BsYQtXzTifk2MHEC900uX2YY5D1IN97i4L7WZmWeVsKPaPVHyWfIqCCLogjJ8QwZa1YVkcayBsRsgW+8Y43a5wtYuJpio8i3W6h/du/iUPpNdNuUbqLAzy78Lg60crr/wbqLRizFRJPHwKps+Am6PPzeNrn6kURn51rotTNl3JJ2qP5htV51BHPd3OVjDssYm6Aq09alWYBrOMDYwo6HvJ5yiIoAvC+KkFykcqcERkARgWWV3EUGbJJ/a0Q0RFSUYa+HdhGe9rv4bWQt/0aTn9mr+BvmKWPnbC+rcJe4brmWdVscCupcFIUG5HUX6wZ91SJp722ealeM7Zxlqnh+eLHTiOu0P394PO+3kws4E/NX6IueEmeovt+EqNYV1dUfALRO0K9ojO4KFc60iFDyQIB1uQz1IQQReEsTODEfafGwpmGGVDS8almZg+PgaKWqsW347yo/Sd/NfWm8h4E+jArKDKjjPPqqHFqqDOTtJsV9CoEsGytoZ+o0Cr0097cYA2f5C1xU46nUH8KWQp14fLOT95IG+J78mC0EzKiBJT1qvX8V+cJdCAMigolwGydLu93JNZz99yz/Ngbh0ZZ3w6+URmMydv/j7XzryMQyKzyRQ6yOo8hjJLWIJR5LRDBIOloZnA4yMVLgfqgM3yWQoi6IIwduYC1cMdTJph5oQqwXcYbbtW4PjmElMxYuF6unQvn+68jt/3PjZhIj7HruSoxCKOjy7gyFATjWYS04hgYQc2o36Fk5pSaAWu9vB0kU5vgIeddm7PPc99qRfY5PRP2mnwvWINXFpxNOdElzDDrMHwHHw3S5EsGfzgnyFnL/WKSQJDGdiYVCtFHfUsLpvNJeVHstbZxt/ya/hr6kkey2wa832vzXdzRuuV/LzxXbw1dhjxQi/dXg++Mkbc3qYg2NeufeZHGzFMhe8N++O2CLow2REvd2HiXqaJ93L/APCT4Q7OtMt5rOkTNKgk3X4/Jtufcne1i4VFlV0LdpTbs0/w2c6/sjK3bYcvMGmFOC6xiLOTB3JWaB4VZjloE9wMeZ3HwRvaK/76OQSFwkBho4iqMFgJUD69foo/5JZxXf9/eCTTOmme75xwBZdVHc9nkkdjEcV3+hnwM/gqkG31KqkcjhfbQaHQhDBJGAmwE0CBqzOP8aveu3kq2z72CzTg8zXH87nKt1ClY2SL20jrDKYKDXtFvvaoCdXzpLeFkzZdQa837N76HPBO4G8T2abS/woi6MIbRdA/AvxwuIPzIrU8PfPjRH2LPp3ZrjXmaYdyo4JQqJqVfjtX9P6DX/Y+tOPWrwEXVx7MxZUncJg5C7TGdVOk3UGKyhua8i0tCK3m5X3wtjZIWuVYVhIMn19kHuLK7n+yIte1W5/tu6sO5uu1b6eFGgrFLlLeIBjGDu0Df+kZ4aF8n7iRIGpXUzAK/CR9Pz/svov1hf4xn++AeBPfrnsHJ4b3RDsZ+pxOPMPc7vvha48au45VbhfHb/kB7U5q+EkeeA/wexF0YbIiU+7ClH0/bfWinLwuhAo+mog2SYSaSBs5vtJ3A9f0P8i24o5nSTuzfAmfqzqFI8OLwc2TLXSR9bNow8QwDKwxipx60VpXFr6CXr8PM99Hwqzg0tgxnNmyH9/qvZUfdt+366fhFXyt/ky+UnEOFPvpcTbgKR/LmLiuw8QEwyRFlnwhQ9Kq4hPJ03lr7GC+2v1nftv3+JjO92SmjdM2Xc5p5fvyg5qzmROZQ7q4jTyFoQGIet37ElLGiwsjIwzhsOWTFETQBWF8hEfrYQ1ens7W+BgYWFgkzQTajPKPwkr+q/svPJfZssMXUxeK89WaM3lP2dFEfUjnt1Hws/iGgWlMTF+vAAsLDBj0+zHzg9TbNVxVfSHHRRfysY4/0fbaLWo7CwOubjiXD5adRCHfzqA3iGFYwfXtlM7IxDegz+sllBtkll3Lr+vfzzHxRXys40ZSY8hy5/pwa9+zPJ5ZxzdmnM17YoeR8AqkvEEcv4j/qihzGkMrDK1KaBFBEEEXhPHgjCx+ipCy8H0XC0W5lcA0YmDYrPO2cUXvzfys90HcCYhwdkxyEb+acR7zzEYKhV56dRYfjWFYmDvp5k1lodF0O91E3TRvjR7GguZ63rblatbkenauliv4eeMFXJw8iVy+jYyfm7BBy2gDGlNZOGi6nG2UeTHeEzuWPZqbuaj9F6zOd4/pfFuLaS5uu4Z7Kp7nK1WnsCA0E7wiGW+QnJ/Feyl63qi5530gLZ+kMJmREacwmRlRtVztYlrl2JEWqsINOGaEOwrL+Wj3tey36dv8uPv+CRHzi2oO5c6mTzBP19Cf30xKZwA1IevHowucwlAGOQr05jewl2rhn82foyVcsVN/91O1x3Fx2Wnkcm1k/PyY9vhPTMekMJVJSufoK2zkULOJO5o/w6GJlrGfTMO1fY9xQOt3+GzPH3lMtxMP1VATmklSRUCFsK0YpjFqX7lYPklhMiNOccLEvUwT7xT3feBTwx2MGhYfqDqKg2OLaC928LfUc9ybXTeh68zfaDiNL1W8g0K+g0GvH8MIoXZT+/po8B1qInNY7rdz/Kbv0zW8E9e4WRSt4ZFZXyNaLDDgdWOp3bt0rAFfO9TajWRsg3e0X8XtAy+Mf+bDMriw7AA+UHESh1iNYNWwylnFoRu+Rf/IGeQ6gUOAjRN2b9L/CiLowhtA0PcCHgViu+VmDLi6/hw+WH4muVwbKZ3GUiF29+bwl0V9IfcUn+KE1h+NllRkTMQMiztmfZQj7D3pLGwYccvXrsbTDrV2E14oxGmbv8sdqR1LflZuhTkoOptmo5JlzmaeyJbkZ3El8AkRdEEEXRBBL53fAhftnhuBn888n0vLTiWb3UxGZzF38ZTzyKLuE9IGZdEWvtr7Z77W+c8JO/fHao7hypqL6M9uxDX0LllWKN1S12jfoSbURM7yOGnL5TyY2rirL6MAHAs8IoIuTDZkDV2YjOy328Qc+F7D27g0eSqZ3GYyTC4xDz5ag6Ly0cVePlV5OvvHGyfkvC3hSr5eeRp+sQfH8CeVmAfjLIUybLqKW4i6Btc2vJ/5kepdfRlh4CbgvfKZCiLogjAy+wBX764f/6+64/l0+VtJ5zaR9TPDRp+bDKLe56Up0yG+Xn0m1gTMjnyy8ijKVAX93uCkvW+FwjBsuortzNKVXNPwPiLmLt+s0wj8GvgFEJdPVhBBF4TXczFwH3DY7vjx08oX8+3q88lkN5HVOUw1ueOIaHwcp59TYgfypvicHTrXjFCCdyYPxncH0WpydwsKMA2bvmIbh4f24EcNZ++uS7kEuB2YKZ+uIIIuCC/zPeCXQMXu+PF5kRp+U/duKKRJkxny7J7c65tKGQz6aQxf877K43boaz47sTcNqoaczk8aJ7jR8JQiW+zg4uRJnF+5dHddxtHAPQTpVQVBBF14QxMlmL789O68iO/XnkWdUUOP1409CbzZSxc1H9cd5OzYPiwJ1Y5/diKxGLRLQbtT5sUxMMj6WXAKfKvmHdSHdnz2e69kE7NjNWOttgD4F3CSfM6CCLrwRhbzXzFWB6MJNiHPq9yPN8cPJl/sADW1PgkTk4yfxiTC0fE9xnWOPSK1HBxeiNZFtPan1P0rZdDvdjLLbOTjVceO+zwhQ/Hzpgt5ounzPDPzU/xPw5k0hBJjOUUVcD1wlHzWggi68EYjBvwJOG8sb+u5lfvz8+ZL+Ur9GUSMHXfcKjNtvlb9ZnA90n4eNWUmnF8c2ygK2gHX4f1lh5EwQ2MXdLOWWpXA8YtMsdtHoXC0g1vs4dKyE1gUqRnXeT5YeQSXlp9GOJ+nzLX4atmZPNzyed5Wsf9YTlM59E7vJ5+3IIIuvFGwgN8BZ5Za4aB4M7e1fJw/zng/l0YP5mvVF/CbmRfssAB9uPpYFthzGHS6Qamp+RErk6zbx752A/tGx+6ftSBaCyiKfnFKdgmGsuh1u6lWFfxX9aljfiXKzTDvKz8WCr10+n106kF6c5to1uXc1PBhrm26kPrSrfUGAke5OfKZCyLowhuB7wJnl/qGfqzmGP7V/BlOD+1DKt9Fd24tqcw6zk2eyDfqTh33RTTZST5efhx+cZA8xRKzl0/Gj1iRJQ+EOSwyd6wmLofHF4LWFLQzJVtAAcowyBW38u74QRwYG1u89wOiTexjNeB4gyhlEsJEGxbd7lYyuW1ckDiB+2Z9lsMTJWt0A0FgpIR86oIIujCduYwSQ2eWWxGub34vV9a9h8qiT29hQ5DT2oiS93NQ6OOzlaezd7RuXBdyYeXhzDDrGXS6dnnykYlGo0BrDoo0j0mUY8qingpQJeQbm8SYmKS8FIaKcGnFEWOqe3xiCWCS8jOYGOihQYKlQmR1jv7cehaqem6f+UnOKt+71NMeDXxBPndBBF2YrhwM/KiUgjPD5fy95WO8M3o0mVw73V4PWpmYQxnQDcMk5fURIsrpib3GfCGVdpj3JA5CO2kKypuy1vlLVqpS4BeZY5RjjcGxr9KOUWXHwPOmeAuAYdh4xT7eHNuDGeGykgc0h4ZmAx7udgY0pjJxlaansJlyV/PXhg9zWc3hpV7SF4Gz5LMXRNCF6UaYYJ/5qNFaWiIV3NryKY6wFtCXXUdWB+k7Xyk4gTNYEfw8p8eWEh6jg9ypyX1ZGGpkwO3CUtY0aF6F5+VpCZXTEK0ouVaFilCrIqDdKetD8HJnpkj5GerMOt5Tfkhpgm6FaDET4BaGdYg0UChl0uluwykO8rPa9/HeqoNKvawfsptiKwgi6IKws/gmMOp85cxQOf9s/gT7U093fj2eYQxZ5ds1S8FzmGdV0WSWjeli3hXbDzxNUXlTzrN9ONHJK4dKFWeuUVVyvZgKkdQ2Hu60eMk8pcAtcnKotPXuulAZs60kjp8fdcuircIMeP0U8t38esYlnF6+Zyk/0QJ8Sz5/QQRdmC4cTQmBY6rsCDc1vZ89VTO9xVYw7FGmwg1cL0edGaM+UroRNCtSxWHhJlx3AAN72jSy1qB9g+hY7klrYDpl/NJonWdhqJGZofJRS+9h1mETIadHd4rUaGwVYtAfBKfAH+vfz37RhlIu6oPI/nRBBF2YJny1lEI/b7iAQ8J70V/cjK/MUTtYBWQpYBJiiTWj5It5a2IfKqxa0jo/rT4AjcYwDOJj2Is+QIEeHEwmf6jbUlBATjvMtOo4Ob5w1PKNVjkoE4fSfAg0GlPZ9DpdJEnwk4YLiZolLfd8TboBQQRdmOqcDRw3WqHP1B7H2YljyOQ24+CW6KSmcLQPKJrsypIv6LjwbPA9vGkw1f5aMYOxeav3e1k63TQY5jQx1BVF7YLWHBubN2rpCiM6rm7QV9BfaOPQ8F58e0ZJfm/HAadKdyCIoAtTlQjwqdEK7Rtr5H9r3oGX7yKrsyWn7lSAjwcomiO1Jfl0WZbJPKsK/MI0k/OgRXztk/OckmsUfJecdsCYPl2BhwfaYd/wbGLWyLMVkaHZDD3G0YyBgaMdivmtfLzsVI5IlLT//xLpcwURdGGqciIw4h6fkGHwixnnEXUV3V435lg9zjWgfWr8OKES9pIfEmmhKdyAq4vTauU4kHON0j45v3RB99C4yhuyzqfJEEeD9j1arBqW2CPHKDCUGvd9m8qmz+8Hz+Wq2rMJjT71fjpwgHQLggi6MNWIEgSRGZH3Vh7GQZG96CtsGbuYQ+Dprn1imNglvM57mjWUE6WgfdQ0knQfTVSF6fIHecHvLLle3vfIe8XpI+ZD74SLSwVhGkfZ/ZD33KFR4XjuP1hP7ytuZf/wYi6qPHS0CmHgfOkaBBF0YaoxBzhjpAK1oSRfrzwFr9CDq3yMcb+OPkkrhF2ChV5lx1+qM61EDI1hhNnipegupkqu5eLTQQpQGNNoiOP6DmBQZ48cfbXgFkHrcb8JBgoHH5x+/qvsWKLWqA6J5wIzpHsQRNCFqcQZo1rn5QdSa9SR8gfHZ52/QszCysIoIULagnAtaI03xdKEjt4EGowQ670BPD2mpuOB7BowIDKF8sCPhocPGqqMkXOkR+0QKGOH7tpSFimvn7n2TN6SHDVqYT2wl3QPggi6MFWwgQtHKpCwwlycPAzcDN7EGKijW1kKGlQC0FM6bvnw96d4vtiB1mO7t42FbtAeYSM0XRoCV/ugYGasYpSSamgQs2PvQxENnstlyUNKmfg5T7oIQQRdmCocOZoVclHZ/iywZ5H1MxMw8R1Me/qjWd0abC945aeZfT4kTB7dXmbMdVc6nbT6A5iGxXTZi/6ihT5DJUcsW/DcV9TaMRwvzWHRRRwVH9Xj/SygTroJQQRdmAqcNlqB0+OLUb5HHnfHO1PtE9MW1mhr6IYiaUdA+zDNHOICh0CfNq9vzPU3FfpZVlgPKrQDfgyTUNUVRJ2RZx0yFEGzw8l5FIqsdggT4ez4ktGK1yKR4wQRdGGKMKK774JINQdEFoGfR0/IWrYmVEJkOUMpTMOEabYDXeOTMMtod/t5Krd5XOd4ILcejBcHRXqKtwcorUBDysqNWHbQz8HQos+O3rWLB16Rw6MLCI2eLGihdBOCCLow2WkB5o9U4JT4IupUOVkvOzEZvpRBBgdXj7wa73s+KSc3/Vpcaww7wb+LG2grDozrFDenV9LrDxJXkWmxHKGG/pU2nBHHbz1eGvCwlbHDkq61xtcOe9rN7B0e1ZF9sXQVggi6MNk5kmBKcVgOicwHNDldmCBr2SCri8H2oVHIEqQJNaaJla6BCDYozT3ZleM+z6p8J7eln8Kwy1BTXtL1Sznht2b6R9TpjV4fri4Swd5hC10pRdEvkFAh9ozUj1b8QMCU7kIQQRcmM7NG6qjKrTB7hBpBu2j0BMmqIuM7uCUIUVoXQRvTZtLd1y5xq5xeP8W9mdU7dK7/138vjs6SJDLldwG86E/R6vSOWG5LsZ81fj+2GUPv8EBGkdcF0AaHhmeNVjiB7EcXRNCFSU7NSAfn2TXsY9fge7mJmW4PTKOSLf3lzlYwwJwWa8WaEBaGFeeXg/9hQ6F/h873fG4bv0k/QsiuRmtvSreNpSzAo8sf2evf8Vx63BwY1g6/DgqC+AbKZ5ZVM9ormQTmSXchiKALk5nZIx2sMKPY2sbVDhMy3a41KJN+o0ChBBHaVOzHA4xpMNuptSZmJtDK4++ppybknFf03QvKIaliQZKTKTrUMZVJXvv0etkRSxZwGaAIEzTAe/EMCTNKaORARwmgWboLQQRdmKwooGGkAnvHGsGwyPnFiVk9H3Jm2lDswvVHnzJd43aTJoc9DSbdDRS2VcZ9+RXcn22dkHO+kO/kj7mniITrUP4UnXjXYCibVr+XNU73yIKufda73UMvr5qYH/c1SSNGbORAPSZQJl2GIIIuTFYSQGykAs1GFWiFi7fDHah+haB3FUrbf/1Mvp0txa3Yyp6wFfzdo1mauBEF5fKVrtsmbvVAwzd7bqeoHMrMSjztTrm2MZUFyuah3At0OplR73djoWOonrnjzagA36HRTFJjJUYrXSldhiCCLkxWIgRhX4fFxgymySdI1CIE0c3W+6UJetFzebKwFczoFJ4GCTLMhe0qrk8/wgOZjRN6/hXZTn6dvp9QqAYbc8y5wnf3UCdkWLiG4p7s+pJqPO92gnKIEZqAe1Vow6fcs0h4oy7riJe7IIIuTFqiQ6I+LDFtg1ITIxLaJ2rE6fVTLMtvLbna33Or0YbGnqI+cS4OFWYZvfTzme6/7ZTf+Ebn39hGH5V27ZRykNMooth0e938M1ea1/+qfAddboqwGRuKIrhjMxwKRcHwcIxRz1WULkMQQRcmK/ZIVodSELXCE/uLZog2N0W3ky65ym3pZawvbiFplAUxv6cQHj62tjBDVXyu+y9s2UHP9uHYUszw1e4bwY6QMOL4U6adfJQZ5+7s83QWBkuqMeDmaPeyYNgTMX0CPrgWeOaoSzpaugxBBF2YrDjAsIuuWkPeK05YN6aHRgmDFIL95SWScYvcll+FCpWh/amzRqzxMXyPiugcbsk9wTX9j+7U3/tZz0P8dOAOIuEGLG1OelHXDM0AGS4/HXys5HopXaRfZyZmG6XWQeRC3yXvOaOVdqXLEETQhclKcbROylH+y3E5d7DztocmA54urKfgj21a+LeDj+CqLEmjDHcKOH5pNL7vUR2ezTa/nY9suw53F+jrRztu5M7841RE54DvTVpRVyhcXSAaquXhwnoezKwr/aXVPi+4Wwg2M06AY5xhsbU4QLc76qxRVroMQQRdmKxkh6z0YenR6Zc64B2VuKgZLNc/kF075trPZNr50eD9RCP1mJpJ7/jl4VFp15I1PU5qu4q2EqeTdxTX07xzy294oriCmuiCSSvqLi5JEmDAF3tuH5vfpYb70msAj5gRYceS6xqgDHr9NBl/xE8hD7RLlyGIoAuTlRSwbaQCj2U3gnaIqdAOhhfVhJRNlgLtXmpcZ/hm1+1s8DuoCtXjT2Ir3cenWpVhhcr4aOdvWJbdtkt/v8/JcXLrVTxcfIGa6FyUz6QSdR+N4UMs1syVg3dwb2rNmM+xvLCNHj9N2AyPe0ko2EYZ/MeAmx5tUNEHrJAuQxBBFyYrGhjRXN7qDAAuISPEDi2ma1DKpNPL0FrsG9cpup0c3+j+C8pOEleJSRkZzdMeZSqGGargv3r+xK97H9st19Hr5jm97Qc85a6nOjobQ6vJI+raozrcwnJ3E1/rvn1cp2h3U/T42aEuUY37pbSxQMEar2u0wgWgQ7oMQQRdmMyMaD72+lm2ksdUoR3bjz4Uv73P7afTzYz7NL/ufYw/pP5NLNqEjTVpkpJowNNFyowEoWgjX+m/hf/rvGO3XlOfU+CcLT9lubuWqshsLG3i7eYtbb52qbFmoE2Pj229hj6nMK7z9PhZOr1ewNgh37iIEQbl80R+1Mh93UBGugtBBF2YzIwYa3Oz08/qYheMHBZzVCxMwOI5p43CDnqqf6zjRp4orqQi1ITS7m6X9EDMC1SY1YSjDXyl5wa+3nH7pHi46/O9nNH2E550VlIRm0dUhfF0cZe3WeAEV6TcrIRIBe/t/DX3pNeN/4Q+PJzfAIaFhTXOB6exlU2r18+T+bbRSj8qXYUggi5MdtaMZHkUfZ9nCxtBqSFRHp/kWYaJbxg8kN2wwxfc6+Q4p+1nvOC3Ux2ahfaLu81S12g836XObsKOVPKBzl/w9Y6/T6oHvKnQz/GtV/GTwdtIxJqpsRrQvrsLlywURV2gwqjCDlfxqc5fcU3v4zt81odym3BwCRnjS9RiKgOMME/n1rC1OKqH+3PSVQgi6MJk535gxAXE+3NrQUHUiI5rHfbFaGA9fi/35NdNyEVvLPRxettVPK+6qYnMwdY6SIW5C/HxCaGoi7TQqrKc3f4Dftb94KR8yINukQ9t+RPv3vZTNhkpaqKzqFYJtPZ36o4BHx+lXersBnQ4wYWdV3NF130Tcu47c6vZ7GwjrMLjiPMfWOfaMPhn9oXRCjvAw9JVCBONJU0gTDB54DFGSKN6T3Y9a92tzDerSDvZMfsgacAwYzybf5b1+Z4Ju/D1+W5Oav0Ov294L8dG96FY7CLlp9AojJ009tVo0D4GJjVWJdgJbs49w0c7rqUtP/ataUpB1LRpsatoNMuot8qYaVcQwaK3mEYDJoqC8tnmDdLm9bPW6WHQzY3LR/H3vY9wV3oFn60+hfcnD6aaRrQzQK/OBWFUlZqAJDwatMZQBuUqgR2uotXr5KL2a7h3cPWEPYuMU+Se3Brmlh0H3iBjeTE1ipiK0O52cENm+WjFXwBWSVchiKALU4GHgHcMd7DXyfJA9nnmJ0/AUMaYLTobDabFLbnVE37hbfkBTtn8Q75X93YuLjuOaq+MjNtDzs+CMidM2DUaX3vYWFSYlWAn2eR1cHXvP/h+9114fultEjNt5oVqOCK2gKMj89gjVMUco4yoimAYYSzMYKvZK/RJK42nHTydZ703wOPFbdyRXcGj2Y30ehn63XzJv7+1mOJTW//MLwf/w2crjuWM+P7U0Ih2B0n5WYraeWm0oTBKkslgycMPktCoCEk7ASrBoMpzTfpu/qf7dtoLAxP+/K/JPM27yg4likl+LLNH2kdZCW5PPUpvcVRft+uQOO7CTkBpLeGEhQl6mV52D94LeIoRMq+9KbmQO2d+nGKhn4wulGwN+fhUqjg9Ksc+bZfTUUzttPs5o2wJ/1NzJgeG54NbYNDppeDn0EYQUWzsk7LB9WvfJaoiJK1KsGL0keWG9AN8qet2eoqlOz7vGanl8MQC3pk8mOPNBkwjBtoAL4/j53HwcF+xqPHa6zVQhDAJqwhYMVAOGS/Ncq+fB5wN/H3gaR7JbSLvjc3pcP94M1+uPIE3xZeSJAK+C9rF9XKk/SxeMJwZGsipoR0LemiGQKNQRAkRM+MoMwyGxUa3h/8UVvHLgf9wb2rdTnvmtmHwbPOn2NNqpMvrwyxhAOejSWATDpVxUNvlPJndNNprsBewEkD6X0EEXZjsgg5wN3Dc8IXhvpaPcLS9iG63s2TL19UudeFmfpW6j0u2/nGn31PYNLm44jAuqjiOg62ZoBWemyHjDVDADaaTh7bQvSia+rX9t9ZDoWoNkkYS04qDUqz3e7gl9wzX9T/ME5ktJV/TMYm5vLvyCN4c3Y9q4qA9Cs4AGZ3FJZiaDqa5R5/s1gQx4rX2sbFIGFEsMz60C6HAvU4bfxi8nz8NPkXKGZtReXh8FicmFnNYZD5zzCoWmmVgRF9uIO2D7+D7bpDX3jABEwwL8Bj0s6why82DD/OH/sfYMM54A2N6h4GfNZ7Hpclj6MxvwlKhUWu4foG6yCxuyD7MO9uuGe0n7gTeDORE0AURdGGqCPo5wA0jlT8+OZ9/N36CTKGXHO6ok7EajamhIlLHWzt+zs39u85RuNwKc1bZ3pyWWMrR1kwarUogFFiffgHw8LWPh8YYmlgO2sMAMwzKBhx6vQEe9bq4PvUY96ZW0losfZ1839hMPlZ1HOclDifqW2gvQ9odJKcLGIZZ8nT2qDMI2sfUkDSThKwyMCM867byre6/ckP/s2M+r2EoGswEzeFKDo3MpVJFqbKTLLHrmakSJA2bgu8xoPNk8FnldXF37gWezWymze2nbwzT/xPBCWWLuLPhw6TyvRSVP+KwyMUjSZRouJx9Nn+LZdlRo7leQDDljgi6IIIuTBVBrwOeARpGModubrqEN0f2p6vYhqnsUa3zarOKHiPL0tbv0L4Tp9uHw1TQYJdxaHw++4ZmsqddwyKrmiQ2YcMihIGHxsHH8zyyymOV18vyYicri1t5MLuGDidFfgzJZKpDMb5cfRrnJw+jljium2LQS+HhoZS5gzI+PP7QGnZERUhYVTiWwbXph/hUx430O7kdNoUThk1chbFNE8/zKWoXF58Bv7BbE4vGTIv7mj/JgfZsOopt2MNY6RqN0j5V0XlcOfg3PtH+l9FOvRE4HNgqgi6IoAtTSdABLgc+OVKdpfGZPNX8JbL5ftI6g6WsYa1HfIfq6Dx+mLqTj7VfPynu2VCKiGETN0IkjDBRLFx88ngUPIesLpL1i3jj/M4OSc7l13UXsNiahXb6GPAzuNpFKXMnyfhwwq4pM6KEQjU847Vx8bbf8FS6bdq+y5dUH8Ev6i5jMLuBgvK2u5bu6SK1dgvtxgCHbPwmbaMPMP8f8IVXvdfS/woi6MIUEfR9CPbbxkaq9+Omd/KhxOn0ZVfhG+Z2pzgd7VBl1qBDYZa2fpWV2a5p357nVR3Iz+veQ8Iz6C9uw1V6p22fK4XAItVUhRrpUmk+3HUtf+57dlq2fYUZ4u7Zn2KpOY/uwkaM1ww0Xe1RZpQRidZx9tbv8Ze+Ubeq9QIHAetF0IWdZmBIEwg7keeA345W6Evbbmatu4HKcPN2Y4NrNFEs7HANV6bufkOI+dcaTuW6+o8SKuToKm7GU2q3ijkMudgpg87iZqo9mxsaPs5X689gl00V7EL6vSIf6vwDKcOhzCxDvyLIkAai2ETCdXy37y+liDnANa8Vc0EQQRemGv/HKHmf+90CF237FRlLU21W470ulammLNTIo/ln+Nq2W6Z9g32v4S18pfJ8ctkt9Pu9mCo8qTTTVDY9bgf5XCf/U/0ufjTz3Omo6TyS2sxfBx8kFKpDYQwNLUFpn2R4Jv/MP85/bbu1lFNtBv5XugJBBF2Y6rQC145W6KF0K1/uvh4zUkGZkcDHC3Yqa5cqo5yCqfhC9y1kPHdaN9Y368/k0xVvI5drG/IpCAOTa1pWAaYKMegPksms5cOJk/nvGadO/s5OKeJmiEo7RpkdJWaFR82s9t/dt7HZ20JVuAmlCZYcwk086a3nXVt+TYnxfz4D9EtXIOz0b1PWcIQJe5mG7x3LgGcZIRzsi1ze+FY+Wf4WnPw2cn6eMqsCwuX8d/d1fHM3pw/d2Xyo5kh+XPd+8rl2Un4KU5mT/po97VFmxAiHq7i487f8uveRSXNtIcNkUXQGe4caWWDXssSuZ6FZRdwwcdG4wDK3i7vz67g38zxrc9tPFHhcch4/nfEuFprNoGxWeOs5a/MPWZ/vLeUybgbeOtxB6X8FEXRhqgk6wHm8Yv/tSObfFfVv5xPlp4AyaPV7+WnfHXx7mov5gmgND836CpVFn16vC1NNnajMPh5VRiX5UIgjW7/F09mtu1fITYOTk4u5uOxoTgvPGdp2ZoHW4OWDgDYvBgQyo2AYpMjwtf47+H7XHWwv4uuMUJJv1byZiBnis5030l4oKX5AB3AwwSyVCLoggi5MG0EH+AVwSSnnOrtyKXNC1dw8+DRrcz3Tut1ChsF9sz7BodYiOoobh933PJnR2qc60sLdhWc5adOPx71Nb8deQDi7bG8+VHkix0f2AN+lUBwgp3O4L6r0K6L6gcbXPiGtiJmVhCL1/CVzF+9o++2YYukPQwY4BXhw5HaT/lcQQRempqBHhzq4/XfWNZTZMaqNKMrXZHEoag9LWXR6g+BPznb7bO0JfKf6Qvqyq/EMY7d7s4/PSvdJqCiRSD1vbv8etw6s3KW/f1h8Fl+pPYNTokvBdck6PWR05qWEOiO9mRpwtUOMMMnYPL7XfwOf3Xrrjl7SFwj2nSOCLoigC9NR0AEOBO4AKifqdw0Fp1fsy0Xx/dnHnkHMiKA8TZEijvYIKYut3iCrvF7uyq3lltSzpL0Ck+HVrw0lWDPrv0l4Jr1e/5Saan+dqGuXGruR59nGcZsup8PJ7IJ3Dr5YeyqfqTyZCh0l7/SS9jNoBSbmmK8/YZQTCVdwRvvl/H3whfFe1g3AuZTgzSj9ryCCLkxlQYdgPf1XQxb7DlEXSvDj+gs4K7Y/Ic8DL8NLprgyXuw1QZmgIriGx1pnC4+5Hdww+AT/GFyOvxs/ge/Wn8Vnyk6jr9iOnuKbv3x8TK2pjC3gKz3X8/XOf+zU36sKRfhh/bs4P3owuAN0e6kgt/wOOBP6WlMTauRxdzVHbbqSwhhC9A6RA94yNGgdFel/BRF0YaoLOgRb2S7Ykd+bFa7kT00f4hBzPqnCZvI4Qdau7V0bwS5iG0WZkQQrAcrjj7ln+U7PbTyTad/l7bUkOoOHWz5P1HEZ8NMl5Eab/Ljaocasotd0WLrp/9FWHNgpvzMvWskNMz/G/lYLqXwbBdwJWarwtU+ZmSAUquTMLd/nttSqsZ5iK3AAr4jXLoIu7CpkH7qwu3iYHdhgXWnH+WfLJzjEmEN3fjUF5WApgxddnl77JxB1hQt0+QN05jcxUOjlvMhBPNT0Wb7feDbN4fJd2gCfrTiGJHEG/ey0EHMIgs70uX3UmFWcmtxrp/zGIfFm7m3+AvsbLXRl10+YmAMYyiDrZUFrjk4uGs8p1pUq5oIggi5MFx4Cxme+Kbh6xlvZw2yhv7gRDBsDo+TRgYmBZYQpUqAnvwHb8fhU8gzubfkCH6g+fJfc/Ey7jBPi+4CXRWtv2jxUBXiGAqfApYkDsYyJ7WLOrTiAfzZ/miY/QWd+LWonOBE6uOA7nBjZm3IzPNbqD8inLYigC280nmWE/bkjsW+kkbfGD8EtdOKq8WYB15iYKMOmz+tnIL+RuTrBT+ov4ZdN5xMx7Z1688dF5zLTrCHv5UFNr8CpJiY5r5/9Qy0cEpszYef9TO2JXFt/CRWuostpwxgayE34oEQZuG6Gfa1a9gzXje2lCmaeBEEEXXhD4QOPjafi2xN7EdY2WV2ckFzgpjJxlKbL2UY+u42L48fxt5aPMD9Ws9Nu/uTk3qA1WT/HdMtuooACHqaKcLDdPCHn/J/60/huzbkYxTTdbheGsndaHniFIuNnUSrEQbHZY6maJUhIJAgi6MIbjrvHWsEyDE5ILgZdxNHOhImhgcJUJimdoy/fygnWHtzb/DkOjM+c8JtOmjYLQzMJ/ML9aZnY5EU3xAY7ucNn+kTtMXy16lycfBc93gAGOzcXvEJRxAUMDo8uwCh9BuUpoE0+a0EEXXgj8uiQVVMye0dmsNBqwveLoCbeQ9jEwFcG3YVNzHQj/Lvli5xUtnBCf6PeLqPFTIJXnHbT7S+i0eC5LAzX7NCY6/TyxVxR8x7yua30+oM7tCVtzHgOc1QlCaPkyH23Ap581oIIuvBGZMOQqJfMbLOKKsK42oWdNuUKyrDpcrdR5ij+3vR5zqhYPGHnrzMS1KsYrl+Ytg/WB9AuC40qouP0R1gam8m1DZehiwP0+31Yyt51N6BMXC/DnqEKZoRKnmW4Wz5pQQRdeKOigRvHUiGuQoDC38me4QowlEVXcTNW0eHG+g+wf2xipt8brUrAojiBSwaTkyATW62RGHPN2ZFKbmm4jArXptvpwFahXdpSCsjrImUqzjyzupQqq4CN8kkLIujCG5n7x1J4RqgcMF5OtrFTO3WFYdj0OJsJuybXNF7M3HDVDp83YtqgdDAtPY3Haq7WxEIJGsMVY6ppK8Uv6y+k2Wyg19mKYdi7fJ++IkgNC1BmREqp8legVz5nQQRdeCOzCSg5ifaSRD1ocPydN+X+WlFHmXQX29mLGfyl+aM0hHbM0cscig423WOEKYJIaHqMvg7fmnE6b4osZbCwFZSxm4LuKHw0YBI3Rt2LroE75VMWRNCFNzop4JpSFSLqWKA0vtp1kc8VCmVY9Drt7Gs2cWvzR6i1Y+M+X62RAB3MMqhpPOWuFPhoHF36bMoJZfP5WNVbKBQ7KbD7liTUiwMuZVBujvqsVwDL5FMWRNAFAf5DkNRiVDso7O2eXOEK0MqkP9/KgfYi/th0CWXW+K4lacfAUPjan8aPVKEB7Wu0X9p9VpsRrq67gJALA97ArvVoH+m1G30nQivQLZ+xIIIuCLASuKcUVTVNMzCddsN8tULhAIO5jbwpehjfnnH2uM6T8fKg9U4LjDJZMFE4Xo6uYrqk8h+rOYEF9lz6C5swlLVbW+eVr5eLO1pxl+m/giKIoAtCSXjALaX0soNmBtQrpkR3tUgpg7xyyOU28KGyE3l75b5jPsc6pwe0T1hZ09wxzqJDD9Lhjy7o+8Zn8qWKkyjkt1JU/uQY7ChA++SLxdFKFuQTFkTQBeFlbqOEKFubin1DUrH7pmMtLNJeGr8wyOW15zEzVDam+lvdAcAf2lc9PQXdADBtniy043juqML5w9q3Y3omg94gFtbkuREFzuixYlz5fAURdEF4mXbgn6MWKgyABksZu1UMTSNEt9dJM1X8eMY7xlS3203TowvYRnjaCnqwO8BgTWH0peXP1BzLUZElDDgdGIY9ae7B1ME7VjRG9QGQ6HCCCLogvIargP6RCuR0MZhy3+0hUzWGssgUtvLm+CGcX7F/yTXXFXt5xNkEZmRnRK+dJGIIGp8N3oiPk4WRGr5cdSbaSVNUkyeuvUYTVib4RVrdUbeXZ+XTFUTQBeHVLCNIqzosfW4WtIelrEnw8SiyOODm+Fr16USt0qxLV/v8I/0MKEXEiEy7dXQPn4SZYJPXyT25NSOW/XbN6ZRRTr/bj4k5ae4hEPQIW3WGTU7faMXXyKcriKALwvZFfVi6/QwZPExlMRmmq01lMOj2Md9q4TNVx5Vc777MWgZ1lqgRQevpJejK91BWgt+ln6Z7BA/3w+PNnB4/CM/px5tsgxrto8woW9wMKXfUHZUi6IIIuiBsh00jHVztddOlU8Ee5UmhAYqidsErcGHyMEJmaZPGy4udPF3YgGFEUNPoM/TwSRgJNDluSj01YtkLy48gTJgBb3ASLKFsr3c0We51kvFH9HLPAn3y2Qoi6ILwep5iBK/hzmKGJwtrQVmYkyTwiFKKrNvPAmsm7604tLRKPvw59QS+solMktmGCcH3iIRq+GvheZ7PdQxbrDmU4Jz4fmg3g4c3qSLm+UAEG/C5O7MSb+RH0w9sk89WEEEXhNezChjeJNJwV2Y1KAN7kmz7UijSfhb8Il+tOoOZdmmx3n8z+CQbvTbiRnxayLmnfZJmEgyPH/fePWLI17PLD6barGLQ6cVQ1iS7E5+YEUNrhxfyo2r1amC9fLaCCLogvJ4u4PmRCjyZ30JK5wlNotfXMCz6C9uoN5v4QPWxJdXJukV+PHA/2EksPbVt9CCNCUTCddyUfYy7U2uHLRs2DN4e3w88l7xyJ1+8PK0xrThP+dtYVewarfQTyD50QQRdELZLkVH2oz9eaGOt04atouhJIgcGiqLy0U4f700cRLUVLanez/ofYZW7kXK7FlcXp+xD87RLhVUJyuXy7n+PWHaPWCOH2TPJOb1Dzo2TaWCiCakQGDY3Dz7BoFcY7V19QD5ZQQRdEIbnzlHUgxvTy8EKY0wiu9ZUFv1uNzPNWk4v26+kOhm3wPs7bwA7QkIlcfTuyzC2IyIYVSGMUDX/13srD2VbRyx/adnhGCpO2s9Nunj2Gp+4GcOjyF3pF0Yr3s8YUv8Kggi68EbkBYLIccPyx/TTZPwBEkyefdwKhaM0eEU+XnYYtlGa0959qTV8rfcvxGMtRLSFP6VmcBVaeyTtBu7MPcGXum4fsXTCDHNmaD64KTDMSXc3hjYwjSj35FfyeGHLaMUfBzrlcxVE0AVheLqBm0cqsCHfzd/yK7FDVXj+5BFAEwvXTbGXWcXsUFXJ9b7a+Q/+lX2I8tg8DF/hMzVSq7q6SI01g1Z6uKj9t3j+yIOrBZFaZpgJipPQOgdN1AjhGSa/HnhwtHvxgR/LpyqIoAvCyHijCTrAlf0PgOETN6J4k0QAFZDBxbQSHBBpHouW8PYtv+ApdzVVkVkYWk3qCHIaja8d6qwZpG2Pc7f9jK3F1Kj1DonMJmSWkcWbdHLuA1EjyfLiOm4YXD5a8U7gXvlUBRF0QRidx4FnRirwWGYDN2afJh6uB3/yxBrzAVOH2DtUP6Z6acfhvC0/ZY3fRlWkBaX1pLTUfXy071ETmkXGNnhr+9U8nNpYUt0lVh1KM+nuSgNhrcCOcdXA/Xj+qFf4JyAnn6kggi4Io9MP/H1EYdHwje7bcAyPMrMST0+OqXdNsI6+dIyCDrA618PZ7T9jo99OVXgO+OBql8ngKKcAFw9LQ01kDp1WkbduuYq7BkuLfKoMxYGRBvAnlze/QuHpIkm7hhXFtVw/8HQp1X4rn6gggi4IpfNLoGekAs9mt/KLwXsIh+sIYU6KaWoNoIssCTVSZcfGXH9ZdisntP6AB9znqYktIEoYVxd2850FIW6jOkRFZA5P+5s5ceM3uTNVehjzWXYlc8xatHYm1WKCi0tcxcAK8aHOv5D1Rh1w/BFYKZ+nIIIuCKWzEbhutEJf6vgrG7w2KuwZaL37J3MVmqL2qLGqOSjaMq5zrCv0cmrrFXx38GaSsUbq7AZMrdH47OoQND4+SrvUmlUko41cm72fkzZ9l+dyY4t4Os+qImYmcfBRk0TSfTSGD/FoCz8bvJv702tGrxKk+S3K5ymIoAvC2PgGsHWkAv1ukU93/RHPMig3kpNg3VlRwCVGhMNDLeM+S8Z1+Vz7X3jHtqtZTicV4UaqjTIMTLT28XeiKGo0WvuYyqDaKKMy0sImleadnT/horbf0u2MPQV4nZUkgo03mbLLaY/qcBMr3E18seuWUmrcCjwqn6Uggi4IY6cT+Nlohf7av5yrB+7CjszA0sYkEHUN2iPm73gktD/3PcXhm77Ll/tvZqvlB8JuVRNRYbT28Cco+ahG4+GhtUcIm2qrmvJQPR0WXD74Tw7f/H1u6H0Sf5w/lghFsBSTxnvf812qrFqwFJ/Y+jt6nXwp1a6EaZbAXpg2WNIEwv9n777jJKnK/Y9/qjpMns0RNgC75IwguEQBkXj9oSIiKIogXEFBDFcBUfSnIlxBQBEQUVAkK0lAAUEBCS4578LC5jQ7s5M7Vd0/zhl2HbqqU/XE7/u+Wrh0dU31qep66qTnDAM/Az4HbBa20TdW38U2ySkcVPsB1vYswHMTgzzX2ceJR5M8pSOT4oer7+ePHfM5rXlPDmv6ANskp9Ho5fByXXTmOuj1s2YZUsdhw/8FPm6YWjg++B74UOMkaIyNwY3VgxvnzewKbm69nxs7nuP1kJXTitXgJHAcd9ADuoNDxs/SEGvErZnAGauv5sHOhcV89NdoqpoooItUFs+Ar2KaOwOlchmOXf5bHp01me1qNmN1ahEMUlD3fR98p+hsccV6q2cNX++5mwtbH+aoph34f4278+HkbJrjU2j2HfCzeLle0n4vKXJk+pLuOBsHNJMAJ+G41Dq1xOIN4MbB8Vmf6+Af6Zd5pOtlbmx/lpVFzC0v1sp0Bxk/h+u4g1bHdXDI+lnqidNQO5VLW2/jirVFpWNfBpyjn6IooItU7m7MVKETwzZqyXRz6JJLeHjWOcypmU1Legme4w58UHcccKEnm6rK7teku7i25UmubX2SnWumM69pLvOSc9gsNpZZ8SamufXU+nFwk7zXs+bb/3F88DLgeLR4XbyYWsYibz3PphbxaOcbvJxeVZWJ4sszbXT5aRoGsdUk42eoI0Fj3Syubr+fs1beWexHz0ZpXkUBXSQy3wTmAXPDNlqSWs+xyy7jjk3OYGbNTNalluI5Hu6ADRnxiRMDfN7111f3T3nwfM9ynu9ZzpXOozS7NTQlapkRH880p5kt6iczPt6Am/KoJUEyEWdhroV3U2to8Xp5J9vC6tR6Ov1M1WvNHbkUGS9NjBh+SHdAdc6Ij+dnaXKaqKubyjXtD/Kl5TcX+52vxiSSEVFAF4mqYgp8B7i10Ibzu5bysaWXc8v0k5hTO5v21BJSfnrAlut0cEj7PmuynQNWOJ4PbbkUbbkUS7APEh1D5+S1+SmyZHAH+Lbj2QGKk+KToGYsP2n9E99ecVexH59vrzmRIU+j3GW4uQ24oJgNn+teymFLr+CJzIs0186m0Wki56UGZFBW3HFI+RlWZzp0xqzWXI9dSGeg6uamvzzue0xMzqSzpp4zVl9bSjDvwgzGbNHZEwV0keo4H7iumA0X9Law37s/54K2W6mrm8jE5HR8L1fVxVx8HBIkWOut5dnsCp2tvhp6rpv56aUQq6fa7fs+kPVT1Dr1jK3dnBe8pRy6+EKuWPtYKbs4DnhFZ04U0EWq62TMQLmCsjmf81few8dW/JzFbhcT6zaj2amtXtY134N4M4/0LqIz3asztVGIvKrjGXBdaohV6ZHKLGiT8B0mJ6fTXDuBn3fez8GLL+axzrdLCeanUWBWhchQ4/i+ciRIRBeTM+Cjl8cBtwMHFPuB6TVNfGfiEZzSsBcJP0Yq20aXn8H3c+/N365E1s8yOT6BVjfNHkv+l4W9a3RhbCTmONw38zQOTu7AmvQSXCdRcQO8yWrnE8Ml6SRoiDXixWt5Kr2Ac9few8Mdb5S6y28AFw/IM47uv6KALgro75mJGYG8ZykfOrBpa7427gAOqNueOs+FXCftXjdpPw2Oi1PGRLeMn2aMO5baugkcs+Jybm19QRdFHtvWT+WFGefiZjOsya4i7tSUXNa+rYvj+ySIUxuroyZm5tO/mF7Ele2Pc13bv0jlcqUe3jnAjwas0UL3X1FAFwX0/zANs4jL/qV+8Mgx23N84y4c0LATk5xm8NJksl10ep1k8QCTeS1sJnsOD7wMDe4Y6hs243stN/D9lffqgghxyoR5XDXtdPye1azNrMR3XGJOPLCMvfey2vk2MY5Lo1tPIt4AThLfyfFA6hVub5/P9e3/Jp0taynd04BfDWQ56P4rCuiigP5+jZiBcp8o58M710/niKYdObxhF/ZMTAU/aaqBXoqs10OX10uaXJ6A49Pg1FGXmAw1jfy45Sa+s0Jdr8U4a/KB/HTip4h7cfxMK+3Z9baMNy5lBxeod5IknCQxtxZiSVtHz/Kv7FIe636Nv3e9yX1db5SbEGc9ZjT7nQNdBrr/igK6KKDn52KaTM8BasrZQVO8hh3qprN/3ZbsVDOL7eIT2MxtoD7WCCT77sJ25pUDDvheDw9mlnFjxxP8tuXJgf/SMZfp8WY2T05gE6eJOidBfSyJD8RxGevWUu8kqYsniOEQJ4YPrM91sz7Xy6pcB+1+Cs+HFV4HC1NrWZ3rYCDWt9m9YROOG7sf/1U7h83iE8GPv/egZBa4ARwP/B5avTSLvHbmp5azILOCJ3ve4fneZXRUlo3vH5i0ws8PxgWr+68ooIsCerh5wDXANpXsJOY6jHfrGZOsY7faWWwbn0qjn6DWTYAD671e1ntpHu15kxd7FtPt5ar6pVwH6uM17Fi7KZvHxjEl1sSWyYnsmpzG1PgYmmLN1Ps1xPFx3suX7tigaB9CfIcNI/vtA4mfI2NWBqfbSdGeWc+iXAuvp9awItvJGq+Tt702nu1ZzJp0debVT0s2M69xDtvHp9HgJEiTI+vnSOeyrPY7eSmznBXp9XTkelmX64lickIOuAL4LtA+WBeq7r+igC4K6IVNB34KfGY4l2lzrIZd62ewW81s9qidwY7xScxMTCDh1BLHxfFsXnZyZMiR9W1fs414vg0avuO/Fzx8E8rNamx2fEDfCIEYDgknBk7CLNiCQw6frJNhVbaFe3oW8mjvWzzTs4hFqZbhupDoQuDbmCRFg0r3X1FAFwX04n0es7DGdsOpLOfWTGCvxrmc3Lw3eyc2BZJmfnu2hx7f9OdvWAK1L0gH/ZYLnRe/3//n2ICP/TefOC6NTj3E68H1afc6uK33dW5re4rHexbRXqVFaCK2DrgFOJchkv1N919RQBcF9NJMAP4b+BbQMJTL8JCmLTlh3D4cmJzDVHcseDk6M2300mMCreOUNaUuCh4evu+TwKUh1kgiPgbI8GRmKX/uns8tbf9mUap1qBbt7cCFwDND6aB0/xUFdFFAL88uwDHAKcD4oXRgm9Q288OJR3FC0z7EcmZefGe2nW5SuE58kEJ4cH0+Rw7X82iINVAXb4ZYA+96LVzU8md+0fL4UCra3wO/Af4+FC9I3X9FAV0U0CszGzgEOBXYebAP5ssT9+V/xn2UTZ2JZLKttOc6TdIUJzakAnlQrR3fI+kkaI5PhOQ4vtdyPd9f9cBgHVIOsyrfjcAfMKPXvaFafrr/igK6KKBHow7TDPtlBmFdg6TrcPHUYzij+UDIdLEu24ZPDpwYw60kPXx8P0ezO4aauon8z5o/cOGahwbyEJYDj2Ka1v8JrB4O5ab7ryigiwJ6tI4HLgKmDlgwdxx+PeNznNBwAKmeJXSQwh0BayVl/QxNbhN1tRM4fNml/KX91YH4szdh1ixfNNzKS/dfiZJWWxMx/awHAw8O1B/87NhdOaHpYHp7ltPu94yIYA6QcJJ05Noh5/Hx5l2p8jNeG2YWw6eHYzAXUUAXqY6XgcMxI+Gz1fxDzbEkXxz7YUi30e51EHPiI6YQfXwcJwZ+lqRZO6Va7gP2BX6rS1dEAV2kvzQmGc0+wL+q9Uc2qxnPLjWb4uV6cVxnxBWijwdugpXZzmrsvhP4CiZn/0u6ZEUU0EXCPAkcCPwAiHxidVuul7W5blwnzkjrQs36OeqoBdfh7z0LqlErPxi4HOjWZSqigC5SjB5Mnu/DgLuj3PG7qTb+1PUsJMeRJIbHyIjqHh5x36epbnOu6/gHf+18JapdvwWcZc/Fk7o0RRTQRcqtrR8FnAw8F9VOL1r7AGu8lYxNTsev8qIuA8HHx/dyjK/dnNeyb3DWilvJVv6cksGsT/5h4FJdiiIK6CJR+DUmGc13MXOeK6ulp9v5zIprSMc8JsTHmQQtw7p2nmNSYhNWux0cuewK1ucqzu1+G7A3cBqwWJefiAK6SJTWYPrV9wR+QoX9639rX8Dpa27ATTYx1m0g52eHXeO7D3h+jkmxSXQmcnx++a94q6fsYsliksPsDxwHPK1LTqR4Siwj0V1MjjPavvJs4OvA0cC0cndy9qSDuXjicWR717DOayXmJOwqZ0O9Vu6Dn2VifBJeoo7PrLqGm1rnl7OrXsyiKRcBD2BmG4wKuv+KAroooA8tWwBfAD4ObFXODs6cdACXTPosXm8ba7OriblDO6h7+Hi5NJOT08kkazhx1bXcuK7kCnUvcD9wLXDPaLxwdP8VBXRRQB+apmJWc/skpv+3JMdN2I0/TDkVMhlWp5YRc2NDMqh7ePiex6Sa2ayLdfGp5b/kwfY3S9nFakwf+W0M0VXQFNBFAV0U0AWgCTgIM83qGKC52A8e0jyXK6acyBxnEp3p5fSSG1JpYT086klSX7MJL3rvcvzyX/FS16piP/4SZinTB4DXdJkooIsCuiigDydbYFLKngtMKqqaX9PIJZOP5dj6D0Cmm5ZcG+CDMziLqfr44Ps4xBifGIcfT3BV5xOct/p21qZ7it3Ns5jsbsq5roAuCuiigD6sHQbcAjQUs7HrwpkTDuDr4w5lmjOebLqF9V4HvgMOA7O8qg/4fhYHlwmxZkiO4+3sMn7Uej/XtpSUGXcJZi7/87oMFNBFAV2GRUB3bRiQAJ8AbgQSxX5gTt1ELpxwJEc17k7cT+Bl1rM+20bG8Yg58ar0sfv45PwsCT/G2MQ4nPgY1jud/LH9Mc5d+xda0l2l7K7NtlA8odOvgC4K6DJsAnrM/punwgh2JPA7YFwpH/pI05Z8fux+HFW7FfXuGPxsFx3ZNlKkcZwYDpU1x/uYRVV8L0cNSZoSY3Hi9bR567mr5xV+2fowT3WVnN9lMWYMwVM67QroooAuwzKg+6qph9sLuBmYUeoHd66bxrFj53F0/XbMjY0HPwG5Xnq8TlLk/qPk/ff+1+kXujfU6x3A8aHOiVMTa4BYLZDhtexabut5gVtan+Ll3lXlfMfnMOuUv6HTrYAuCugybAM6qqkXthNwA7BDOR+ekmhk94bZfLR+O/ZObMqWickk3QZing/kwMsBWRvi+0K4jw+mB96JgxMDJ07O8en2Ong7s5anMyv5U/cLzO96h9WZrnK/20PA8cBKnWYIS8jp+zkVjyigy3AI6KqpFzARs/765yvZSV0swa71M9kxOY2dEtOYGRvD5EQDUxJjqPFqcBxsrngHfIc0KRZnW2jJ9rDS6+SZ9DL+nVrCaz3L6c1lKzmUHHA1cDZmtbrR/ovo1zqigC4K6DJsA3rorSzg30elL2Fyw4+NaofxRJxNYs2Md+pwHIc0OdPL7kOb38viTCvkIi335cA3gT/ol1A4kCugiwK6jKCAjmrz/+mDbFh/fbi5GbgAeFW/guKDuQK6KKDLCA3oCuyYztYvAV8D5gyD4/038P+BP+vqLz2YK6CLArqM8ICuwI5Zue1LmLXAJw/B41sMXAJcD6wbvVd85Sl5FdBFAV1GQUBXYAc2BU7BLPay9RA4nueAPwLXAWtVE4/g6lZAFwV0GT0BXYEds9jLCcBHgd0xq7oNlGXAy8DtmIQ46VF6dff7Z0RXtQK6KKDL6AvooHntAGwP7I8ZRLcfZSSnKcISTKrWf2LmlL8+yq/syAO5AroooMsoD+jQPw/aKDcH2AqTpGYXYFtbe28G4kV8PgW0YprPX8UMcnsesyLaQhVvdWrlCuiigC4K6Kqth0kA44E6IAlMwSzdOsY+/XhAxm6bAd7GNKengF4b2DMqxurXyhXQRQFdREREArkqAhEREQV0ERERUUAXERERBXQRERFRQBcREVFAFxEREQV0ERERUUAXERERBXQREREFdBEREVFAFxEREQV0ERERUUAXERFRQBcREREFdBEREVFAFxEREQV0ERERBXQRERFRQBcREREFdBEREVFAFxERUUAXERERBXQRERFRQBcREREFdBERkdEhriKIjuPE+v51GrCV/Xe/2I8DaWAN8K79dxnZxgG7AjngaaBbRSLF8v1cKfckgJ2A8faeVMx9ybHbdQOLgVURHPaeQDPwJvBOsd9DFNAHyyeB84Htyvz8MuA1YD7wJ+ApFemItB9wEbC7/f8fBc62510kSg3AhcAJNpiWKg28AbwK/Av4PdBS4j6mAJcBn8C0DL8N/Az4NZDSKYqoUun7vkohuhr6qcCVEe6yDfgzcDHwikp4xNgaeAZo7PffVwF7AYtURBJhDf0HwLkR/ulXgJvtfoutON4EfDzPez/0/dx5OpvRUB96tL4S8f7GAicCD9qav4wMB+QJ5n21mH1UPBKhibZWHKXtgAuAe4Ftith+GvCxgPeO0SlSQB+qGqu036n2Cfd0FfGIv07GqXgkQk1AbZX2fZgN6rsWcf/yghoRdIoU0Ieq7iqfq8uBT6uYh72wAY8aISRRygGZKu5/M+AOYHLINpmQWKMYpIA+ql3JhhH0MvJoUItEfT1V+5qahRnr0xTw/mKgPeC9dTpF0dEo94HzKmY6WiLPex4QA2YAWxbYzxjgF8BBKlIRqUAaM4umM899ybf3pXpgLqbZPMxemFH0vwwI2hcCP+n331cBP9ZpUEAfbjx7Md9O/lYRH9OX1Ghr398GDgnZ34HAEcA9KloRKdMq4CTMVFk3zz2pL0aMAT4KfAvYPGR/52Cm2q7I896Ftpb+Fcxc+CcwA+ue02mIjprcB66c+xI0dOZ5ddl/rsTMRz4S+GmBfZ6sYhWRCjhAa8B9qcu+1mOazK/GzM54ImR/023gD3IlJu/C1piR9wrmCujDVn0J22bs0/AdIdvsgZkOIiJS7v2/roTtFwPHAatDtjm0wD467UOEBn8qoA9r5QxMOYvgjEyTCW+WFxGJ2rvAD0PenwdMUDEpoEv+J+InQs7dTBWRiAywW21gz2cqZiqbDAINihv6nsD0qedTSSKbWmBn4IPAJpiBL3GgB9OktgCTt/ndPK0LRwOHY7oG7gPurOA4kphsU/PsA8pYexwZexxv2jJ4l+DkFGGmY7LtbY0Zo/AH4IU8x7At8AF7DBOBGswo4FZgqT2GVxnYRXMcYFNM9rg5tubTYMuhDTP46CXMSOWOATqm6faa2QbTStRg/3sXsBZYCDyGGWhV6XSpwzEDQB3gYeDugO3GY3Ljb4nJtlePGfD1J+D5kP1vgenL3QyTW/x35F+ApAbYBZNAZbq9Rj37PW/Js/0OwBftb+o5TP9zT5llkAA+j1nUpBu4C/jrIN+TVmLWm5iV572s/d75bIsZCT/Wlst1VHeO/Ojj+75eEb3AfR1cP+B1sqlUl/w6KWSf/1vG/qaAexq4T4HbG7LvHLit4P4W3H03+vy54GY32i4L7tllHMdYcE8A9yFwu0OOw7PHcSO4h4IbL+FvbALus/321w7uRzcqi5PAfaTAMfj2/YfA/Ty4E8s8l32vr4b8nUPtNgeDex24LfZcBG2fBvcNcL8H7twKjyvstSu4V9rjyRa4btbaY/8IuIky/963wM1stN8MuBeC6260zT7gXg7uuwHHtLrftbvxa3twF/bb/jlwN99om2ngfgncJwN+KzlwLwM3ttFnDrLff+Pt7gW3powycMD9db99pcA9Fdxi70kz7PWR71wts++Xc37uDrkeP5Jn+3zlcie4Wyl2RBiDVAhDPqBfFrLPH5a4ry+A+1qBwBX28HCg/cH2f68N3K1LOI4Pgft4mcfxR3B3K/LvXB2wj9fA/TK4r5R5DM+Ce1wVAnrOntOLyzyudeCeB+64CAP53DxBpZTXzeDuUuLf3A3croD9TQW3HtyfFfn3HwW3MU+gDApIv7DbHAHugiL279ltAbcO3BcDtvtyGWX/0YB9rQV300EO6I+FBPT9+21bF/Jbu12xI7qX+tCHvr1D3ltf5D5iwLX2tXWZx/E1zCIxsTzvjbFNo8U4Evg78KEyj+NY29R5JoXHgGwb8N+3Bq4Ieb+QXWzT/a8CyqPsBjPMXN6zy/z8OMzc3gdss2+lPm7P1UkV7OMY4J/AqSV85oPknxWSBv7HdvGcVcLvZ9s85RSUwGkvzOqGd9tujmK6Rfqu5eaQ/uMPllF2u4V0MRw4iPekecCOAe95trtlY7MIzm65o27x0VFAH9pOBLYPeK8b+HcR+xhv+92+UOVrppg1jffEDKhJVngMtcAl9gGlUICspi/Zsh0b0f6iejjYHfgbsG8F+zgTuA0zvqJSDZg5yOcXuX0qpD/5q5SWJXERZgxE//14IQ9rpT5QLdkouAf1lZczTasnJGgO5FiOfA/3QWleX8IM5t1YfcjxDub3UECXimpfpd6U/5f8qWKxP5pHC+yjxtYkDxuA75cp4lh+bf8Z5QPPfiHvD8Rc18OAGyJ4SInaFFvL3K3Mcr2kyG29Eq7t7wFfL2K7XEhtuFRXA8vzXKtRXRvPAr/f6DeeK/P3EVS2Qf99sAaTfQUzKDbII3keyDKD/BsdNTTKfeCC+ZoSajMH2BrN+JDtbqfwqO+LCM/ctPGPqsP+s4byRs8Xutkeg1lHudBxtNkbQA3FLSW6fxEPNqVKY0brxosM1EdgMvudWeXryAN67YN4MUtiNgNXYZpni+2e2dU+eIVpw4wefxwz8j+OmTGxO6apf0zIZ3+MGeH8UJXKqNVeP132u18U0YNBn277SgHPAOfynzMMnAgfRir5vRUjS/40rUEPiGdiujzC3IkooI9wjg08XeRvVvVsTXx7THPiwQX2t94G/DCHUDg97CpME/gTtsbfi2k+3g44imj76b5Y4P2bMc3Xr9tyGovJhne0Lbsgb0d4jP/ETAl61d60GzD97R+hcPP1qfazf6nC9fMaZnrgc5hEQ0nMQj6HAB8mPAvhbsAPbM2qENdeV2FN/9cAv+X9+RGut//c29bwPxdwf4ljFvDYyV5vUXnGtpQ8YwPs0hIeYorRZmvif7FBsA14Z5jflxqBT9n7QCxPJcTDTOHcDdMSVWjMyZ+Bp3W7H8yqo0YGDtQo9yhfpxYYgVoD7vwC+7gL3B0L7Ofj4L5T5DGdGLKfOju1KGjEbqEZAJ/KM/3MtyPl60M+90iRx/4muJ8ocAzHFXF+XyxwPBQxba3/63xwJ4fsaz9w7ytiPzsWcVxnFZge94USR2i/GrK/74Z89sQSfw8/L7Lc+14TwH25hP0/De4Hi5wSujJgH9eUMZL8zJBz8ckIRrlH+VoH7jYB32OHkGmhLyp2aJT7aHYLZnR1mI9hBvcEuRH4L+DFAvu53bYYvFrhMY8neLzGU7bWV6j2fgjwHUxSmNcxS8h+ytakK/G0/Y63FdjuRrtd2OIUO9hjikIPJunJ9wnPnd23mM9VBfb30yLO0VkhXRAnAb8p4fjvty1NQeX1OaJJEfpV++qu0u/tr/bae0q3nlDn2ZYkGUQK6MNHxjb3fbaIbT9JcB/bv2xTfLEDmRYCX6ayTGSdBPf37wl8hsJ91Wsw/a8H2Sb403n/6OVSvYXp219c5PZLbZAN+7vHUnlXlg+cYh+oipG1Tf5hi/l8iPBpWEfZZvx8rrPN2aVaZq/XfGlCN6fyLp2Lgcuq+JtbiOkqatXtJ9RF9gFbFNClSMuB4yk8PWwGwXNec5gpOaXWZh6h8ECpMOsxfY5BNcMbMH3Ep2H66SaF7Gst+dNzluMHBOekDrICMxAqyB7A3AqP6zdsGDlditN5/xzgPk22VSZI0EyIRfaBrpKHppPsQ11/lUyrewYz576avs2GKWnyfmn7W/imimJo0KC44WMWplnr7AK1620x+b/z+SvFzV3P53JMHuaJZX7+doKTSDiYwV0ftjX5l+0NewEwH9PMvibi8nwek7u7HLdh5uLm+z5jMd0d5TY/ZoFLy/zsCntsXw14fx/MVMj+JoScm3/Yh8QayhtZnbMPGa/kedD8AGYkfnuJ+0wB36C6+etvp3A3zGg2H/iJykgBXcp3FqZv9ZyQbcKmht1L+fNXF9nAWm4z6c8xzZczCmzn2uCyY7/g+6i9eTwW4Q27XF2YsQw7lnEOCnnIPsiU63e2pp5vpPrcgAC6EzA7YH+HY7o5yk1605cEJd8UxC3sw2epYzTuIvqpihvrofgkOKPNY8A99vfcq+JQQB+tXsD0ycXz3PAcTP/m9kXs5zuYvvTHA94Pq0G/WOF3eLyCgL4e0596P6Unl9nZvr5gWxl+hEnoUa4slQ9yerJAK0mS8rJgPURxWfeCvIaZTrVFQOvBJnkC+viQczKxir+JMZSe86CL6vfX3m1bFEa6XkwLTDv5E1i5tgKwCNN18jwmE1ynbucK6KOZB1xoa4VOyM1tD+C/gUML7O/7mIQx2TzvBfU/p6l8JHClc74fwcwr/12ZgaIJk198fxvUf1bmceQovZm3v1ZbpsmAwFlTZkBvq/C40jao5wvoCfInpKkbpN9Foox70EtVrp1nKDzrYqRYhRlMuZT846kcBj/NrJRAg+IGrpzj9oeRCnitxjRlHYUZHNYVsr8PY0aH5xPUNOpTeW7zXAT7+AsmXesjlL9G9ARMX/D3B/GchpWnQ/mZvKLIP58JOa6gG/dgWEDpgxIfqPIxrWb0TFGLYcYhZALuSb0K5grokl+xtaAsZp750SE1aofgbHJBU2xqCM4LX6xpEd38X8Wkt/0kcFMZN/U+37H7KOe6r63wO9QS3EzdU8GNsC6C3/TckGsrX79nb4GHuGp4HTiD4FH5Qbqr/DvtIn/LV6W8Mj5T7cWFXAavdUaqQE3uA1ujK8VfMek0g5ad/EBIDSPIlhXWPj4UcZnca1+bY3KI7wVsY49ziyKv3x9i+uU7Srzut6SyptsdCwSrcgcM7WMf6ModvLg5wUuDdpB/tkArG3LX97fMBt6oFtXp65d9rMC1SsiDabVrrfEKvlsswoCu2rEooI8gt2CmijXkeW8re3PrP4DqjZD9HYqZ31zOk//kkIeISr1tX7fZG+KmmNHwfUlndg757FzMSOybSvh7DiZBTLl9pUnCV5yqJLPeUcBMzCCkcnyW4CQ9iwKC6MuYgXT5Es+MxUwhXDFEfhP+EP69pkIexKaUsb8ZiJT4RClD1xsEN6HHAm7cLxM8Z/toW4MrxxcInt8epRymCf4xTCawgzEJdd4KCc77lPF39q6gxWEPgtfkTmEWUSlXDWYMRTkagU+HvB80Mn+FbVXIp5nCaWPF6CF4UONmZVSg9lGRigL66Dg/OfI34y3GjAQOChY/KOM4plF4tbRC6jBpUb8LHGcDRTHWYtZ0/zjB/bmzyzieekxzfanzq2swCTWCzs1LBVpJinEGZuBjqS4NeWDrxczfDhI22Oy/yjye0SbD+9de77MTpY332Nd+RkQBfRRLF7hxf5rCaxpvrAEzzWyLCo6pHrO4yR8xI9P/YI9xhxL20UH4YKVyBusdgBmnUOxnY5gUuPNCtvkzlWcwS2LS4e5WwmfOxaRYDfIyJrtXkNsI7tNuAq7FdPOUaiqmleVQTLbDkSwL/C3k+jwPkwegmIffi2y5iyigjxAdIbXSGMGDZm4gfOT4jzHTvgol9dgTM83s4Aq/x/cxK8BtbD9MUovz7E0/zCz7UBE0IGoR5fetHodJJFIou9v2drvjQ7ZZTnRzmKcDDxfRMjIXs4Z5oZaX8wq8vxK4OuT92cDfbUtJsT5hA1zfOvEPYgY+jmR3EDwgchvMAM69C1xnf8F064iURIPihrZ2TJ9cvprNNEzf5nm8P3PTOkyz8JUh+/4aphn1Vkx/9TJMH+A4e+M5CNNEPiaCa+zwgPfGYhbY+IwNlg9iBme12drJFmyY3hbW9/94hcd4OGaU/Q2Yke8L7MNUMxtWBTu+iAePQkudlqrZPiD0lc8LmDEVSVvTm2cD7Mwigsz9Rfy9n9hzHrQq2zRbk78D+JN94Fiep0a+lz3m/sF/Dmbw4o6YzIEj0QLgCuDrIQH7PsySwH+z13sGMwBuL8yyslN16xMF9JHHx6z2lK8vrQY4EzNQ7XO8f37ur2yt+JCQ/e9sX+1smH9bYwNtMqLv4FG4CXor+zrNbpvGzJlvJv8I/429BtwZwXFOw6wadYYNNn1Z4JoxXQaF3FmghluJ/e2rEzPozrXlUsw5WmYf3orRZc/B3wpsd7S9tpYBb2LGOcQwWQo3w4zoDmpNmWkfkp4bwb/bX2JmpwSNbG/EdI98zl7vnj2ftYgooA+pAFzOe2EeBY4Ief8TtvZ1bZ73Tra170I1uGaKH6RW6vfzMP3UxTQhNhQRwPu7lGiTjdRRerKNF6h80GAxGikt93nWBo5SEvc8aB8ULy2wnWtrlaVOreqyDwDV+I1V+zdcrEX24bDQan5x8i9aI1IW9aEP3ANSuQ9Pd1A4c1XQ4LIltja1eAC+e9ho8V9gcq9H7fdVrBUX61X7ULV2iP3uejHdBOWkSv051Vtt7AwKrzHulHmdlVL+bsjvNIpsiNdTvfXanRLuJ27Itg4Dk/Y3FvJ3FIMU0IessJpduRmu3gauK7BNa8h78zF9wI9X+bsXqlmfg2mmfSeiv3cTZm78YLob0xS+cIj97hZhxgXcXME+LgC+Qvn59vtbjZn+dl0R29aX+V4UD6BRNnufT/hSx5W0IpSSntYJ+c0ORCutF1LeCUQBfYh6usz3CjkLMyI8n8WYaWBhFmKmDf2I8psU7we+TP5R9z0Ul1L2TsxAvEpq6532OD5N+elRWzEDwMpdInM5ZtDTUQQn8SkUcPNJ2wBwbwXlc40t44cjuJ4vx4zIvqfC/fzGPvjcVUKrR9AMjici+F6tmJXG8vk34QsjlepHmJUR34xwn+0Un0lwZcgD5ytlXr+lWhzyd4ZKBsKRwfd9vSJ6gbstuA+D6/d7Xbyhla/s1xhwLwG3A9w0uD3gPg7uB0vcz+7gXgrucnC9PMe68SsF7lPgfhbcevv5X+TZ7qIyvs/u4F4A7mvgZgocRxbcxeD+GNztSvgbjwTsrw3cZnAng/ttewzpAseQBvcVcL8O7owKz2UNuDfl+RuX2ffrwD0B3IfsefYLvNrB/S24e0RwneV71YJ7BLh3g9tdxPHk7PV1FbgfKePvueBenme/14PrRPSdDgR3Tb/9rwV3tyqV4VRwvwbuggLXew7cZ8H9EbirA7Z5G9z6Iu9Jfd91Xb99rAd33yp913yvk/N871fAPUixI7qXY066RMFxYmBGiJ8JHGZrk7+3zYxRFfQszPSfNkyykFSZ+5mCmV++AxsGNzXZptG3bNP4k7bm3duview04FO2hvxH4KoKvk+TrQXujBkhPRMzbafd1iyWsGEN7FJrE49g5rvnqwnPs7WxvqbHDwG7YKaDTcFM1+uwNbnldtsnIqy9NdhyPMaewxsx4wE2bgFJ2nLZz573WfY8dWMGui3GpGx9zJZVtX/McWBbe77m2HM1w14TK2w5LcdkynvY1g4raT08nQ3Z1e7ATMPsjfD77AucgplG9xwm1fBLVS7DMbb8dsHMUJlmm6P7rrOXMGs4fBEzUyVfU/W9wBG+nyv2noS9hk7GTJt7HZOH4pkBvkUeYa/56cBDmNkAbxfzPaTIGKSAHnlAl6EjKKCnMPPb/6UikiFoOxvwgqa9nQ78QoFQ8j0Fi4xGepKVoWgHzJiFoGDeiknqI6KALiIygMZhpg+eSuE5+ydjkvrMDtnmZwQvACOjnBLLiIhUx/6YfuKtbOVpqa19P4KZjtqLGRexPXAkhZfzfQvTry6igC4iMkAmYqb9bbPRf9vU1tRPwQzM9DEDCou9D3+VyrLsiQK6iIiU6EBb887HpfQENt+ksvwEMgqoD11EJHo9Ee7rAsz66CIK6DJqxXTtyyD5O5XP816OWbXtfBWnKKCL5FdD/hS2IlHpwKwJfz+l5V3vq91fgxkk93sVpSigi5hMd/ksJNrc2iL5LMDk+z8KkwnwXfI3xecwmR8XAJdglho+hdKWvRVRprhIC1OZ4oaaicCtmOlDfRYDx6IscTLwJgG7Y1KfjsOMcO8EWjDT2J6lhFTOyhQn/WmUu4xka4HLMC1Rs2wt6HoFcxkka4D7MF0+CcyypjnMFLaMikdUQxcRERH1oYuIiCigi4iIiAK6iIiIKKCLiIiIArqIiIgCuoiIiCigi4iIiAK6iIiIKKCLiIgooIuIiIgCuoiIiCigi4iIiAK6iIiIArqIiIgooIuIiIgCuoiIiCigi4iIKKCLiIiIArqIiIgooIuIiIgCuoiIiAK6iIiIKKCLiIiIArqIiIgooIuIiCigi4iIiAK6iIiIKKCLiIiIArqIiIgCuoiIiCigi4iIiAK6iIiIKKCLiIgooIuIiIgCuoiIiCigi4iIiAK6iIiIArqIiIgooIuIiIgCuoiIiCigi4iIKKCLiIiIArqIiIgooIuIiIgCuoiIiCigi4iIKKCLiIiIArqIiIgooIuIiIgCuoiIiAK6iIiIKKCLiIiIArqIiIgooIuIiCigi4iIiAK6iIiIKKCLiIiIArqIiIgCuoiIiCigi4iIiAK6iIiIKKCLiIgooIuIiIgCuoiIiCigi4iIiAK6iIiIArqIiIgooIuIiIgCuoiIiCigi4iIKKCLiIiIArqIiIgooIuIiIgCuoiIiAK6iIiIKKCLiIjIIPi/AQCiGcev9TQF3AAAAABJRU5ErkJggg==;strokeWidth=1;imageBorder=none;container=0;" vertex="1" parent="1">
          <mxGeometry x="47.5" y="480" width="86.41" height="86.41" as="geometry" />
        </mxCell>
        <mxCell id="orFnFvL_lUQI9brEGb0L-49" style="edgeStyle=orthogonalEdgeStyle;rounded=0;orthogonalLoop=1;jettySize=auto;html=1;exitX=1;exitY=0.5;exitDx=0;exitDy=0;" edge="1" parent="1" source="orFnFvL_lUQI9brEGb0L-14">
          <mxGeometry relative="1" as="geometry">
            <mxPoint x="340" y="395.25" as="targetPoint" />
          </mxGeometry>
        </mxCell>
        <mxCell id="orFnFvL_lUQI9brEGb0L-14" value="" style="shape=image;verticalLabelPosition=bottom;labelBackgroundColor=default;verticalAlign=top;aspect=fixed;imageAspect=0;image=data:image/png,iVBORw0KGgoAAAANSUhEUgAAASwAAAH+CAYAAAAmizNRAAAgAElEQVR4nOzdeXxcdb3/8deZpD2d7u2UdZqh0rAKsorIIoW02Vr2ckEQRBEGFRWuXsEVt/tTruIGAkFABFkUUJAy2cq+I1JqQQWGxQkDpWUKXeh02mTO74/vSZumM8ks58z3nJnP8/HIo2Ry5pwPTfPO93zPdwEhhPAJo9g37H1H+y8Ng52BLPCBZWw+0QeGem2DZfABBuuAdQH7T/tjNbAKWLnshNgHDv0/CCFqRH0J7zkM+Gi5F/7I3e1pw+BN4B3gLeBt4PWAQRx4GfjPkuNiG8u9jhCiepQSWKscunYQ2M3+yCV7wF/bE2AHmMGLwPPAsiXHxtY6VIMQwkdKCaz3HK8itwAwy/6YO+R168BF7a8CS1EBtgR46rkFsVSF6hJCaKKzhVUqA2i0P04efPGgRe3/MuAx1Mfjzy6IvaqpPiGES7zcwirWXvbHuQCH3Ne+HHgQ6AK6npkfW6GxNiGEA/zYwirUjsAn7Q8Oua99SQBiqAB78qn5sQGdxQkhilfKsIZPGwY3Dn4+ZFjD5pNZQz4J5LmCARg5vpbv+KGV5nqfsfUhOc8T2PKf7xnwF+AO4P4n58c25bmqEMJDSgmsdsPgvsHPfRpYQ49NAXeiwuuhJ6XlJYRnlRJY+xkGzw9+XgWBNdSKAPweuO7x+bGX81QihNCklMAKGQbvDn5eZYE19JiHDYPfAnc91h7bkOdwIUQFFR1YAB++s30DYEJVB9bgdd4DbgJ++Vh77I08bxNCVEBg9ENy6nO0Cm+bBnwFiB8Ra7/9iFj7wboLEqJWldrCegg4CmqihZXjGOsh4KdA5yPtnVaeUwkhHFZqCyvpaBX+Mwe4D3juE7G2+ZprEaJmyC1hefYHFn0i1vbEJ2Jtc3QXI0S1KzWwZJ7e1j4OPDgn1tYzJ9Z2iO5ihKhWpQaWjFHKbR7w9JxY2y1zYm1h3cUIUW1KDaxXHK2i+pwOvDwn1vato2Ntpu5ihKgWJT0lBPjwne1rgYk1+pRw1PcOuc5LwBcfbO+8P88lhRAFKrWFBXJbWKg9gMVHx9puPCbWNl13MUL4WTmB9ZJjVdSGTwP/bOpsO0F3IUL4VTmBJf1YxdsB+EtTZ9tNTZ1tU3QXI4TflBNY/3SsitpzJrCsqbPtCN2FCOEn5QTWEseqqE0NwMNNnW3fndvZVqe7GCH8oJzAiqM2RxWlCwDfB7rndrZtr7sYIbyu5MB6cWEsC/zDwVpqWRPw3NzOtkN1FyKEl5XTwgJ4zpEqBEAYeGReZ9tndRcihFeVG1jSj+WsMcD1zZ1tv2iWfi0htiGB5U0XAnc3d7aN112IEF5SbmC9AGScKERsYwHwaHNn2w66CxHCK8oKrBcXxjYBzzhUSymq/SnlgcDjzZ1tu+ouRAgvKLeFBfCYA+co1S3AGxqvXwmzgcdaOtv21V2IELo5EViPOnCOUkVRgfmsxhoqYSfggZbOtgN0FyKETk4E1hNA1oHzlOpTwDtATGMNlTADeKils+1jugsRQpeyA+ufJ8dWA8scqKUc84FJwM2a63DbZKCnpbNNthoTNcmJFhbo7ccadCSwL/BL3YW4bDLQKX1aohY5FVgPOXSecu0PHAdcCmzSXIubZgC9LZ1tjboLEaKSnAqsxejtxxpqV+AC4JvAGs21uGkHoLutq3Vn3YUIUSmOBNY/T469DzzpxLkcsh3wHeDbVPemr7sC97V1tU7SXYgQleBUCwugy8FzOWEycBnwY+BFzbW4aX/gjrau1nrdhQjhtmoOLIAg8CvgGuARzbW4qQW4QncRQrjNycB6Dljp4PmcUof6Yb4X+KPmWtx0fntX6xd0FyGEmxwLrBdPjmXxZitr0E9RO/38QnchLvpVe1fr0bqLEMItJW+kmss+d7WfDNzp8Y1Ufw68ZcDPcl3GhY1Ut64xT+1bHTPKeba6pmENP2YFcGCstauaHzb41ufvnzcV9VBoBjAFGAeYhuq+GIP6Nm4ENhqw3lBPulcAK65s6l2hqWzPcDqwgsBKy2CChwML4BpDPdW8DvWPJNcxfg0sUP9vR8Vau6p5LJpnnX//vDCwD7AnaiPdRiBiqI1Hcq5xlu97Puz1cVc29db0ck6OPll64eRYep+72hcBpzp5Xhecj3qKeDzwJ2Ci3nIc93HU09Gv6S6k2p23eN544DADjjQMDgYOQo2Rc0OQGl9/zo1H4X/G+4EFcDoqqJqBe1DN9Gry1fau1vtjrV2dugupJp9b3BwADgHagWawDkY92KmEycD7FbqWJ7kRWDFgA+re3OuOQ/3WmosK2tl6y3HcTe1drfvEWrve0V2In52zuHmMAfNQv4jnAyFNpYzVdF3PcHJYAwAvnBxbh7+WepmHGqvVRvWtUT8DuH5BV6ujfZW14pzFzUees7j5GtTyRfcBZ6EvrKD6ui6K5tbo6NuAk1w6txvmAH8ATgBuBKppaMB84FzgWt2F+ME5i5unAmcCnwf20lyOGMbxFpbtXiDl0rndcghwB6rZf5fmWpz2swVdrRHdRXjZZxY37/qZxc1Xo+ae/hoJK09yJbBePCmWAW5149wuOwToRK32UE0tkknAdXJruK2ze5v3+czi5luAl1FPj728tZpXVkTRxs0Js9cDX3Lx/G45COgFjkH1XXxHbzmOmYdaTrraV2UtyNm9zbOB/wf8l+5ailDNyyUVxK1bQl48MbYU/3Zi7wM8gJqD+GXIM1LUf352bFfrFN1F6HR2b/OMs3ubfw38C3+FlcDdFhbADfh3FYF9UEs/N6GmRtzMsFHxPrQ98ENUCNeUs3qbAwZ8EfgRajyTH1X7Ppyjcq2FZbsVNSbLr3ZHLf/8OGon5rTWapzxhWO7Wmtqu7Czepv3A55Cdab7NazAfw+yHOd6J+y+d7dfi3qsvs2FNc4lzD83b+gxWw76N/AJ1MDSzgDW1NHem+s6FZxLmLcu+5inAgaH3dPSVS23ujmd1ds8Dvg+8FWgLu/f7ZAX8/0Gz/93a23+er65p6OdI9/XhtW76sqmXp1jwDzB7RYWqEGZfrcnqk/rVVRwva23nLIdihprVLXO6m3eH/g78HUqN3XGTat0F+AFrgfWshNiL6I2qfC7wY745ajQelVvOWX74fHdrabuIpx2Zm+zcWZv81eAp4G9ddfjoJq/HYTKtLCgOlpZsCW0VqNC6wW95ZQlAlTVCqVn9jZPRs0J/SXVN+/uNd0FeEGlAisGvFKha7ltMLQ2oULrab3llOVbx3dXxzCHM3ub9wSeQU2vqkav6y7ACyoSWMtOiGVRK31Wi8HQAjXAtFdjLeUIAf+ju4hyndnbPA/1FHAP3bW4SAKLyrWwQI3J8ntn9VD7oNawH4Ma8nCn3nJKdtHx3a076S6iVGf2Np+DasFXRUtxBHJLSAUDa9kJsY3A/1XqehVyCLAINQD3NNRKD34zHviK7iJKcUZvy3dQy1zXwp6M/9ZdgBdUdDLsvne3B1G/KXb02TisYcdsM3xpMTA/oPq1fsWQOZQeHYc1/O9nLRC5p6XLF6tZntHbYgCXAxflW1+/wDXS1eveH4e14sqmXreWXfaVSt4SsuyEWBq1G3O1mYu6JQw81N75ZdSkWj+ZhFqhwvPssLoKuEh3LRXk1zm5jqtoYNk6qM4xJccCN82JtdU91N75LeAbugsq0oXHd7d6eWmVoWF1vu5aKux53QV4RcUDy25lfb/S162Q04HfzIm1GQ+1d/4Ef41zCgHn6S5iFD+m9sIKpIW1mY4WFqhWVlzTtd0WRe0yzUPtnVejpsD4ZeG1C0/obvXkNJYzelsuAS7WXYcmD+ouwCu0BJb9xPASHdeukK/OibV9D+DB9s4/ACejOuS9bhfUEA1POb2n5dOo1lUtelF2fN5CVwsL1BSKJzRe322Xzom1fQXgwfbOu/HP8jRf1F3AUKf3tMwBfqu7Do0e0l2Al2gLrH+cELOoglHWo/jl0bG2MwAebO/sQYXWer0ljWreCd2tu+suAuCTPS2NqA1B/L5wYjnkdnAInS0slh4fewL4o84aKuB3R8fa2gAeaO98ADWVx+trc2t/WHBaT8tE4K/AdN21aLSR6ljpxDFaA8t2EWrgYrUaA9x1dKzt4wD3t3U+DTQD72mtamRnn9DdOkFzDTcgW209cGVT72rdRXiJ9sBaenzsbeBbuutwWRBYdEysbS/YHFpHAe9qrSq/KcBCXRc/raflK8Apuq7vIXfrLsBrtAeW7SrgOd1FuGw60NXU2bYzwP1tnctQt4fLtVaV36d0XPS0npYDqL45p6WwgHt0F+E1ngispcfHBlADAqt6jXHUonmxps62KbA5tI5E7TbsNU0ndbeEK3nB03paxgO3U32L75Xi/t809Xr1l5k2nggsgKXHx/4G/EZ3HRWwH3BXU2fbWID72zrjwBzgDY015WIAZ1T4mj9F7VQkVB+eGMYzgWW7mOodAT9UE3BDU2ebAbBYhdaReG+d+IptVHFaT8vReODppEesBv6iuwgv8lRgLT0+th74NP6ZylKOM4AfDH6yuK3zTVRLy0uhtc9J3S37u30R+1bwd25fx0duuaqp18/7ebrGU4EFsOS42BPYc/FqwLebOtvOHvzEo6FVie3cf4CaFiSUq3QX4FWeCyzbpcAy3UVUyLVzO9uOGfyk13uhdaKbJz9VPRW80M1r+EznVU29L+ouwqs8GVhLjotlUP0nGd21VMAY4M9zO9v2HHyhx1uhtedJ3S17jn5Y8U7taTGAK6mOjU6dUk2btTjOk4EFsOS42FJ8utZ4CaYA987tbNs8DcVjoeXW1lmnA4e5dG4/WnJVU69MxRmBZwMLYMlxsQ7gFt11VEgj8Od59nAH8FRoOR5Yp6qOdhkgurUfjH5IbfN0YNnOB17SXUSFHIW6RdpsSGjp7Nf42EndLTs7fM6LAKfP6WdPIyPbR+X5wFpyXGwdal6b15dlccq5zZ1tW90K26F1NPCCnpIAaHfqRKf2tMwAvu7U+arEt69q6q32mR5l83xgASw5LvYC8DnddVTQ5c2dbUcPfaG7rXMlau6hroG1zQ6e61vAZAfP53f3S99VYXwRWABLjo3dBvxIdx0VUgf8qbmzbauxSXZoHY2ePq1jTupuKfvfy6k9LTtRmxtJ5DNA7TxcKptvAsv2XdQKlLVgBvCX5s62rbbe6t7Sp/VmhesJAU6Mer8YGOfAearFr6+WcVcF81VgLTk2ZgFnAX/XXUuFHECO9cy7t/RpVXqVh3nlvNnuu4o6VEs1WA58T3cRfuKrwAJYcmxsPXAc3lySxQ2nN3e2bbMrc/eWVR4quQhgWYEFfBlpXQ315auber2+XLanGLoLKNWBi9r3Ah5B3TphsPX/TCDH/9nQdM73P77VMXkOCuRZtitX+hvD/jvXObc5ZttDNhlwRHdb5zPDv9DW1bov8AAwo6D/p8HX8hy81d/htv+fGWDKn1u6i56BcKpao/0/5FijPV/dQ/8uiv1e5Do8z9/tVufO9xs8/9+tteXco/w0DfvybVc39Z4+8jvEcL5rYQ16bkHsX6hdaD7QXUsFjAHubBkyEn5QZ2vXMtRyNZX4TW0CB5b43rOp7Q0lhloOfEl3EX7k28ACeG5B7GnU5Fw/bFJargbglpbOtm2+Z52tXf9ADTuoRGgVPZXGnjO4zW1tDTvn6qbelO4i/MjXgQXw3IJYL2r98VpYQ6uVPHs5drZ2PQ204P5mrR8v4T3zgD2cLsSnLr+6qTemuwi/8n1gATy3IPYn1NPDWgitH7V0tn0s1xdirV1PAcfibouzlMnK0rpSHgcu0V2En1VFYAH8fUHsFmojtOqBW1s623KOFI+1dt2PWnTPrb+HnRZ2txS82N6pPS074+C0Hh9bCfzX1U29/boL8bOqCSyAZ2sntHYFrsn3xVhr192oTm63FNPKOhtZ72ojcNLVTb1v6S7E76oqsGBzaJ1M9XfEf7Klsy3vrjax1q6bce9J1MGFHHSK6mw/x6Ua/OSca5p6H9NdRDWousACeHZB7G4q99RMpyvaulrz7h0Ya+26Evi+C9fdr8DjDkO1BmvZ969p6v2D7iKqRVUGFsAz82MPAZ8A3tZcipumAde1dbXmHbIYa+36Hs7v9/iRAo/Tsnu0h1yPO78walbVBhbAM/NjS1G/5V/WXYuLWoFzRznmK8AdDl5zu4WjLOh3Sk/LGCqz445X3QZEr5E1rhxV1YEF8Mz82BvA4ahpPNXq8rau1ki+Ly5q7RpAtXacXHNptNvCZmp3ZPu9wNnXNPUO6C6k2lR9YAE8Mz/2Lmrw4rW6a3HJREa57VvU2rUROAlY4tA1R7stPMmh6/jNvcAp1zT1btRdSDWqicACeGZ+bONT82NR1CDGahwLs6C9q/WUkQ5Y1Nq1FjUm6g0Hrpc3sE7paanH5f0MPeqPwMJrmnprYXs6LWomsAY9NT/2G9TtSjXO5bqivat16kgH3NvatRzV71Xu//9IexUehXogUEtuAM6QlpW7ai6wAJ6aH3sQtXrmo7prcdgOFLCM9L2tXS+h1hQrZ97h7iN87bgyzutHPwE+J31W7qvJwAJ4cn5scNXO/4U8iyr50/ntao2sEd3T0vUEanftUv/fJy7sbtkxz9cWlHhOv9kEfO7aub3f6JgrTwMroWYDC+DJ+bGBJ+fHvo26RXpHdz0OqQN+UciB97R03YVaY71Uuw1/4ZSelj2ojcGi7wMt187tvV53IbWkpgNr0JPzYz3AvsDdumtxSFN7V2tBuzXf09L1U0p/etqY47X5JZ7LT54HDr5ubs+DugupNRJYtifnx1Y+OT92Imq80ird9Tjgp+1drfUFHvtFoKeEa+QKrLklnMdPbgQOu25uj46t1mqeBNYwj8+P3YJ6ZO/3RdYaKXBqzD0tXf3AqcBLRV5jq1vCU3paxqKmQ1WjD4DPXTe35zPXze1xe5FEkYcEVg6Pz48lH58fmw+cjlp/268ube9qHVvIgfe0dL2Perr3fhHnHz66/mPAhCLe7xfPAAdcN7dH+qs0k8AawWPtsdtQS/tegT/X2JoFfLbQg+9p6XoZ1dIq9P915rDPmwq9lk8MoCYvH37d3J5XdBcjfLzNV6UdEWs/ALVo3iEatvnKv82UYY12zBsBmL2otavgwD2hu/Ui4OcF/H8OGAbmHc3dAwCn9LQsZlhoFfIb0aPbfD0LnHv93J7n85QnNJAWVoEea48tAQ5F3Sa+obeaoswCCnpiOOjulq5fALcUcGgdsD1sno5zaLHFedA64ELgUAkr75HAKsJj7THLvk3cE/gaxfX36HRhCe+JAi8UcNxgP9YB+L//6nZg7+vn9vzq+rk9MmrdgySwSvBIe2fmkfbOy4HZwGV4fzPXIxd0tRa1AerdLV0foCYwrx7l0MF1sQ4vpTCPeBo4/Hdzez55/dyePt3FiPwksMrwSHvnqkfaOy9B3XZ5Pbg+Xewb/tzSHWf0zSwGA+ujxZ7fA15FDf34+O/m9jyhuxgxOgksBzzS3vnukOD6CaO3SnQ4dUFXa9G71/y5pftu4NcjHLKD/echJVWlx3+AzwB73jiv55bfze2ReYA+IU8JXTAn1jYR1TK50FC3jYC2p4RDfyu1LGrtKnpE+0ndLSbwJKqfaqvfcobBb4DvkGd2gMeeEr5iwM+AG2+c1yPLwPiQtLBc8FB757qH2juvRC3BciLwsOaSBpW0qN6fW7ozqPFZuW55QxS47ZdGT6K2ftvzxnk910pY+Ze0sCrk6FjbngacaxicCWw39GsVbGG9tKi1a6SF90Z0UnfLucC1w1pYPUAv8NNRrp2XSy2sDGrjjatumtfzZAFlCB+QwKqwps62scDxwOdQE4UDFQwsDGi4t7XrzYILHuKk7hYDuC8AbZvPZ/As8G/yzFvUEFivAB0G3HjTvJ5qXFW2pklgadTU2bY9cIoBp6GGBRgVCKwz7m3turWEcgE4qbslHIAXgSkAhsFrqMGWOdd4r1BgvQv8Cbj55nk9TxVwSeFTElgeMbezrQEVXscZcARqFPlmDgbWZfe2dl1STq0Lu1s+g1rDHMPgA8AEci5l42JgpYB7A1h3Ad03z+vZVMClhM9JYHlQc2fbVNQqqAtQt1/THQysu+5t7VpYTn0L1a3ho8Dh+Vo+ua6dTxGBFUct+/MX4NFb5nXLaPQaI4Hlcc2dbQHgI4aaVHw0cCQwefDrJQTWU/e2dn283LoWdrfsAzxvGIw4tqvMwHrPgAeAHsOg95Z53a8XW6eoLhJYPtPS2VaH2vHnUOCQgGF9FDW3MW9jZ1hgLb23tWt/J2pZ2N3yC8MYeZ5ikYH1CvA48ATwmAH/vq25WwZ1is0ksKpAW1frJOBgQ61Lv7f9sQ/23oAuBtYMw+ANRpj0nCew1qLCaSnwvKHWSH/+9ubuNU7UJaqXBFYVa+9q3QHYLaCmDM0CZhmw7t7WrlJWb8jplJ6W7wGXDns5DfQBbwbgTdTHG8DLwMt/bO5+26nri9oigSXKcvnSH00CDkI9tUsBq76637c36K1KCCGEEEIIIYQQQggh9JBOd1GUVEPjdGBX1FruEWBHYLr9MQ01pah+AMajhi+sz0KgH2vdJkhvhA0Zy1oJLJ1oGM9MwXg91BeXsVaiIBJYIq9UQ+Ms7AGqqDFe+6ACyjFZ2LgBa8V6WJmxrGeAP4WNwEOhvrgf94EULpPAEpulGhrDwDzUsjdz2bL8cUUNwKb3sd76wLIezGD95tA3X39WRx3CeySwalyqoXFP1L6FC1HjqTxnDdbaVZb1RIrsj5vffMMrq7cKDSSwalCqoXEa8EnUuvO+2e3GAmullV2zAuuO162B756dTMiI+RojgVVDUg2NBwBfRoWVqbmcsqzD6k9Y2X+8bmW/flbyP/frrkdUhgRWDUg1NLYC30QtTVNVMjDwsjXw9qvWwCX9cFs0mZDO+iomgVXFUg2N7cB3gY/prsVt67H6l1kD7/ZZ2W8Af4gmE/26axLOk8CqQqmGxoOBy4FP6K6l0lZY2f7nrYHX12BdFE0m7tNdj3CWBFYVSTU07oDabutM3bXolIWBZdZAXdwaeNCCC6LJxD911yScIYFVBVINjQZwLnAZMFVzOZ6RwtrwVLa/Po11GfC/0WQirbsmUR4JLJ+zR6P/nhq8/StEP2x4yuoft9zKxoFPR5OJJ3TXJEongeVjqYbGs4FfA5M0l+J11gvWwKZ/WwP1wE+A70WTCdkWzIcksHwo1dA4AbgWOF13LX7yppVd94zVPzELfwMWRpOJhO6aRHEksHwm1dC4B3AX8GHdtfhRCuu9R7Kbpg3AKuCMaDLRpbsmUbgR95QT3pJqaGwBeoAG3bX41XiMYNgIvJewstOzcMaxk6dsWLR29eO66xKFkRaWT6QaGqPAb5BfMo5Yi5V6ILspZHdkXQd8Qfq1vE8CywdSDY3/i5paIxy0BmvF4uym7e25PL3ACdFkYr3WosSIJLA8zB5fdQXwRd21VKsVVnb5o1b/jvaSp08A7dFkYrXWokRehewkLjRINTTWAb9DwspV2xuBHQ8w6t+yPz0MeKAjHNlOZ00iP2lheZAdVjchwxYq5lmr/703rOw0+9MXgGOiycRKnTWJbUkLy2MkrPQ4yKifMAVjsNN9H6Sl5UkSWB4iYaWPAWOPCoxJ1W95SULLgySwPELCSr+xsOMhRv3Q0e8SWh4jgeUBElbesbMRiOxoBIY+JZTQ8hAJLM0krLznUKO+v37rlyS0PEICSyMJK2+qh9B+W98agoSWJ0hgaSJh5W0fMgI7T8IYGPayhJZmElgaSFj5Qv0hgW1aWSChpZUEVoVJWPnHNIwPzcDYmONLElqaSGBVkISV/xwUqM832l1CSwMJrAqRsPKnSRjh0JYR8MNJaFWYBFYFSFj5236B+ndG+LKEVgVJYLlMwsr/pmOEJ468ToCEVoVIYLlIwqpqGHsadSO1skBCqyIksFwiYVVdIkZgUgE/LBJaLpPAcoGEVfUJwPiwERg+kDQXCS0XSWA5TMKqejUadakCD5XQcokEloMkrKrbdIzpYwo/XELLBRJYDpGwqn4G1O9kBKwi3iKh5TAJLAdIWNWOBgKrinyLhJaDJLDKJGFVW7Y3AuNL2LlFQsshElhlkLCqPXUQnFraZlP7AA91hCMzHS6ppkhglUjCqnZtV9jwhlz2RkKrLBJYJZCwqm07YKwp4+2zkdAqmQRWkVINjWOBPyNhVbOmGYEiRjfkJKFVIgmsIthhdSdwnO5ahD5jYaJZ/mkktEoggVWgIWF1rO5ahH6TDUd+dCS0iiSBVQAJKzHcZOdOJaFVBAmsUUhYiVwmE/jAwdNJaBVIAmsEElYin0mQdviUEloFkMDKQ8JKjGS8UdLg0dFIaI1CAisHCSsxGhNjrEunltAagQTWMBJWohB1MM7F00to5SGBNYSElShUAMa6/MMjoZWDBJZNwkoUq879S0hoDSOBhYSV8DQJrSFqPrAkrESp6kpbZqYUElq2mg4sCStRjgGKWS25bBJa1HBgSVgJH6r50KrJwJKwEk4odRW/MtV0aNVcYElYCYeks/quXbOhVVOBJWElHPS+5uvXZGjVTGBJWAmHvaW7AGowtGoisCSshNOysEJ3DbaaCq2qDywJK+GGTVheCSyoodCq6sCSsBJu+cA7LaxBNRFaVRtYElbCTe9a2XK2+nJL1YdWVQaWhJVw23+s7AbdNeRR1aFVdYElYSUq4M3VWCHdRYygakOrqgJLwkpUyLPA7rqLGEVVhlbVBJaElaigh4HddBdRgKoLraoILAkrUUkZeAzYQ3cdBZoNPN4RjjTqLsQJvg8sCStRYSti2Y0DgFubULghgmpp+T60fB1YElZCg84B2F93ESUIUwWh5dvAkrASmvwV+JjuIkrk+9DyZWBJWAlN1gD3AYfrLqQMvg4t3wVWqqFxPBBDwkpU3j13ZjcGgd6gPEYAACAASURBVA/rLqRMvg0tXwWWHVaLgCbdtYiadANwNFRu9wkX+TK0fBNYQ8LqaN21iJr0Mmr81VzdhTjId6Hli8CSsBIecGWoL24BzboLcZivQsvzTVsJK+EB7wGRO7MbdwFe0F2MS5LAnGgyEdddyEg83cKSsBIecXWoL74OOFF3IS7yRUvLs4ElYSU8YjXwU/u/qzmwwAeh5cnAkrASHvLLUF/8/Y5wJAIcqLuYCvB0aHkusCSshIe8Re20robybGh5KrAkrITHfD3UF//A/u/TtFZSeZ4MLc8EloSV8JiHgFsBOsKR3YFDtVajh+dCyxOBJWElPCYNnGePuwL4tM5iNPNUaGkfh6UxrNYC2WGvTcIjIS60+mqoL/5zgI5wJAC8ATRorUg/T4zTqtd5cRfCKtsPK9NY76+zrA3rsFgPgTSWucGyjDSM2YgV2AQDqJn3m4D37Y/lwJtBjOXbGcbbexp1GyZjTAZ2ARpRS+LuDXzIoVqFN3UDvxjy+dFIWMGWlpbW0NLWwio3rCzYkMZ6J2VZmRVkp6Qsa4d1WNs0mcr0OvB31KYDDwPPLgyMnQDsB3wUOAy11MgOzl5WaLIc2D/UF39n8IWOcORm4FP6SvIcrS0tLYFVYlgNrMdKvGVls29a2ZkpLNMa/T1OSwMPoNZEWhRNJvoAUg2NewDz7I8mYELlSxNl2gQcFeqLPzn4Qkc4EkL9gJraqvImbaFV8cAqMqz612C9GrcGJvRZ2ZmbXK6tBI8DtwO3R5OJdwFSDY1BVHCdCBwHTNdXnijCOaG++A1DX+gIR74K/ExTPV6nJbQqGliFhlUGXn/ZGtj0ujWw+8bKlFaujcBdwFXRZOKxwRdTDY11wCeAhcCpgJc336xlPwj1xS8d+kJHOGIAr6B2nRG5VTy0KhZYBYTVphTWv5dl+2e+izWtUnW54GnUb+U/R5OJzV1q9rLO7ahH5POBMXrKE8PcAHxuyBAGADrCkWZUB7wYWUVDqyKBNUpYbXrHyv7r79ZA43qs8ZWop0KeB74P3BNNJrb6YUg1NM5AjZw+F/iIhtqEcitwVqgvPjD8Cx3hyF+AEypfki9VLLRcD6wRwiq7Emvp37L9e1RZUA33KPCVaDKxJNcXUw2NhwGfB05BOncr6feofqtcYRUBXgPqKl6Vf1UktFwNrHxhtQEr/ni2f9p7WLXSp2MBVwPfiCYTa3IdkGpoDAFno8JL+k3c9VPg4uG3gYM6wpH/A/6nsiVVBddDy7XAyhVWFqz9hzXw1ivWgF+2+XZaH3B+NJmI5Tsg1dAYQPVxfQn1tFE4JwtcFOqL/zrfAR3hyHjgTcDP/ag6uRpargSW3cHcxZCw+gDrlYez/Q3rsca5cU2fuQL4ejSZ2DDSQamGxr2ALwNnAdV821wJ7wGnhvrivSMd1BGOnI9qDYvSuRZajgdWjk1OB16yBl5ZZg3s6fS1fG4pcEI0mXhjtANTDY3TgM8CFwCz3C2rKj0LnBbqi7860kH2UIYXUFOwRHneAI6MJhNvOnlSRyf6phoaDeB67LDKwupHrf73Jaxy2g/4e0c4Muoei6G++HuhvvjlqDmNJ6GWPhGjs1BDTA4bLaxsc5Gwcsos4AF7toBjHG1hpRoafwh8GyADyfuzm3ZYj6V1grUPDADnRZOJG0Y9cohUQ+O+wIXA6YDcZm/rFdRTwEcLfUNHOHIvsMC9kmrSY0BTNJlwZAy4Y4GVamg8C/WomHVYb96f3eTFqTRe9t1oMvHDYt9kP108D/giakZ9rdsIXI4avT5iH+FQHeHIbsBLeGDJpSp0G3DG8PGIpXDkljDV0PhR4LcAq7CSvRJWpfhBRzjyk2LfFOqLp0J98R+jmuCnosZ91ap7gL1DffFvFhNWtguQsHLLJ3FomEjZ36BUQ+N04Dlgl1VYKx7Kbtre4SVeas1l0WTiknJOkGpo3BvV6jqL2ng8/zDwzVBf/IlS3twRjkxGPdma6GhVYqgsMDeaTDxYzknKamHZnex/AHZ5H+vdhyWsnHCxvUpAyUJ98X+G+uIXAjujQuuxUd7iV53A0aG++JxSw8r2GSSs3BYAbusIR3Yq5yRltbBSDY0XAFesx3q/N7tpqtwGOuqsaDJxs1MnSzU0fgjVQf8pwM9PbdehlvT5VagvXva28fYSyK8Au5Z7LlGQLqC91P6skgMr1dC4J/DcJrB6s5vGr0fDcnrVbSNq8N2Tox5ZpFRD4wHAGai+hZ2dPr9LnkINmfljqC++1qmTdoQjxwJ/dep8oiBfiCYTJQ3OLSmw7OkjT1lw0EPZTYGUhJVb3gEOiiYTSTdObt/SfxS1KsECYF83rlOiLGqpnruAO0J98YQbF+kIR+4HjnHj3CKvNLBvNJkoZGzcVkoNrAuAK5ZZAwMvWQMyo91djwNHRZOJbVYVcFqqoXEm0Iz6AZ5D5YdJxFH9bV1AT6gv/p6bF+sIR/YBlrl5DZFXbzSZaC72TUUHVqqhcWfgpXesbP2jVr8MWKyMH0WTie9U+qKphsbZwMeAg+2PfXDuqePbqDXDlqKmzjwe6osvd+jcBekIR65FrUkm9DgjmkzcWswbSgmsm/vh1K7spjEb5FawUrLA4dFk4indhaQaGncE9kKN+9oF1QrbDpiBetI2CbWOlAWsRN3WvoVaAeE14GXg1VBffFWlax+qIxyZatcV1FlHjXsb2D2aTKwr9A1FTZtJNTQeBJzxnNVvSFhVVAC4sSMc2S+aTGR0FmK3giraEnLJmUhY6bYTakDppaMdOKiocVgD8JvlVjabsGS0lQZ7YM/TFI44T3cBAoCvdYQjBT+pLjiwUg2NLQH46PPSya7T1zvCEVmNtEwd4chhqP44od944LuFHlxwYG3A+tlL1kBgndwK6jQW+LnuIqqAtK685bOFtrIKCqzlDY1z6zD2fsly/cm6GN1xHeHIHN1F+JU9b/C/dNchtjIG+HohBxYUWBmsX75kDQRk6o1nFL0MjdjsJKSz3YvO6whHRt0lfdTAeq1h9r5jMfaKS+vKS47oCEdadRfhU2foLkDkFAQ+N9pBowbWJrgibg0E+h2pSTjoYt0F+I3dTyLTcLzrgo5wZMSHeiMG1nMzd50wEY54VVpXXjSnIxw5WHcRPnMaDu9jIBzVALSNdMCI3zwLfrjcsuq0jlQUI7lIdwE+I7eD3nf2SF8ccWrOyw2z330+2x96T4YyeNVGIBxNJt7VXYjX2ePXXN1GXThiI7BTNJnIOXUrbwurc+asAwMgYeVtY1EriorRnaC7AFGQscCJ+b6YN7CmYny7T6bg+ME5ugvwCQks/1iY7wt5A2sKxlwJLF/YuyMc8dLCe57TEY5MAw7TXYco2DEd4ciUXF/IGVi3hHc5EJiUlttBv5CR2yObizwd9JOxqO/ZNnJ+E3c0Aucvl7Dyk7xNaAFAi+4CRNHm5XoxZ2BNxmh5W24H/WTPjnBEdn3Jb47uAkTRCgusjnBkfB3MlFUZfGfEAXe1qiMcmQnIkjz+s6v9vdvKNoE1Bj6+CUvu9/1HbntyO0J3AaJkhw5/YZtg2tEInCRjr3zpE/amoGJrh+guQJTsY8Nf2OYf+ESMw1OWBJYPTQE+rLsID/qo7gJEybb53m0TWAZEpP/Kt+T2Z1sH6C5AlGybX8BbBVZHODIh49y+c6Ly5PZniI5wJAJM0F2HKNkMezu2zYa3sGZb0rrys/11F+Axe+suQJRt1tBPtgqsethlY0VrEQ7buyMcGaO7CA/ZXXcBomw7Dv1kq8CaivHhNdLh7mdjUfsXCiWiuwBRtvyBNc4wdpUOd9/bTXcBHjJLdwGibNsP/WSrwOqHiTIhx/dkVPcWO+kuQJRtq1UbtgqsjGWNq2wtwgWNugvwkFG3jRKeN3noJ1sF1iaYWNlahAt20V2Ah4R0FyDKlj+wBqC+srUIF+w4+iE1w9RdgCjb+KGfBIZ9MuKmFMIXpN9mi8mjHyI8bnhGbWHIN7gabKe7ACGcYgy769sqsNZhybhR/5MVG7bYoLsAUZ462GoXZ/nHXX1kZMoWb+suQJRtq0bU8MCS30j+t1Z3AR7yju4ChLOGB9YHWqoQTpLv4RZJ3QWI8gSGNaKGB9b7FaxFuCOluwAPeUN3AaI89RjpoZ9LYFWflboL8JC47gJEeeohM/Tz4YH1bgVrEe6Q26AtXtFdgCjP2FECS/6x+19CdwEe8rLuAkR5goaxeujnEljV53XdBXhFNJnoA97TXYcoXd2wfsjhgSW/nf3v37oL8JilugsQpbPghaGfDw+sV9Uxwsde1F2AxyzRXYAojQH9/7Gy+QMrmkykkVsKP1seTSbkSe/WntRdgCjNOIyV0WRiq5kbuabm/KNC9Qjn/U13AR70mO4CRGkm5hhTmCuwnqlALcId8r0bJppMvA28prsOUbygYfx9+Gu5AuupCtQi3CEtrNwe1F2AKN44jDuHv5YrsP7GsCUdhC8MAI/rLsKjYroLEMWph0w9dA1/fZvAiiYT65BbCz961v7eiW0tBvp1FyEKN90IvH3km69v8z3Ltx5Wr8v1COc9oLsAr4omE2uAR3TXIQo3CePhXK/nC6zFLtYi3LFN81ls5Y+6CxCFMcAKYVyR62v5AusJZNa/n6xFxhuN5k7kttAXpmOsPuDN17Z5Qgh5AiuaTAwAd7talXBSZzSZ2KS7CC+LJhOrgG7ddYjRzTACeW/fR1rT/c8u1CLcIb9cCnOd7gLEyOqgP2IEfprv6yMF1mJkTWw/2Ig8ti/UIuTftKfNNAKrd+17Ne/shLyBFU0m+oE/uFKVcFJnNJlYPfphwv433aG7DpHfzgRuHunro23z9TsHaxHuuEV3AT5zJbI7lCdtZwQyYSPwfyMdM2JgRZOJF4Gc4yGEJ6wB7tVdhJ9Ek4mVwIi/xYUeuxJ4OtQXH3EvyUI2Uv2VQ/UI590VTSaktVC8nwDyVNVDpmNsaDAC3x7tuEIC66/IdkleJX2MJYgmE68BN+iuQ2zxYaPuP6G++KOjHTdqYNljsi5zpCrhpATwkO4ifOxHSF+WJ+xoBDbsUEDrCgprYYH6bdRXeknCBdcNX41RFC6aTLyJ/CLWzoD+/Yy6Nylw3GdBgRVNJjYC/6+cwoSjBoDrdRdRBS5DNl7Rak+jjkkY3wn1xQv65VtoCwvUD4hsTOkNi6LJxFu6i/A7ew+DL+uuo1aNx1izp1H3D4qYmG4Uc4GOcOREZMqOF8yPJhOeG92eamicBOwMbAfU2y+vR03OXgWkQn1xz01A7ghHbgFO111Hjck2BcYEpmEcFeqLF7z0T1GBBdARjjwMfKLY9wnH/AfYVVf/lR1KH7E/dgdm2x8fAoIFnGIl6qlzAngJ+Cdqa7IXQ31xLUMNOsKR7YBlwA46rl+LPmzUfbCXUdcT6oufVMz7SgmsvYHngTHFvlc44uJoMjHiaGCnpBoaA8A+wOHAkcAhqHByw0bUHoJ/Ax4FHgn1xZe7dK1tdIQjzag1xYr+mRDFmY7x7jGBMUFg71BfvKg+xJK+OR3hyI+Ab5XyXlGW9cDMaDLh2vbrqYbG7YA2oBVoBkJuXasA/0ItCdMFPBzqi7s6DKEjHPkJcLGb16h1Y2FVa2Ds9LHw1VBf/OfFvr/UwBqHamXtUcr7Rck6osnE+U6f1A6pk4FTgDkU9zCmUj5ABdfdwL2hvrjjE747wpE6+xpznT63AAPWzwuMGTcZ4zng46X0Z5bc/O0IRw5CbQlWP9qxwjF7R5OJfzlxIvt2rxk4FzgWf93ib0DNobwF6Ar1xTNOnbgjHJmG2oSl0alzCgD6jzDqN+xoBOqAA0N98X+XcpKy7tc7wpFvAz8s5xyiYL3RZKK53JOkGhonAp8BLkJ1lPvde8AdwM2hvrgjuzx3hCO7oZYJn+HE+QTZg436lbOMwA7ABaG++G9KPVG5gVWH2mHn6HLOIwpS1lCGVEPjVOBC4CvAVMeq8pZ/AdcCfwj1xd8t50Qd4cjBqA1YJzpRWA3L7mfUvb2bURcG7gFODPXFrVJPVvYTkY5wZHvgOSBc7rlEXq8Ae5YylCHV0BhEBdXFwBSnC/OojcBdwLWhvvhDpZ6kIxw5BrVKaSHDNcS2sgcY9a/PNgKzgVeBg8rte3TkEW5HOHIYaiKun/pB/OTL0WQi57ZHI0k1NJ4K/BRocL4k33gBuAJ1y5gu9s0d4cjhqCWoJztdWJXLHGzUJ2cZgV2BNHBoqC/+j3JP6tiYk45w5EzgJqfOJzZbgxrKsLbQN6QaGmcDv0Vu1Ydahfo7uarYsT/27WEMNYJfjMKA1UcY9Wt3MAIzgSxwcqgv7shGKY4OkusIR74HXOrkOQW/jCYTFxVyoP3k78uoiepyG5PbAPAX4NeFrL80qCMcmQ10Aru5VVg1qIfX5gbGTJqIMRjuXwv1xS936vxOj7f5PrIwmpMs1O3MqFINjTuixhD9AgmrkdQBC4FHUg2NS1INjZ9ONTSao70pmky8CnwM2WE7rykYzy4IjG0YElZXOBlW4MI0BPvJ4c3AJ50+dw36azSZOH60g1INjccAtyO3LKVaidpN56rR1hS3/31fiprp4cUBtjqk9zbqlu5t1B065LXrgXPLeSKYiyvzpjrCkbGorcGPdeP8NWRuNJm4f6QDUg2NX0K1quoqU1JV24T6d/vrUF/8qZEO7AhHjkINXK3pp+NjYdmcwJgZkzF2GvLyrcBZob74gNPXc22ip4RW2V6IJhP75vtiqqGxDnW7+PnKlVRTnkFtwHJnqC++MdcBHeHIVOBnwDmVLMwjVu9u1C3b16g73Ng6R1wLK3B5ZrqEVlnOiyYTv831BbvP5VagqKU5RElWora4/22oL/56rgPs8VpXAHtXsjBNrGkYTx4eqN97HMbwAciuhhVUYCkNCa2SrEINZdhm3FCqoXE8ajCjDFmoLAvV4X41EBv+Q9kRjtQDXwC+i94VLlwzAeP5QwP1k6dh7Jrjy66HFVRo7R8JraJdHk0mvjb8Rbtl1YmElW5J1IOl3w+fxNsRjkwEvoaaXVAVMwsmYDx3sFE3fTsjMCvPIRUJK6jgYmUSWkXZLZpMxIe+YPdZ3QGcqKckkcffgN8Dt4f64qnBFzvCkcnAeai5mzM11VaODTMwXtg/UB+ZirH9CMdVLKygwqsrSmgVJOeqDKmGxqsBx9fCEo7ZCNyPGpR6T6gvvgI23youQIVXKx5f0dSE13Y16tbsZtR9eOzoU+0qGlag4S9PQmtUJ0aTia2mMaQaGi9EDV0Q/mABj6MWG7w71Bd/FaAjHNkZtUjiaahBqJ4Ir7GQmGkEVjcadY2TMQoddFzxsAJNf2ESWnklgVnRZGLzSoyphsYm1DLBMs7Kv14HFgMPAI+H+uJ99ionbcA81CqvFRvPVQepKRgrGozAhJlGoCGIUWwOaAkr0JjwElo5/TCaTHx38JNUQ+POwFJkIblq0wc8jVpmfAnw4j3ZjfWb4EDgINSORHsCu1DeaPrsGFgxHmPNNMOwticwI2QYoQnl/dhrCyvQ3CSV0NrG5s52eyJzN7K+eK3YAMRRYdYHvN0Pa961snWrsMaux5q6CSZsgglZyzIDhmFaMGEsBOpg/FiMceNg7DiM4ETDmD4epo7DcHrukNawAg/cQ0tobfZ4NJk4YvAT6bcSHqM9rMADkzejycRG1Oz5e3XXotnmtcRSDY27opaIEcILPBFW4IHAAgkt1O3AH4d8fi2yRIzwBs+EFXgksKDmQ+ueaDKxGiDV0Hgi0KS5HiHAY2EFHgosqOnQuhMg1dA4Fih6N1whXOC5sAKPBRbUZGhtYMsqll8AZukrRQjAo2EFHgwsqLnQ6o0mE+vs7bgu1l2MqHmeDSvwaGDBVqF1j+5aXPYX+8/zgB11FiJqnqfDCjwwDms09hraNwGn667FBVlgu4WBsWtQgwZ30VyPqF2eDyvwcAtrUDSZGADOQv2FVpvHo8nEKtSSMRJWQhdfhBX4ILCgqkNrsf2nLBsjdPFNWIEPbgmHqsLbw8MXBsauAF7RXYioSb4KK/BJC2tQlbW01qN2ZjlTdyGiJvkurMBngQVVFVpP2+tenaq7EFFzfBlW4MPAgqoJrSdSDY0fAfbQXYioKb4NK/BpYEFVhNbfUGt9C1Epvg4r8HFgge9DawnQrrsIUTOuw+dhBT57SpiPD58evr8wMLYBeB9Zq1247xrgC6G+uKW7kHL5uoU1yIctrX8CH0fCSrivasIKqiSwwHeh9QpwxKhHCVGeqgorqKLAAl+F1ivAwbqLEFWt6sIKqiywwDeh1Yfa0kkIN1RlWEEVBhZ4P7SmY6xFlpIR7qjasIIqDSzwdmjNNupM3TWIqlTVYQVVHFjg3dCaZhg76K5BVJ2qDyuo8sACb4ZWEGOq7hpEVamJsIIaCCzwXmiNge111yCqRs2EFdRIYIHnQmuG7gJEVaipsIIaCizwVGjJLaEoV82FFdRYYIFnQksCS5SjJsMKajCwwBOhNU7TdYX/1WxYQY0GFugNLauG/95FWWo6rKDGf3B0hZYlqzSI4tV8WEGNBxboCa2sBJYojoSVreYDCyofWjX/r04UQ8JqCAksWyVDaxPWRrevIaqChNUwElhDVCq0NoGv19UWFSFhlYME1jCVCK2MZck/QjESCas8JLBycDu01sIYN84rqoKE1QgksPKwQ+tTqH9AjlqLNcnpc4qqIGE1CgmsEUSTCQv4Ag6H1hqskJPnE1VBwqoAElijcCO01ljWBKfOJaqChFWBJLAK4HRobcDCgg+cOJfwPQmrIkhgFcjp0FqP9bYT5xG+JmFVJAmsIjgZWqssS8Zi1TYJqxLInLYiLVq7mmMnT4kBO1DGZqj1Bv1hIzDRucqEj0hYlUhaWCVwoqX1jmXJvoS1ScKqDBJYJSo3tDZg0Q/Sj1VbfomEVVkksMpQbmitsLKrnK1IeNhlob74RRJW5ZE+rDKV06c1YGA1SD9WLbgs1Be/RHcR1UBaWA4otaX1jpXdwYK0O1UJj5CwcpAElkNKCa0BYDXWK64VJXSTsHKY3BI6qJTbw37IhI3AFHcrExpIWLlAWlgOK7al9aaVjVggne/VRcLKJRJYLigmtLLAcisbd70oUSkSVi6SW0KXFHN7uBpr3GyjbnxlKhMukrBymbSwXFRoS2sNVmg91vOVqUq4RMKqAiSwXFZoaC21BszKVCRcIGFVIRJYFVBIaCWt7F6b4MXKVSUcImFVQRJYFVJIaC2x+jdVriLhAAmrCpPAqqDRQithZfffCC9UtipRIgkrDSSwKmy00Hra6s9WtiJRAgkrTSSwNBgptN6xsh9Zi/V45asSBZKw0kjGYWky0jittyzL3N2oAxirozaRl4SVZhJYGuULrX6YOAYeCxmBD+mrTgwjYeUBElia5Qutd7BmzTbqltaDLKWsn4SVR0hgeUCe0DLesrIDjUadAcigUn0krDxEAssjcoXWRpi8CZ7b0Qg06K2uZklYeYwElofkCq1VWA3bG4EnxmNIaFWWhJUHSWB5TK7QSljZ8Gyj7sU62F5vdTVDwsqjDN0FiPw6wpGfABcDjMNY2x4YszYAO2suq9pdGuqL/0B3ESI3aWF52KK1qxcfO3nKJqCpH8ykld2wq1G30YCg7tqq1H+H+uKX6S5C5CeB5XGL1q5+9NjJU94FWjMwcaWVXbWLURcwZFCpk/qB80J98at0FyJGJreEPtERjrQDfwQmzsBYflRgzGQDZJXS8q0BFob64r26CxGjk8DykY5wZH/gbmCX7Y3AyiON+vEGTNBdl4+9Bhwb6ov/U3chojAy+dlHosnE88CBQOcKK7vd/dlNxoDsuFOqvwIHSVj5iwSWz0STiVXAfODb72OZPdlNUzdgva27Lh/pBy4BTgj1xd/XXYwojtwS+lhHOPJR4A/1sPsRgTHLZ2DIvMOR/Rs4I9QXf053IaI08pTQxxatXf3WsZOn3JCFiW9Y2WMsWL29ERiDtJyHywK/Ak4J9cX7dBcjSictrCrREY4cBFw7DePAwwP174/DmKq7Jo94FohKq6o6SGBVkY5wpA44tw5+sK9RF2w06iZQu9/jFcClwG9DffEB3cUIZ9TqP+aq1hGOTAIunobx3wcH6vunYEzSXVMFbQAuR80HXKu7GOEsCawq1hGOzDDgaxEjcOG+Rt3AOIxqHmj6AXAl8PNQX3yF7mKEOySwakBHODKjHj7/IaPuq3sYAXMcxjjdNTloOWozj9+E+uLv6i5GuEsCq4Z0hCNj6uG/Zhl139zVCOw62d/B9RjQAfwp1BffqLsYURkSWDWqIxyZ1WAEvrEzgZN3NgKT62CM7poK8BpwC/D7UF/8Vd3FiMqTwBLcGt7lIzONwP/MwJg7wwhMr/POShAWsARYBNwZ6osv01yP0EwCS2zl9vAu03Y2AudOwjhhimFEJmFsH6hc62sAWAY8BTwIPCD9UmIoCSwxou6Zs8ZNxDjexJgzHnYbbxjbmxhTx8CMMhYS3AgkgP8A/7Q/lgHPh/riHzhUuqhCEliiZM/O3HWHAaw96zB2ngDBsYZh2HOCQpMxVgMZ+9A1wLuolSXeDfXFl2spWAghhBBCCCGEEEIIIYQQQgghhBBCCCGEEEIIIYQQQgghhBBCCCGEEEKImiLLywghXBU0zT2Bg4AGYBywEngFeCqdyawp5lwSWFUmaJozgb3sj0XpTOY1zSXVpKBpjgFmo74PH0pnMj/XXFJFBU1zKvAl4LPArDyH9QM9wBXpTKarkPNKYPlQ0DTrgF3ZEkx7AXsDewJDN009Op3JPFTxAmtI0DTHA3uw5e//w/bnuwP19mGr05nMVD0VVl7QNM8AfgWE7JdeB56w/xwApgAfAQ5DtbgAuoHPpjOZt0Y6d/1IXxTeEjTN2cBfUD8QXtkooiYFTfNs4HtABPnFD0DQNA3UrtsX2S/dB/wonck8lef4/LJF6QAAEA9JREFUycBngG8BLcCSoGm2pTOZ5/JdI+BsycJlk4B9kbDyglnALkhYDfVjVFilgU+lM5kF+cIKIJ3JrElnMr9C3SF0A9sDvUHT3D3fe2q2hRU0zQbgWGAy8CxwfzqTsfRWJYQ/BU1zPnAxsAlYkM5kHrBf3wk4GJgJmKh+qyTwYDqTeR8gncmkgqa5APgjcBJwR9A0D05nMpuGX6cmAytomp8Crmfrlkp30DRPSGcyGzSVJYQvBU1zLHCl/elXB8PKdirwCyCLejpoAlOB9UHT/Go6k7kGIJ3J9AdN8yzUHcRHgC+g+sG24khgBU1zAvAh1P38jsB0+2O8Xdzgtfrt/16H2kVlJWq7p9eAV9KZjOtbjtstq+FhBeoe+hJUv4QQonCnoW6Rnwd+k+eYhelM5i8AQdM8BLgVuDpoms+lM5lnANKZzAdB07wQ1ff19aBpXpnOZAaGnqSkwAqa5hzgGOBjwP6oe89ybQya5vOopwkx4GGXAqyN/H1AC5HAEqJYZ9l//iydyWTzHLO5uyWdyTwTNM2vAncDC4BnhhzXCfwL1a81B7h/6ElK7XT/JfAdoBlnwgpUiBwCXIgam7E8aJo/t5+MOWm7Eb422eFrCVHV7NvBI1DDFf5axFtX2H9u1YKy+5H/bH86d/ibvPyUcBrqicNLQdO8OmiaodHeUKCRBlImHLqGELViD1S/VDydyawt4n1n238+kuNrS+0/9x7+hUp0uq8e9vkkigvKOuB84LigaX46ncksLrOee1DBFMnxtXz330KI3AbvsN4e5bhj7NHv44HjUXdnP05nMg/mODZp/zl9+BecDKy7gDtQhS8HVqYzmfdyHWg3I3dGjdbeFdUPdiTq6UA+OwOdQdM8P53JXF9qkelMZn3QNFuBW4AD7JfXAd9MZzK3lXpeIWrcaP3NXxr2+W2oAaNFncvJwHosncn8sZAD7c70N+yPzY9Ag6a5C2rkaxT1tHG4euC3QdNcV+i18lz/X8CBQdOcBUxENWdlOIMQxRvsi9p5lONOTGcyd9tdOz8BPgc8TY6hC0DY/nPV8C94qg8rncn8J53JfA/YDfghW4ZBDGUAvw+a5jb3tyVc7410JvOChJUQJXsJyAB7BU1z0mgHpzOZFPBFVNB9Lc9hH7X/fHH4FzwVWIPSmcy6dCbzXdRjzXdzHGICN9lzl4QQmth3S4+h+pqPL+I9MWBm0DT3Gfo1+2d6of3pA8Pf68nAGpTOZB4H5gG5nj4cBJxS2YqEEDncZP/5taBpFpopD9t/Ng17fQHqyePbwDYd8p4OLIB0JvM8qk8rl+EdeUKIyrsd1R+9H2ocZSF67T+PGXzBvqUc7NO6bPgod/BBYAHYT+8ezvGlI+yOeiGEJvYt3mDj4SdB02wb8uWngO8D/x72niTw38DjsHnkwB9RU/yWAVflupafJj//Gjgqx+tNwA0VrsV3gqa5HWpRue1QI/o3oB4frwD6gLdy/UbzgqBp1qMWxmtEzfqfinr4sgl4HzWu7iXUfFRZccMWNM3pqFZPIzAD1fcLamzkctSCesvSmcwH5V4rncksCprm/wFfB+4JmuYX05nMb+3lZXIuMZPOZH5h17kTam7hHOA94JRcKzWAvwKrE/UDNnwe4EFIYOVzQtA0vwAczuiPnT8ImubfUB2dt6czmVdcr24EQdOcglpq5L9QY/QmFPC2d4Om+SBqjE8snclkXCzRk4KmuRdwOnACKuRHezA1EDTNpah5fbelM5l4GZe/BAiiWlvXBk3zdOAHwEO5fpHYgXoealmaqajFEOanM5mX8l2gpKds9iTl/Ya9fFE6k/llKecr87qL05nMvCLPsz9qPuRQz6czmULvv7Ww615Soct1A99JZzJ/q9D1AAia5o7A/6D6LQsJqXxWoJY1uTKdyaxzorahgqb5PeDSAg93fYnkoGkejprf21LGaSzgXtT3/R9l1HIW6udrmv3SW8CjQBw1VGkqarD4x9nSAHkA+HQ6k3lzpHP7qYUF8B+2DayRJjPnM5Xct5diixagOWiaV6HWOHK1tWKvU/9lVH/HqON5CrA9agXMC4KmeWE6k7nTgXN6jt1KuQLVqiqXARwHzA+a5hXAJaV839OZzE1B04wBF6A2oWhArYs1XBbV+f6rdCZzXyHn9ltg5doSaGLFq6gdBmqQ34FB02wfXCHSaUHT3AHVh3HMaMeWIIxawfJ64IJqGiQcNM3DgD+xZWS4U+pQT/uODJrmselMZrR5gttIZzLvAt8Lmub3UZOY90PNXhmH6neMA0+nM5nhc41H5LfAGpfjtZrrp9Dg48B9QdNscvoHPmiajajfsrOcPG8O5wC72z+ARf2QeFHQNI9H9dUFXbzMQcCjQdOcM9qtWj5239WL5Bi1XgpfDGsYYkqO19ZXvIradBhqDphj7LmcD+N+WA06Euiyt+byraBpNqMWGnAzrAbNRv2ycuI2vWx+C6xcu2kkc7wm3PGVoGke5MSJ7KeAnYz+9NJphwI3+nVal72L8l3AmApe9iPkGRdVab4JLPvpUa5Boi9XupYa90OHznMFauNRHU5BrRbgK0HTNFG3gTr6bT9lL8uklW8Ci/wTK5+uaBWize53Kpm9JdSZDtVTqsvtAYt+8t+o4QClSqOezJXqx7pbpr7odB/yyHu4AYYtUi+28R5q+sOLqNHNadT4mEZgPrnXHRvNqcD/llKMPWr98lLei5recbf952rU0IUDUQNMix3eMgm14Ui+eaqeYodrvgXv8rGA3wE3AkvSmcw6+2dpR9SwlW+g/h0Uan+gHbWrjRa+CCzUyNlc61/d49aj9irxKeDWfNNV7PC4ABUgxbS22ygxsFBht0eR71kFRPONpQqa5ldQP3zfobj/j88GTfMH9rw2r7uQ4gbSJoGTBrfQGmRPv0oCNwRN81bg58DnizjvOWgMLM/fEgZNcy7wf3m+/ItK1uJDyZHm1qUzmX57dsJ/F3neg+ywK8VXijx+BfCxkQZ+pjOZjL3w41n5jsmjHrVfgKcFTXMixbUEPwCOGR5Ww6UzmQ3pTOYLwB+KOPcCux4tPB1Y9lyke8n9RORP6UzmsQqXVK2uprinrePI/cR2RPYTro+OeuDWzih0fls6k7kF1WIohu6+tEIcS+4hPflcks5kinkY9SVyL5SZyxjg6CLO7ShPBlbQNPcJmubdqI0icg0WfRNZC8sx9vIgtxf5tlI63otdcPFPJeySdCmQKuL4XYKmecDoh2l1WhHHrgSuK+bkdrdKMRu7HFnM+Z3kmcAKmuZuQdP8YtA0H0ath5PvqeAa1IL2K/J8XZQm13pjI5lZwjWKmqQOXFnsBeyJzr8v8m3DV730DHsFz2Lmvd5d4myERUUcO3w+b8U42eneaG9hn8tY1H5kY1Adh9NQAwZn2h/7oCYkj+Zt4IR0JvNs2dWK4f5V5PFFPZWz+7wOLuItSezF3UrwJ4rrlzukxOtUwl4UdzvYU+J1/l7EsXuVeI2yORlYX7Q/3HIv8Dkvtazs5W7K9d10JlPMFt9uSaAegxc6zmba6IdsZTbFTSV5JJ3JlDpm6G+oKVuFTsHZZ/RDtNm3yOMPCppmKa1fUPNyzVGPgp2CpmnoWCzRD8MangB+kM5kunUXkoMTTeNtdrfVIZ3JbAya5hqK+21ejA8VefzS0Q/JLZ3JZIOm+SKFd/DPKvVaFTCryOMvcaOIYepRY+DeqcC1tuKZPqxh3kL1X3wsnckc7tGwqkZuLr1S7ADV18u83mtFHBu05zZ6kdNLxzilEhOvt6G7hZVFhdOrwAv/v71zC7GyiuL4TyUWm8yHQPKll7EbKUFUYFEPvXSlhyBBLUrCqIcwgi4UPVuSRCWkVPRgFER08aEoJBKFMIigJmtCAxWkUslCac8ao3pY32EG55yZs/Z3HWf/YGAe9v7W5sBZZ+9vr/X/Y7+qe6Pq2IyzMnVRZ8LyJoR+1m51zj8fq57vGp1QSehDGTXYZKpMWG9h75kG8S92w/cPJuB1Evg9qvZzd86ce3h70GLJeF5jhbO9ArpCV6VwWukprDJhjUbVjyt83lzA++K5H1nPqz9lE4j3yFKmKXg+UrlO/jC0fSSc0+Q+RhfeI1rZo5B3fj/57S7Q1R+0VtbV1ZfumXOP487xF5eM57naP0N3E9bJthcwAE83QWXkHVamKQ45x5ctGbnKMfZoiZqvuvFqqb9A/eUGE22Z7uaElWmKXzD9skVDjr8hNVBhJuq5lRxo3NkBPOUZAN9G1fdrWUkHyEfCTCMUdug/OKZcFkS8Vd497nGO97SlpLCkxFzv2u4sEavz5ISVaZI9zvFu3fVCUXO9c1pqz+KwLAgiSWYbUfUIphQ7LOuCyKUpseYCOWFlmsRb9vJwwpdvAzDiGD8OfOmMAfai3sOqhBg9PJ0e5wHvzHUrs0HkhJVpkj34dgsCvDvsly+IrAS2ONf0SVRNKVL1lmk8mhCjx0fO8ddh/otenfvOkxNWpjGKrobtzmnXAp/PdqQKItdj0ipe+d7XneN7/OEcf3MQ2ZQoLf0p/pu/m4D9QeSRwh7MTRBZFkQeDCJfBJG1Kc+omnxLmGma14An8fWi3QiMBZFtwE7gR6zv7yLMNedeYC3+dpFRwKto2uNwwpxngLuCyJvALuBgofY6I1H1TBB5BdjkjLcUk7/eHEQ+BPZi/bpHsbqzCSzBL2HSSekSYAV2S7t8yrP2OWPXQk5YmUaJqseDyIuYxZaHC4Cnir+qeK5E/dVo4ryVwMvF//8FkZGoemiIeVuBx/HbmYElpPX4LyOmsqLE3MrIR8JMG2ym/dqnnWWEE4u2rO9LrmEcE04cJt5p6hXInI2csDLzk0Jz/H78N21VcYxq7L3KFmiOeXZ4RUHo2yVjpjISRPoZwjRKTliZVig889x1VhUwgZmYeG4rB7GdcrpdKTu0h6i/bqwfC4ErWog7bRGZTCtE1R3AxgZDjgOro+pXVTwsqp4Ani7xiP0JMRWrZt9dIm4qOWFl5jdRdSvwAPWqnYKpRdxateFHVN2GvRBPwdOqNDXmX8Ad+LwEq+DKhuNNIyesTOsUO61VlH+JPYhdwNVR1dsaNBRRdSNWqjFricJZuHdYU2LGqLoB65v0Kjqk0rq7UE5YmU4QVb8DrgEew1cNPxM/AWui6i1R9WhFz+xLVN2CSeK8h9mlzcapok+wbNwPgMuBZ6lXVuZnfGartZBah/UNpss+laayfBX8yXSn4yo8BuvmND6HZq8i6j6G16066Hz2rBSV8K8GkTeAdcB9mOuxpyB0AqsM34GVLjSmc1WYp6wJIk9g9vK3YTvHfkWyqXVc/eL+DTwfRF4C7gZWA7dTztnmGObvuBv4LKomHV+rphUh+UxmWILIYmwHsRyrbL8QM2ZYiJVFROAEtis7ABwoXkx3giCyAPPwW4a5my/G1n8kqn5dY9xFmBdk73NbihXfCpMblQnMrOMUk5/hb8CvWf47k8lkSvI/yHsDPoFQ5RsAAAAASUVORK5CYII=;" vertex="1" parent="1">
          <mxGeometry x="144.9955555555556" y="336" width="70" height="119" as="geometry" />
        </mxCell>
        <mxCell id="orFnFvL_lUQI9brEGb0L-39" value="" style="group" vertex="1" connectable="0" parent="1">
          <mxGeometry x="680" y="325.02" width="85" height="165.5" as="geometry" />
        </mxCell>
        <mxCell id="orFnFvL_lUQI9brEGb0L-30" value="&lt;pre&gt;&lt;font face=&quot;Lucida Console&quot; style=&quot;font-size: 25px; color: rgb(98, 98, 98);&quot;&gt;Gatekeeper&lt;/font&gt;&lt;/pre&gt;" style="rounded=1;whiteSpace=wrap;html=1;fillColor=none;verticalAlign=bottom;strokeColor=none;" vertex="1" parent="orFnFvL_lUQI9brEGb0L-39">
          <mxGeometry x="20.004210526315774" y="20" width="60.39473684210525" height="145.5" as="geometry" />
        </mxCell>
        <mxCell id="orFnFvL_lUQI9brEGb0L-27" value="🛡️" style="text;whiteSpace=wrap;fontSize=100;align=center;verticalAlign=middle;strokeColor=none;" vertex="1" parent="orFnFvL_lUQI9brEGb0L-39">
          <mxGeometry width="85.00000000000001" height="141.09090909090907" as="geometry" />
        </mxCell>
        <mxCell id="orFnFvL_lUQI9brEGb0L-44" style="edgeStyle=orthogonalEdgeStyle;rounded=0;orthogonalLoop=1;jettySize=auto;html=1;exitX=0.5;exitY=0;exitDx=0;exitDy=0;entryX=1;entryY=0.5;entryDx=0;entryDy=0;" edge="1" parent="1" source="orFnFvL_lUQI9brEGb0L-27" target="orFnFvL_lUQI9brEGb0L-24">
          <mxGeometry relative="1" as="geometry" />
        </mxCell>
        <mxCell id="orFnFvL_lUQI9brEGb0L-45" value="&lt;span style=&quot;font-size: 15px;&quot;&gt;Power&amp;nbsp;&lt;/span&gt;&lt;div&gt;&lt;span style=&quot;font-size: 15px;&quot;&gt;Orchestration&lt;/span&gt;&lt;/div&gt;" style="edgeLabel;html=1;align=center;verticalAlign=middle;resizable=0;points=[];" vertex="1" connectable="0" parent="orFnFvL_lUQI9brEGb0L-44">
          <mxGeometry x="-0.0898" y="-3" relative="1" as="geometry">
            <mxPoint x="-3" y="42" as="offset" />
          </mxGeometry>
        </mxCell>
        <mxCell id="orFnFvL_lUQI9brEGb0L-48" value="Is &#xa;proxmox &#xa;up?" style="group;fontSize=15;" vertex="1" connectable="0" parent="1">
          <mxGeometry x="337.5" y="325.02" width="218.2" height="140.96000000000004" as="geometry" />
        </mxCell>
        <mxCell id="orFnFvL_lUQI9brEGb0L-47" value="" style="rhombus;whiteSpace=wrap;html=1;fillColor=none;" vertex="1" parent="orFnFvL_lUQI9brEGb0L-48">
          <mxGeometry width="218.2" height="140.96" as="geometry" />
        </mxCell>
        <mxCell id="orFnFvL_lUQI9brEGb0L-38" value="" style="shape=image;verticalLabelPosition=bottom;labelBackgroundColor=default;verticalAlign=top;aspect=fixed;imageAspect=0;image=data:image/png,iVBORw0KGgoAAAANSUhEUgAAA0UAAAFkCAMAAADYNmA9AAAAnFBMVEUAAAA3dzc2eDZBgzdTlzw3dzc2dzY2dzY2dzY2dzY3dzc2dzZnrj9ksTFjsDFksDE2dzZksDFlsTE2dzZgrzJitS5QsTFsuCtem0Wr05qr05qq05ms1Jqr1Js4eDhruS5xuytgnEdYri5OsjNkti9PqzBftTBWtDI7fztKqTCs1JtGpzB5xC203aP+//5WlT5hqTuVxX94sl3i79GgXE+tAAAAHnRSTlMA+DwhEL5rTayXhegviVpF16C5y3LO8uPgT+LApH3YJulQAAAqs0lEQVR42uzdQW7qUAwFUCQYkiAQKFMvwPtf3/+Fpo+EUpJ4eo7apjC3nFzsx+6t4+mwA0r2/WkH1Jw6dQRF+6477oCS/tJ5PIKaw3nod0DJabi5rYOiLs77HVBrR+HxCIrOOVzVEZT0Q958egQl+0vmRR1ByTUyzuI6qIUMmWIGKN/ViRmgpouMvJlmgFpWFymug4rjLUPMADXnjIiMzlQQlCLvEDNAMfKORx3tgMLDUYgZoOBwyYj7z0XMABt132UkroNSxvDFVBBs1kc+CinT2QywzSkyvuvIVBBscxx+ysjyEWyz/068I0wFQSHxfsjIHMQMsHGqLuPO8hFsLqMvGeI6qHajx0XMABvHGEamGaBeRpaPoDJUF49fcR0Uu1GaZoCtZdQ6UogZYGvg3dqR5SNY6/zUjUwFQbUbtX5kmgHWuGRMW5EzTmBDGd1ljCwfwTqHW4vovq4pZoC19kO2AvrP8hGsdpyVT1viM80AC/VjK5rIcCQxLHZ9Wn591FOaCoItk6lzpoJgfd49+fAo73/EDLDMYcgWLYyXxlGq8NkxnuQ0skvTDLBEn9MPXce7OdMMsGkwNWMmxQywwG1sRdOgIZ/7kakgWPRo1IKGyTu+YBmWPho189eWj2DpkanT+snWnMR1sPRTo9dWNP7rC5bhb6dfCmieOaTlI/g4UDcpmVF731QQfNh8fb2Bm7YmU0Gw4J5uHjI0+XwRM8CvunEA6CXwbu1IzACfcrqH19JpvaldTAXBi35WQq/SGSew4bzU2USQ5SP4y2GYd6P2avZGmgqCd/N0UxlzvvkIPp7C8JYzTmCJY6wkZoC562S/6F2oMJeD5SP4cZuN0r3OA43vpuUj/rF3BrvNwkAQRn84gi0sENw2ufv9n+8XWNbIQ11RILlkPgIYs8E9dLQwXlpx9J4uPo8QZ9kMQqAQ6ChlqGwGIeiejqdba0TZDEJUXtiTXSfELYVATMRuj/7zkRAoBKogm0GIg7inPSsYdnVUFSREEyIpJq+/YNtHLx8JkXjMu6SDA8O5irpssxlUzSC+mzFCHWihiS7ZDEJUCJHkwmmnlqpMVUFCJHxFLllNVj2LpmwG8eX0yWCoZRv0A8NeNoMQadKIJMTbvLG02SgapmoG8d245x2YbAbxzWSDwfIHK3kOP80s6eUjIZqmMwgEGoGq0gIF7XSGkNM2Q/vovHduHPuN0flO01DiGo+2+RR40wiCgFqA/bAgBN//o83QejcOwzTN85rLwHOep6F3kpI4je8H/8FfIDYYchvKqpP1lNrJZvBH5NP5sQ+reDb1sJGe/5D4JCWJszzGZQn9p5TksggsNzj54JhsO85FR6qCOj8O07SKh4SYmhgveX9zGCUkcYp2XF6vJfTuE3d3IRqllxLbHxmCyQW3us3Qdq4PsyUBWQ7nC5OvsQnJybYQZ3W0EnrXtc1b6YwfizgR0VQsLaQEVDOQgKZ0n0ZWBYagVJfPJBtd07rirI4Sy/BeJfXRKK8UkEwI5CIorvjPR+16CzenBISoLEhgvM1xlsojVGYkzusoK2mkB6X3vPYKSeQ2N9Jae0JCSOiaZruHy1dFAOsGF8VZHig+J93YibM6Aku4XUl4RYJv5tIn79CT29ybjw12XZjmGCM/ReF7NAoa6MNm1ZHKXsUp2n7VEdjMu/YtyYgfcji9cBtAIAiAi1C7MsINPXnHuUhlr+IKj/5F3G85uFgUAaHJmQN64eyB9s5pwz4v9EE/pEi5KAfo7Vpxjm547ViWYeya25gifrtLrXAnFMH9iOVOOkHSoPH2l0Oo/viQuE9HsBz+3ZOTfJbHASCmQ8H16ONDFuKNSkfiHD68GLYcrk+92qElYZejjw5IidBM6UicxS8v4k7LweNpn7IEH5OPkDb8ZaPoe5IRRuwbIU7hKjqC5XAlGZVzN0bGgeFU7oFkDB3FBYzFxWsK46exXWS5WyNi0NyRuDJ9VGe5UOXgoRCu9yGXG/pBLE0XcS6q6Qjj0NC05liMFie9oi4u297M5SqHEFHVRh4zxECrsVB4BtZKZfIKw86Ky/06TvbqNHUkbrLr6g9Kf81JDjqoVFkbtfalQZygWBW8JoxiKQQ9FCcZidP8I7vuLsth2h458saQTdAu+/KK75kh3nAOMbzwkNtuH54Dyh9I2Ui8w2Zglr9YDi5W7THuuBG28LirjsX5P3tn1NM2DEXhSusj27QJBG/XvbuxtKqwlv7//zZi9+bELhWscbtUOl/SxDIG+sDh2MeXwLURaVZd1yZyWD6Uv/zRqrduRh+Cexx6MPBze0O10wR0HRcb1Z2P3H8lE/hycnl0fpXD/UZujM3DgpDL7MKernJYfvSvWBL55jYkMJyCYh2EHtzQPknxxQN6PhrqbH4sCJnC/apgeuTwA8FA8AZ6Dk0ckFgxDAO964MDGvrwk/Dd/M5iIDKNuzKtmxw53FVWACWd9iKMm+ZF8g9eNB75yCIG0jatmxo5PCAugDIKDdXRtLd8BEbXtnI658bQ4OfRsPfeB+d05PopA0CVw7IKu0srqHUEkVUjClVhSD2yBiPRccr1TuqIu0akiR21UtLyEVaARv3zDbGgD91ow6zw2fVZ79XiihO94zHO5ueCkKksz7YjhHceOfy4ubBbhJVA5P/b0ThyuAtuKGBsE0fAS8rhuBUjAfo+yfvvi2ZEWvHl56oBT09fvz0GuTkCC4FIo72jNmxvUEWM6Ui7UoYm3KCKhHtGZC4hQ8ZuUEab+wUhM5rV3c6UjmE3uQTfVg2QmyBIjK4j5gukJXdPDVR0E2akKq9RJXBKR5qzPCPyvr2FUTDd7d9YxxhyB6d0pCXnZAyzSenMLEZVjZqxaAmp0OeXxD5/iCkdaczX1b8wm4WRuXRiOqxXkEbrO8200FLQ9cuBZ5UelqSSxWJWGcPVp3RmY/1o7DWUidYfPQcp5fHyMrDLMuIjh0ljvq8mcO2sO0JAfnvDNOkmmlrMGgKir1DR+ncQEWPWTd6YTx3Dn5VcA0sXdWJ6QUnR+o4Yk4pUxkKSbleqqIdPAyKZuSTekrD2Zw9aptq5hko7stKLMqLvedGuC5LgjhGZlYy2cgV00FDUwocOV1PVrKKsKFMxR/cvziZKYsOnmJDmfHmapCKTSwA/ShqqvcjNyPTIi0QHLxIT3Q0TOpXMhvECWcxKRiJiFzlE7FhDdbqQddS/XEVqgxdtxQQro/Wv4a3yryPIBVieL6OLeZEdQrluLKEIL8JpagovEs0vk3SadK/r/f75VbGHxKekkoFZVAPZBbzI3Ic6zWdFHA6N2Yqs8CJNYhJNOhLRxJBWGKsXSGI+MtrmH86m19zQrhvLqMOiyBtI6bTO6FxGb8gRxqibjPj/RXXb5gm3pWvMsqm9yCdxCBZKL1KzQT3bYCZwNnFYA0ScucjIp0nTT7/5ZE7hRQ6MCC9TrIuGdE5FbfAixBU9fJ4WmUj72lRDJj3xRFO7LmuomNDVu66m8WhdlNH0xTQc8gWTsRfxsfdkxDxkZE0V5EbUYT6XzoJYuFG5LlLJx3aIF9yJQOAf6pGBWcgoL4wgpbLx2XbG3Ijci+q9ItQtZOm850XYcJW8OHKN9rCqm1yc+7NUhJ1SeIrfPtv2Q/R35wIqp3SVjgo5FV5kB0cKWzEL6t+MKvrL3tlopwkEUbj8+E9aqzGpNaL1KMVYT23f/+G6O5vtLYGVWTTEczp3EcFEReTzzgwLiKp1CxjRNooRCbkSd9piuNtbhMBRKaArGFHZi0wkpzCiCTNDg6VIOi+I/tUNYAQTMqOGjbTZWb3yImREdIfBuhF6oxZrdGoAq0KRqB199KeoGqOVxxjRnJFhByi9IomosRPFiA5mZMantYrs1vo9hCKRU++O0amUEvnCQyNAtNEDfKhA0Os9Rui9gLyIODL4WJfbiheJ2tVHX4qUwALuOSDRPSCy2phW040O3X/URCEv2qx1U7ys1QgFRKkuiFrTJ18voobBPsD2Ihp2COcMQQRSRY0OiVFVjU61l7d+nE0+f767/3j/cWJYkk7dIqbax+gvLfAgdnZkO7pRca7sRYCoYEW2TocjI5QMRfSCjxN18cwkilEzWRmOpAuQqD2FPgccXeWYPI3Q/pwXgSDrQLAi07JMvc7D7K7qiuiJsSM52lXUopIvPhRdLONE1XmRJQrSKMGQrClphCb3FQTBjhDSyRFGIoZaxOiE3J1uGPCwe5LCuQ0QqvEic9sW0iKaXWWz++jsJ5qtJaQTtavQg6LtRbI50d4nL0KBwZQWskk9GHfWjtZSpRO1o08+FJG/lPvT4VHXpH7u7kAQqcar0SGay+xZtGZgiGNH68cPIhFD7e03MhShmVk72Oac3BxsYcGdF5GAUdGLVg/cQx1iZUdyuKuIodYxAha+bUsQ7XfkRKwaHRhCiW6WeDistiO51rioPd2/calbj7LDfv8CkDsvKpNE4ZzZ1Yoch29HazkPkKgt3b39DqO9kkGI5UUAyQybRxz+zbcjqdKJahXPl8vlfD5PkiiKlZq/0oRZXmi+t/Wwt1605+RFiObIjlazqMmJWtZr6ZEqqsfoafH1eDw+P3/VWiwWT1pLrbmWJewqZ009XZIUcb1oBy/KUKGb4BP42dEPCelEDEXzp6/PRJIeQ/QI0UV8GcKWACwp8BV9ebMdRisD0Y6Guryo8upF28aGEn+WEwGJmJovtSU9l0RkleGCXgBTeC2YEZ33CbspKVIUwYzOeVFlj+67SwqQEtKJ2EqWTwCJraNuRr9+cnYYkbf4CPGcDeaY/ehwNcrL3EQiOpGPYhPbPTfT8ffP60d0gIgEJ6qt0SGik5BM1JYAUmOOvtVhREbkVajTg43nDEHsfnSWIylVi1oVHKkZSAyK/EK6lcOK2P3otg8CkYinG3Gk2tRo62tGStRpoeRFnH50qkk4J3pPRfMF15D4qZH1oRXzRtoZitxeVHk+Oi2BSPTuSpYLVq2BnxptVjCj2hu5USGeI4rgRRt40a7ymhHZd4FI9P7yjeyO51Ojk/UYsOS+J1FpATJlbgjkVB3rmsk1H0Q3oXgOQ7o4NTpZghpUuZEXub2oqEz2l4puRsnSx5DOpUYnmA23HVBboLyo1otwXdfJB5HodhSj1NA4NYIXZTTi3YwVwYz4XpR5nr8nCnu9rlavF8pVkdtSHEWhUfQ/9BFJkCH5x3SgKFMNo9p7ZUVASMm1v2hT7kf3kPC/yrA7mI5GQZprpWkwmva7YcxYKaFbURzXYctT8XOU3qb2x4Gt2r77SeivXuResu6gM1arnTQajTuDcys9DpsqomXvhUbenP/9JNf52UBg51vuBkWe+k4QedXofGvccW8wTokeiGbHg9r1Ns1Th/IgMJuFeyvv5ilH+bSw6aWF5cRfXRrkKUv04zGeDoY99xL389Rbeb8ayG5/lOYk+492pccO6Og/Gygf6qf3zNNzmuMLKzAfthDYsWK6kzEZhHXV9wjo9gcw5FOjY3fjjobT1PH1qIen3fM/zh3XF4vNYtTvRtekKChtIxdTBGGJHRQF/tvw4ENZvf7IvdLHw8q3j9KGyrv0/OHLwgceboRvKcCvwRUEjhrFdISG5WilG829ms/sA8qKVANH1Bh5EbeyEA/1t+naNHSEN+76UwQFtGGOBqE/RVDHSRFnqxjyKQJKo2H0hhSFnZQYsis+V60wP+pekaKAKMKXlU/5CRjWdz6Or7wLCRz5xnSnIjI0UTVvJ8AQanRQKS+im0mKWPWB3rh2E8vzTtiYIoR3g6iKImyTjbwIf+dTlLub2YoDbMhOinJ+y0u/4fHABqX0dx1GdlR6FGiwsNLL6yvJnctNci/BsLDqgtdc86INbAVtceSO6WystoIdqQaMwBiNDqAIZ12o6EdHI4iXFMV/mDsTXadhIIriJXWWAoGwiF2CV+onhAT//3PQoPQIJ24m6XS5KU8U2r4sPr0z40lSxihCYLOWIhSbsNqLchQRscgpaoqMukOaT5JiYix8hiI+RKIuiThdF49O3xR12Hrvn3jvXag7SJrYXy77G4b9lPv/kO5weZ2gjoJ9rB7XEdPlI7ovAzsDRDAEPz1tux9pXpT3IkgSTrfaVoxA6c+hyPSj8vNGOS9CxkkpikX+O8W7Q6WSr/bYugmK+C5fJ9dEM6zLKP2ydTMgxv6alZPlO1RHYiONzuxnSVKkzxExXdaLvj+w8CRZeqwex1bU/5jOi5BkpmjDeDmNQD+Q3VqKUKzHFBkFL+IYr6YIeVsxkFuvTpFvB4iaMF3sMcf1DXoUgfAiKHw3YMfxV+fopB2d9CKW02XusRf1epyq0VFi2D8TlV7EAqP1FBEV6HsRn7yeIuSqI53FZER3DkVlnLN32w0vMVslilBYFqBVghBQY/5oaUzXR2rC5csuTYtYMl5EPKcDEercWoqQsbp5EWrc+RShYBhsqhSxydU8aSZ22hTBhchcAlHEJeUpMwj76Q4x3L8/w4Pno2c/Rl60k+RFb5weRBSsC382RbHTrtGRuSlQhGxDJKNCEfEcq6E2zwlFAnWsgTD+4wDoi7Bu0TkSX4eJ1e/DI2md438PAd10XpSv0R1+Ck6HCJ8zonIqSj5SiuJRuZhOO6LjkxUoQoGpFj2K2GLjZOVl49QpskYc05X41sVFWCcpMBCw9Y+Ty27Ci+BnYr6o1/61F37JjDtg2qIsi+7QmSIbqClFZf1PVVU0nydqB+TrcoqMIKLDNVQo4l2xVaOIcWlmPcYPLlCqUwTJVvBCjvul5T7kMGLSaNSOCkr8SPH6C9GyGt2OqaLlfTttFdyxN7WgUoTMduaTov2v2DVRSY8hW6OLpc1JQBFDW4MixvFnq0YR695YabDQOHWKaGEQfCpbe3m9w47mCgy/CNhSiPgfArrMfNHjZF7U/2X/ck1SFLukB9JW/CdDME8RjCBP1RZUMushPlpQlCooUoQZ1YoUBXISsWvpU+QaUdbVRcKH62j78edsTAdFwwJB46U/s2jKi5Lz9MZe9Hx2ZSdmXDaZiivC28UUkaWjxqtTRLSoSdGWN8gpkpMpPEix86oUyVsYajp/rqdP08W6XHUBdujmTh+PYi/ix5wVMRSQiY3NNAiNkg+/iCJyWWTVKeIDNCnybWQYq1BEuh4WvNaqUYTKeZsJfHFeU9sPPyVm9IsqN7bT17eTR58WifMiOHombOpAsXUzRxLeajlFjOGxnZEXKVCEghpFbHzj9CjqpGRwmGKtTxEF92r2FeWTK4uobqIrFYrwnamEiMfXH2IvYrJo/1peWqC6JX9t6xdRxOGAlQt4EWunRRGn4xirRBH7wjgZcqywMkU4Tc4VK4XOH60iAwUGKPouU1/nzuVFJEapF+2XW5Gxc4loyomcIo4Hw1idIhTr+6aoieSGkuwl/lXj9SlipzROkDldWdsJjDCjhRQ95r3oMZkvorzwVtACYkYjT17Oi91SikL6AZoUxS4pgVg9ijZaFKFFXuRDsH+XoEaRvIXBGSK+G8iPk6PfKUWTM6zJ04MexXkRUR2niYvdpV0W/xkroihfX2i9Zl7UhYRRTYrY4BvkRUiLInkLAzNKN9KnmQLDr2njSZ/2aZE8LxpY4rI/YnMJsgga61pIkTNp7qIZ0Rn/b2CzevdM0ZBt1LenKN/CQEEez7yywAiNKHoYPdJnUCTIizCj7y+FlSdUSL8/GYZyikgGkApFyCXPzfZ+86LjBrf+9hTlDccqFLlVawyYERThPiDDPww/TnhRei893Gj/aj7BzRSeheZF1UZO0QW8CFkoAZOzKSKBjJqVbppq7oAi1+CMmTL4bUSNIV/tfoCVh+NP/np8ust40Siiw4v2b9zSZu7WSY88pKyJ6FCnO19kU7eMGw2K2LRWkSKufrK5PUVPwnR3QqXQ+aOJEdXuFV70eMKL/qcIK3opq3CiWIpHE5nHGdUF/Uq3HdXuG6dCkWvUOoCQhfXbUzTNSyBfupUo1WXNqGdEoDFF+XuMD170ajESG2l+gEo5RaCClGddA5zwzaBB0Ua9G5Uwsf8Md3OKpmI318TbJ0WDwCg1o2MwR0T3wNmvxHg/Ml5EdYGIbmhd2Mr2GzJOaPwodhKK8uWMjT5FbBUD4EyKiBODDkUcAK7c6G5DEbIcN7Zw2E/3oI8/M2YknHPdQxHa9UumG1Vy5Z9tk5sskr+n8WKKCOiQPXF+UbBh/LB+JqLLxnTrKYLwxqtdA4gLaQ0cVdbflKK0hQEHbu7kpiFghBlB0az20160G/cu0P3zVB6XE/zMyqUn2zkBRTkriu2JYM8gxBHOeBERPue2n02RNWSBal6U7s5/17Z3/jYU4bgMhK05Hsg7ERhR7V5NEXlReoNkbtH//dni6KyWF6uQFVMEKPzGpWeMRwlFaUwXlK5eAsLnehFyZfz/kuBdVQfrbkIRZ+xtgKo/SncjMMKMxBR9zeVFEJT2dL/ZSnvD5MUF7AQFKUWMYGSTtVGgiK8H3uPPocjXM1fSKmwQa+ooNLH/HEg63POlrIO7NkWEcH2GXN9VUgRGYzP6quZF6flFb70kDl5OUbWWIgt/xFpCL0ISitIm21itp8htusjq5q52LxA8p3LVX0xRT+ZBTQdJV6KIcgKTieZOkiIwGpmR+LwIWR8ddW5mi+QUBVEKKqeI4zi+AgoHWj+io9GILWP15Zmgs5uyjUeIOp+hSKj8WRDbqr9/EZ9GgFds3DUp8rQw3FORe4wRZiQ/NeJb3osep68wvH8hsBUNijb5nKkoexVFx41EEAkFNTotL0pTvtZPU9SUeR3WmouIcR3L1RSxHmP5TdFESOJzY2zK4K9EETsuNsVddP5kMcKM5BFdxotwosSLaKK7OEVBcFXHBCGuHq/uRZn0LVY5/z0pXhdNfaKDRyzjT8WOVWv4pWwY9zC8PEUMijvp/MlhhBnJveirfL5oAOnZ7Sma4YHyh3JexKw7sqy+XIzj0mb74GJbyjV3h/FQF60x4/vqduE6FHHy4L10/uS7GDCjX2d50e7ENYCe3zdF0fBG5RrdZJ2uW0lR/Lu03EJTs9KdR2lTl137L5o03E7v8hQxOXYPp0PMYIQZqedFcLRdCoRZV6OzaygyQKTtRbmYrhZHdP/9urasmb0R3HlFjyXb33Y8f/tBfYo4EFRf7lQHjDCjM73ocZd4EXdzdctrdPWa+SK3hiKueaeeF+ViOmMnqgvtZkLD+9pgrSctuBpFyIeqiQBfX5oiDuN9df6M5d//xIwOpe79/PKwm/OiNC/aveHwi2ddK3GXCDJ+MUXmM+FJvkZnpvWHvXNhUhqGonDSpukLtWvX16i4U4c26jo+/v+Ps6TGI6GBe9fKlpmcYmFHWFjIx8m9SW7IFPlYmoya6U6kl358HIowXoWvuYtQhGocq5n5M48RzGiExGnwzrgO5uiC8+g6UESfAZTx59GZRjApksbbsDs0pzudlyBT5A9f6ZlRV3V6e4THp2ifBK8N/oT/ThH6G6YWK9a4bA9m1MOMeu+M63BctAuNF70gT4WHakWNPaGCRZG0c5c9EpZdGRGucCTTY4rObb24AoqESPG+JhekaFuvMMvtYzSZEWwn4EX21HHnLgyviWvtIdpnpClrXcP7Km+baiPEBSgK9OlIFKGWh9ysgSIEo6ZRF/SidVMk3iAy6pzdDMccDeCIGRfRvEi1PhL87Lg+RZHBsVfdlLk6xadciqJwn66kUIRZ4Y1aBUXASEcvOsTImtF3eFHvgAJWJ70IYZE/XkSMi0TBD4z85bHJCYqa1qlpi6LCCrtLeZH/33VK9CIsrcnWQZHD2rQqehEwcotevyMwcjw5rGhetJsbLyLl6NBwwQR3YV+jTq4YV06420Up8n9pQaUIm9iXq6BIoCJ99CLo/dfJjL5bTsANUPK8iF4DyJ5RRoueKpCm4nboSmpVx8tSFH5JOY0iBFBGr4KiP6FaFb3Iw2g0I9ujgxW5HxxI7jbBi7wV4xvOnCl0eZj5CM2m6JJxkf9FIU0GM6X016zyVVCk3cqf6EWHM1OtGfXQRA1uw5iYNYB2mEdHsxa0XdYWE6ZWa/cif4JGWxMpQigik/9AUarY09vcWx69yJsLNJrRyMjgLuMx3USkZH8M1Ua1x+x40Y5GUXJyDff5Ej6lWD1FfrFUejpl44y3SZenSPMehW6AVNGLvGqPY7LbcnL26Dg1gFDTkb+VXsu6d3IFFCXboExGi+jb5SnKma0cyfc0etHR6KtNL5w9+o5cd8GV6n5Cb7rU1luZ40a49rgIL5tNEbZbMcXiFCVAk7uBZfQiP9/99eeuHygHswZQN9ywPhvIaDpxubgCL0IOhU0RVrNWy3uRqR7Uo4tx0TFGXz/vCE40nqj16OyBWvf0tgtp6j0zcR0UJWEvIs/u0EtTxJoyjSjNNDFHd6T31ozOYLQ/feLWAHqhuAuE0YBnHqrKY9ySK6EIJfq5FCG1L5OFKeI29Ny95DhedKx3Pz4N3XBS3f6yI8+jsxyhqiNneQQWr/kM5Y2ZK+FzFXER+q1kiqAEywOXjYvwO1mb+ZkqetGM3n7o9m7T9cF/9uhYNYBQeIE3ZoRqGfrvYnJVa8wxakr8Xy9SIXEpQraNTxEyDO1SFKGlmgYYEfuWJo9eNCP14qMbFgr86+01bbwIObr+lpX88WULRutRVdFKMOT15xanCKrbppm7tG2dMynCVwWfIjzUFItSlNbAiFMnLo1eNKdbsDJ/TJdPzBpAww19VHy+iY1yZ8hL5S1OEWSC0nyKVGOYFEEZEnULUQQuTJ1wtnOQpojri2a16YfOghLGqBvPO1pc5DjaIb3AD418yUBd0+XjIoIkgyIofzBFyDAYvRRFGMcyUrPqlyVxfdGs1CuL0XiELr3NMHBqAFltWDZAFno3y3vRAhRx+nQmY1Zoy5eiCC/JUHaj1OhVRi+a1/PeQhRiyB3EenT2Ys3o6fItGLsnXB1FqjZMiiCN0lKLUQSyTZOfe36Ujoh1FwK6/WBz3UEfmtTvGDWAyIERPieq0G4Wp0guQBEvpZ/R08xITC5FETAyWU7aKMxoEb0ooGfdvkcXHnC1l274GKgBFBgv2g2vmTNSyBBVQlyfF9m2wafIzzBkPkXcmTw+nlOD3WZ5GoCiciZqeY1edCIwOq9+oM9dsBowYkRR2p6L7lHp9jopSmvDp8jP8ZnyeC+9XDPkNe7cbRNkmlIfgZTqwr1oaZ86etGJwGjoQugM0I4XF3X9E8FSRbEjU6TCapU5uoTHqcn4NeCN5u284qs47q85jrbSbuq62aSbJMl1VTbYQGlK5kUvCut2ImbmQILBTgIi1ACCF2EqHVVJcZYhuwPIlXqRbR1MiqAcT+JRBD0spsxboDINz0n5m0w8zGQjFdGLTijdZ7IJotRdQFw0YvRMMJUX2/2HGKhqugVDwehBQlsmRVtJ0iFF9ZbxjKn8c++Jx4wVwthHyW2dHFIkOQJFkNIN3vbwO0+nyB5sivyA78q8aN+lG8KX6dqaEaEGEIppdcMTwVZSNuhF2FbjuhtNefaTbA57Nzkz0CbqgCJjOM+ozaFaxWpbv1Vv3JfGA1QEvr5qWA8k3Z6UnFF8M+mhFOEPk9dF0W1/Nizq58wIXnQUF6G0I1cqr7J6KmjqTqbOKNtdP/n+LasqKOXxW1GV4EGqqljPqN09SyvNemN+P6gqtKudwFb4KdO8bKUZdVBQdltnJXOj8bSchEfxhD+sui6KNi+HeQ/CD1afQNHJGkBOGHhlSiW6Kotsr6KsdKJIGfv7u/tnIuqfdtEri6xt6vFop3f+uhryIwldOmc5OOOGSzN0X8Jzuv24CAteL6TNq7v75yJqAZqUivA8LEvXgZ2waDWALEoTTRf0hhejFd2KqKjHUvoSnuPO3vXQjeeP5+suOJDs7f5GXEo3I0Sv4ldo1CPqZqDJj4tAkB8XYZPki+j2/u7u/kZERT2eng00wYyQWwjHRZczo6d3oz5sRFTUL/bOYMdNGAjDkcIxEIECHB0Zxz40h77/09XMMPkXF1Lako0jzYex2VyaQz/99tjLvo+i3R5Gz8/RwSEfh28Ko3N0SGsLyru5+LCJG1nE3NbO0UGl7wmjU38fo6g6KMo7OXYbjgFZhNHqO4BEIOnD68t0BUl0bQ+K8l7qv18Z3Z7uFwnt4cUULUnktMytvJtT2Lwy2rIuws5RePX/bpbo2mmZW3k7td+qEbJIVkYL6yLQvbbA0LBEXqNIeT+bw+j2Q7JodUZHvajkX1k7KyaJTHc8KMrb+Zcworb4PjoLfHnYH6yJiFAeFOX9nFCm21BgwLqISN5H903H6Y4ikdcoUvJgDKPBDmEINt6rzYZoEOrci+foxCTCh/54APvuExFGo0jJhHHPCFjq5i3eJNIf3wGEB8K3xWF/zv0oEM3ntECn5MLFT6oMYYT7lGG8JYy4re0XBWjUvODbXoUQtECn5ELRhi7YSR4MSQsD5nQLNTpu82md3/8kUFHfJYlcaDWKlGw4B2Y9jGRSh0L3wrqIO3Dbv1B3oroCYYagJ+iUjKg9JnR2JYq4w75rul/ELtEl+L01qriuwIuioCfolJyQAgN0Wcgh9gwH6dIZHd/A4/X3O1FzCFEfhqDvLFGy4hI6S0ujIV7ky9cLdlmqMKxWF5IXMPhpbVTsM+9s76QQ4Yegv+KqZEaTlONA+qEoNF8XreQRa9QedygrlJNCNLghdPorrkpmHLvQheHJxcO4O3tbfTdqqpGfbtdVO6yIDFkUb5JIN1yV/KiiIsGuWvRVp2enUfkB+KmV/1eaa0Z9jHmU5watcis5Uk9hRG32JE26YeXdqDe6lhyKV3v+d4fq62gQXSKRVrmVHCnatLoNbRK9OI0AK7QKeeRtffxHh/o7JdHYiURaWlDy5JQujKaGAVotZRFfSCPkkKyOLsXff6myn4LoaxLpATolV6owQJ/UJnwmGq2ui8I8hmCTb//Oo6JqzN1gMmcmifTUgpIvJXuS6pMIhTQSsC7iYQYLxINzfXnaqlCMoejOiCSRMSSRbhUpOVMHpA7WR8s+yZQO1QWwlEWTS8Y2lw0incuWFWKLZhLpfE7JmaIN9jFpo7Z+haUsSs50i0RyUXOuay7n4kkIVXVModEhRxJhVeToG+nRHyVrjh39BsTifG7WaFg8AWRl8NyLTTQ6Wh65SN+U1flUJP6cq7JpDSkEeKcoNh8l0v1WJXu4UPd84xVBlczo6E4PL2BRJIFEwxgzvm/bpq7LuizLumnavmeBHDdYxB6RuXqUW8mfcwdJUo3QptFiRieNSUWSwY2Xjw/UO5Pi3NgZ4B4SmTBE9Pyc8glUXzUC+IT7wPeNsZFEpsSe2PhHVsmTTc4570B0hru5Sbwkkm+gRW7lA6ieRBGe5GF+7ocHPKE4x6OzfLFFLnZ8O1KHewGPtCTiINJFkfIZVMPvGkmXqCSLI9IG66IZHjJNFQbJIokgizBikdgmOGQeX0D/WJHyISCNqFvQCHZNeQSPUKOz0EcUcuyQQxY9sBRFotDMIj8wnZ7kVj6HKpnMpe6IQDJCIhoFj4Ysms3oInZyyfwkjcQhbBY5+fe1sqB8FFUnGTRTB8nEA368odLNsFOJRk7KDE6yCDM5e2WT5ll0NR4Od7rdqnwSY8Gb4AHPs4+RSFGZ1COkD7LIz2d0gqXVUXTpF3t3sNsoDIQBeLXhiLGw8FyJPE1Gq172/Z9uzYTg4IRVoyRImP8zUKNKPfXX4MFtjvm66MwjtOdge2rKm3QPGnfXu4HmJ4VJ5bVoqkeaouHUo7/UorQumurQbS3Ef0KFzdEY3ZGHd3KZ5rXovtetCUq1qA9ag6Z1kd5FQ5CO/ZfwDfS4YYMOXm4zIik6y8JsL2r250UxLiF7X3QjHEPMTjhqhC4ZQohg+1ph4idNnwiWMpQq0ViKbjvdYapF2uoerroeEkaIoAjm0n/jp4RJtiF1ubvQ/9VCFIdGaF6GTszYsgAb1rHw8yTrLMw6dNkOIBWOcegsRigIM6MSQTksyX2jW9J8SVaOlmuR3vXD0O3cZ8l/EEfozsGmVU74v2Q6M3JNzuwfAU21aBjptasOjVCOGO+JYPOM/iaHWWyy+aKgsibdWI302n/pGaci/AhhxwKUoCHhF0jaxTDWIh3naT93/A6HEy/w2DsHJaid8GskxJFtAoqzAQdeRCwOu7ihEIaFT/wOwmEcPyDoK0BBrBfWHK0Hm7ihNJU2GVZELC2e5qAw1suaORJCgxvKU3UkvJr28AugQLXjNRCLx4oIimW98McJoTUHJfv0Yx3Fw+BhDgpXGfpcmwEZgp04GJL3972JI98hQ7ATMUcsb86QCLkGb4hgR6rO89v8YRbyBvtOYW8q23JE/Ipv0i/kOkQI9qnuPIuG4dnwjIeiFosh2DVr/CwcC75n14ScsVgLwe5Vv40nljEt48iOLEF0uXpjUYQARnXXepLlApQXIfLONEgQwP0H7DuaRYj00DMh35qmxlMcwHKUutZ5IuJIxhFR5F3bNVgFAfxEdaitbZruqmkaW6P8AAD8aw8OCQAAAAAE/X/tDAsAAAAAAAAAAAAAAAAAAAAAAAAAAAAAAAAAAHAIZLJ4AMafr64AAAAASUVORK5CYII=;imageBorder=none;" vertex="1" parent="orFnFvL_lUQI9brEGb0L-48">
          <mxGeometry x="29.789999999999964" y="46.60000000000002" width="158.62" height="67.46" as="geometry" />
        </mxCell>
        <mxCell id="orFnFvL_lUQI9brEGb0L-50" style="edgeStyle=orthogonalEdgeStyle;rounded=0;orthogonalLoop=1;jettySize=auto;html=1;exitX=1;exitY=0.5;exitDx=0;exitDy=0;" edge="1" parent="1" source="orFnFvL_lUQI9brEGb0L-47" target="orFnFvL_lUQI9brEGb0L-27">
          <mxGeometry relative="1" as="geometry" />
        </mxCell>
        <mxCell id="orFnFvL_lUQI9brEGb0L-53" value="No" style="edgeLabel;html=1;align=center;verticalAlign=middle;resizable=0;points=[];fontSize=15;" vertex="1" connectable="0" parent="orFnFvL_lUQI9brEGb0L-50">
          <mxGeometry x="-0.0502" relative="1" as="geometry">
            <mxPoint as="offset" />
          </mxGeometry>
        </mxCell>
        <mxCell id="orFnFvL_lUQI9brEGb0L-51" style="edgeStyle=orthogonalEdgeStyle;rounded=0;orthogonalLoop=1;jettySize=auto;html=1;exitX=0.5;exitY=0;exitDx=0;exitDy=0;entryX=0.5;entryY=1;entryDx=0;entryDy=0;" edge="1" parent="1" source="orFnFvL_lUQI9brEGb0L-47" target="orFnFvL_lUQI9brEGb0L-24">
          <mxGeometry relative="1" as="geometry" />
        </mxCell>
        <mxCell id="orFnFvL_lUQI9brEGb0L-52" value="Yes" style="edgeLabel;html=1;align=center;verticalAlign=middle;resizable=0;points=[];fontSize=15;" vertex="1" connectable="0" parent="orFnFvL_lUQI9brEGb0L-51">
          <mxGeometry x="0.2725" relative="1" as="geometry">
            <mxPoint as="offset" />
          </mxGeometry>
        </mxCell>
      </root>
    </mxGraphModel>
  </diagram>
</mxfile>
